<?xml version="1.0" standalone="no"?>
<!DOCTYPE svg PUBLIC "-//W3C//DTD SVG 1.1//EN" "http://www.w3.org/Graphics/SVG/1.1/DTD/svg11.dtd" >
<svg xmlns="http://www.w3.org/2000/svg" xmlns:xlink="http://www.w3.org/1999/xlink" version="1.1">
<metadata>
Created by FontForge 20170910 at Thu May  4 18:38:22 2017
 By Jimmy Wärting
Copyright (c) 2011 TypeSETit, LLC (typesetit@att.net),with Reserved Font Name "Arizonia"
</metadata>
<defs>
<font id="Arizonia-Regular" horiz-adv-x="373" >
  <font-face 
    font-family="Arizonia"
    font-weight="400"
    font-stretch="normal"
    units-per-em="1000"
    panose-1="2 0 5 7 6 0 0 2 0 3"
    ascent="800"
    descent="-200"
    x-height="277"
    cap-height="643"
    bbox="-535 -350 1787 899"
    underline-thickness="10"
    underline-position="-70"
    unicode-range="U+0020-FB02"
  />
<missing-glyph horiz-adv-x="1000" 
 />
    <glyph glyph-name=".notdef" horiz-adv-x="1000" 
 />
    <glyph glyph-name=".null" horiz-adv-x="0" 
 />
    <glyph glyph-name="nonmarkingreturn" horiz-adv-x="333" 
 />
    <glyph glyph-name="space" unicode=" " horiz-adv-x="267" 
 />
    <glyph glyph-name="exclam" unicode="!" horiz-adv-x="389" 
d="M365 542q32 0 32 -22q0 -16 -57 -64q-27 -22 -46 -41.5t-45.5 -56.5t-46 -72.5t-32.5 -69.5q-28 -68 -4 -79q6 -2 4 -5.5t-8 -0.5q-35 18 -35 64q0 11 3 24q10 66 45.5 137.5t66.5 106.5q71 79 123 79zM78 -7q-12 0 -21.5 8t-9.5 17q0 30 17 48q24 25 50 25
q11 0 20.5 -7.5t9.5 -27t-20.5 -41.5t-45.5 -22z" />
    <glyph glyph-name="quotedbl" unicode="&#x22;" horiz-adv-x="314" 
d="M153.5 410q8.5 -14 8.5 -29.5t-14 -48.5t-54 -68q-45 -38 -86 -38q-4 0 -4 3t4 4q43 4 79 41.5t42 81.5q-23 -29 -56 -29q-12 0 -19.5 7t-7.5 15q0 27 23 50q25 25 50.5 25t34 -14zM268 356q-29 -29 -56 -29q-12 0 -19.5 7t-7.5 15.5t3 21t22 31.5q22 22 47.5 22t34 -14
t8.5 -29.5t-14 -48.5t-54 -68q-44 -38 -85 -38q-5 0 -5 3t4 4q44 4 80 41.5t42 81.5z" />
    <glyph glyph-name="numbersign" unicode="#" horiz-adv-x="712" 
d="M549 458l57 -1q69 0 89 4.5t20 -5.5q0 -20 -68 -24q-30 -1 -81.5 -2.5t-79.5 -2.5q-60 -87 -104 -154q154 0 217 12q14 3 14.5 -8t-22.5 -17q-60 -15 -230 -20q-65 -102 -91 -161q-4 -9 -8 -9t-6 1q-10 7 1.5 39t68.5 129h-68.5t-116.5 1q-67 -107 -91 -161q-4 -9 -8 -9
t-6 1q-10 7 2 40.5t69 129.5q-70 2 -74 7q-1 1 -11.5 12t-10.5 17t9 6l110 -5q40 65 91 143q-183 2 -189 10q-1 1 -11.5 11t-10.5 16.5t9 6.5l225 -8q127 188 139 188l28 4q11 0 11 -4.5t-5 -10.5q-68 -90 -131 -178q46 -1 90 -1t88 1q125 189 139 189l28 4q11 0 11 -4.5
t-5 -10.5q-52 -67 -130 -177q17 1 42 1zM443 425q-120 -4 -181 -4q-20 -28 -98 -144q116 -4 182 -4q43 70 97 152z" />
    <glyph glyph-name="dollar" unicode="$" horiz-adv-x="530" 
d="M452 320q-19 15 -19 32t6 31q25 65 99 115q-5 9 -21.5 9t-50.5 -16q-55 -79 -121 -186l20 -9q58 -29 58 -76.5t-49 -70.5q-30 -16 -80.5 -19t-52.5 -3q-46 -84 -57.5 -113t-16 -29t-4.5 11q0 30 56 131q-48 0 -92.5 20t-54.5 60q39 -36 134 -36q19 0 38 2l76 129
q-30 12 -52 34.5t-22 44.5q0 34 24.5 63.5t61.5 46.5q54 26 138 45q52 77 60 77l7 1l5 -1q5 0 5 -5q0 -7 -9.5 -19t-35.5 -48q5 1 15 1q60 0 60 -39q0 -3 -0.5 -10t-21 -29.5t-44 -44t-42.5 -49.5t-17 -50zM432 480q-64 -28 -104 -67t-42 -56.5t8.5 -26t32.5 -17.5
q30 50 105 167zM382 253.5q0 17.5 -23 31.5q-5 4 -21 9q-23 -37 -70 -118q53 7 98 46q16 14 16 31.5z" />
    <glyph glyph-name="percent" unicode="%" horiz-adv-x="653" 
d="M592 268q36 -19 36 -63q0 -49 -47.5 -100t-125.5 -78q-37 -13 -68.5 -13t-46.5 25q-8 14 -8 30t4.5 38.5t35 62.5t62.5 66q50 42 108 42q25 0 50 -10zM327 538q9 -4 28.5 -4t71.5 16t71 16t19 -8t-10 -22q-109 -145 -241 -356.5t-178 -319.5q-5 -11 -9.5 -11t-4.5 11
q0 50 145.5 298.5t218.5 345.5q-16 -8 -39.5 -8t-57.5 20q5 -13 5 -27q0 -46 -51 -103q-46 -50 -123 -76q-37 -13 -69 -13t-47 27q-7 13 -7 29t4.5 38.5t35.5 63t63 65.5q49 41 106 41l51 -10q12 -7 18 -13zM222 514q-43 0 -91.5 -44.5t-60.5 -98.5q-2 -11 -2 -19
q0 -24 18 -33q8 -4 23.5 -4t52 15t68.5 50q49 52 49 93q0 24 -18.5 32.5t-38.5 8.5zM351 68q0 -37 38 -37q19 0 56 15.5t75 56.5q42 47 42 86q0 24 -18 33t-38 9q-44 0 -93 -45.5t-60 -99.5q-2 -10 -2 -18z" />
    <glyph glyph-name="ampersand" unicode="&#x26;" horiz-adv-x="639" 
d="M291 9q-92 -22 -149 -12q-103 18 -131 72q-10 19 -10 33.5t2 23.5q6 31 38.5 66t90.5 67l52 29q18 166 209 284q75 47 126 47q17 0 31 -5q33 -12 33 -43q0 -54 -73 -112q-40 -33 -87 -61l-174 -104v-29.5t9 -59.5q76 43 166 58q44 8 77 8q82 0 93 -52q1 -7 1 -13
q0 -34 -37 -71q-65 -65 -218 -112q61 -83 134 -113q49 -21 76 -21t37.5 11.5t10.5 24t-14 29.5q-30 39 -88 39q-6 0 -18.5 -1.5t-12.5 1.5q-3 8 14 11q27 4 50 4q64 0 91 -35q14 -16 14 -32.5t-12 -33.5q-23 -34 -74 -34q-40 0 -84 19q-103 44 -173 117zM571 200
q0 28 -58 28q-98 0 -246 -60q21 -71 63 -132q122 38 199 105q42 36 42 59zM93 24q32 -13 70 -13q62 0 115 11q-51 59 -73 117q-34 -20 -41 -27.5t-8 -7t0 6.5q3 22 38 51l2 1q-14 47 -14 90l-29 -18q-55 -38 -83.5 -79t-28.5 -77t52 -55zM495 525.5q0 32.5 -34 32.5
q-39 0 -93 -37q-103 -70 -115 -196q18 11 61 35q90 53 135.5 93t45.5 72.5z" />
    <glyph glyph-name="quotesingle" unicode="'" horiz-adv-x="149" 
d="M153.5 410q8.5 -14 8.5 -29.5t-14 -48.5t-54 -68q-45 -38 -86 -38q-4 0 -4 3t4 4q43 4 79 41.5t42 81.5q-23 -29 -56 -29q-12 0 -19.5 7t-7.5 15q0 27 23 50q25 25 50.5 25t34 -14z" />
    <glyph glyph-name="parenleft" unicode="(" horiz-adv-x="362" 
d="M380 648q13 7 22.5 7t9.5 -7.5t-13 -16.5q-54 -35 -105 -115q-100 -156 -120 -346q-3 -22 -3 -42q0 -59 21 -98q8 -15 39 -20q5 -1 9 -7.5t-2 -9.5q-49 -18 -115 -3q-35 8 -46 28q-13 23 -13 62t8 83t25 98t44.5 110.5t62.5 107.5q77 115 176 169z" />
    <glyph glyph-name="parenright" unicode=")" horiz-adv-x="399" 
d="M63 -44q-13 -8 -22.5 -8t-9.5 7.5t13 16.5q54 36 105 116q100 155 121 345q2 22 2 42q0 59 -21 98q-7 15 -39 20q-5 1 -9 8t2 9q21 9 54 9t64.5 -7t42.5 -27q13 -23 13 -61.5t-8 -83t-25 -98t-44.5 -110t-61.5 -107.5q-78 -115 -177 -169z" />
    <glyph glyph-name="asterisk" unicode="*" horiz-adv-x="534" 
d="M500 236q0 -8 -9 -8q-102 -10 -188 -31q65 -39 139 -109q9 -9 3.5 -15t-12.5 -1q-63 43 -166 92q-38 -108 -82 -179q-4 -8 -8 -8t-8.5 3t-0.5 11q27 70 52 181q-89 -20 -185 -24q-13 0 -13 10q0 7 9 8q65 12 179 51q-63 60 -120 138q-7 11 -0.5 15.5t12.5 -1.5
q48 -50 143 -121q58 101 123 174q4 5 9.5 5t7.5 -4t-1 -10q-69 -104 -92 -177q91 14 129 14q71 0 77 -8q2 -3 2 -6z" />
    <glyph glyph-name="plus" unicode="+" horiz-adv-x="438" 
d="M190 9q0 -10 -10.5 -10t-10.5 12q6 73 52 164q-44 -5 -126 -19q-8 -1 -8 13t4.5 27.5t11.5 13.5q70 7 141 7q42 69 93 120q6 6 15.5 6t22 -3.5t6.5 -8.5q-53 -55 -96 -114q95 -1 145 -15q7 -2 7 -8t-4.5 -11t-11.5 -5q-42 4 -82.5 4t-79.5 -4q-64 -98 -69 -169z" />
    <glyph glyph-name="comma" unicode="," horiz-adv-x="229" 
d="M139.5 76q8.5 -14 8.5 -29.5t-14 -48.5t-54 -68t-83 -38q-6 0 -7 4q2 2 4 3q44 4 80 41.5t42 81.5l-5 -4q-25 -25 -51 -25q-12 0 -19.5 7t-7.5 15.5t3 21.5t22 31q22 22 47.5 22t34 -14z" />
    <glyph glyph-name="hyphen" unicode="-" horiz-adv-x="438" 
d="M87 169.5q0 13.5 4.5 27t11.5 13.5q69 7 130.5 7t114.5 -8q12 -2 12 -10t-10 -8q-72 -2 -151 -16q-102 -19 -107 -19t-5 13.5z" />
    <glyph glyph-name="period" unicode="." horiz-adv-x="202" 
d="M78 -7q-12 0 -21.5 8t-9.5 17q0 30 17 48q24 25 50 25q11 0 20.5 -7.5t9.5 -27t-20.5 -41.5t-45.5 -22z" />
    <glyph glyph-name="slash" unicode="/" horiz-adv-x="595" 
d="M448 584l35 5q14 0 14 -7q-1 -5 -6 -12q-128 -166 -270 -376.5t-185 -311.5q-5 -11 -12 -11q-3 0 -8 3t-5 12q0 42 116 230.5t213 328t108 139.5z" />
    <glyph glyph-name="zero" unicode="0" horiz-adv-x="540" 
d="M460 404q63 -31 63 -105q0 -25 -13 -59q-20 -58 -74 -116q-67 -73 -179 -120q-76 -31 -121 -31q-108 0 -108 97q0 134 163 271q81 66 175 79q12 1 23 1q38 0 71 -17zM313 342q-61 0 -131.5 -57t-105.5 -146q-15 -40 -15 -72q0 -41 33 -57q14 -7 38.5 -7t69.5 19
q70 31 135 101q43 47 57.5 85.5t14.5 54.5q0 49 -31 64t-65 15z" />
    <glyph glyph-name="one" unicode="1" horiz-adv-x="310" 
d="M128.5 335q82.5 63 136.5 91t77 28t32 -6t9 -8.5t-1 -3.5l-5 -1h-4q-25 0 -55.5 -33.5t-61.5 -93.5t-56.5 -117.5t-52 -120t-36.5 -83.5q-49 7 -68 41q-5 9 -5 25.5t10 45.5q44 122 127 230q-57 -38 -148 -87q-15 -9 -15 1t17 19.5t99.5 72.5z" />
    <glyph glyph-name="two" unicode="2" horiz-adv-x="583" 
d="M441 78q46 -15 69 -40.5t23 -50.5t-7 -25q-6 0 -4 5.5t2 8.5q0 13 -22 26q-56 32 -202 32q-86 0 -129.5 -9t-72.5 -18t-47 -15t-41 -10q-36 -5 -36 21q0 22 20 42q43 41 139 59q35 7 54 16q170 73 225 104q88 51 88 107q0 32 -25.5 55t-55.5 27.5t-57 4.5
q-81 0 -142.5 -32t-61.5 -56q0 -17 32 -17q26 0 66 10q81 20 116 57q4 4 6 0q2 -5 2 -9q0 -23 -41 -49t-88 -37.5t-87.5 -11.5t-55.5 20q-6 8 -6 17q0 19 29.5 46.5t95.5 53.5q113 45 206 45q122 0 158 -64q12 -17 12 -37t-11 -44q-22 -47 -89 -89.5t-266 -109.5
q114 -2 204 -33z" />
    <glyph glyph-name="three" unicode="3" horiz-adv-x="601" 
d="M237 411q80 43 227 43q63 0 100 -27q25 -18 25 -48.5t-41 -66t-89 -51.5q45 -4 73 -26q35 -28 35 -78q0 -64 -64 -126q-78 -76 -248 -113q-54 -11 -96 -11t-74 5q-80 13 -89 72q-1 6 -1 12q0 68 129 121q65 26 182 26q63 0 76 -13q5 -5 2 -8t-10 -2.5t-23 0.5t-99 -18
t-141 -42.5t-73 -42.5t-15 -27q0 -27 48 -42q31 -10 73 -10q97 0 210 52q132 60 132 132q0 37 -40.5 70.5t-99.5 38.5q-30 2 -30 16q0 18 51 21t90.5 24.5t39.5 59.5q0 46 -50 65q-22 9 -55 9t-83.5 -12t-64.5 -41q-3 -6 -3 -11q0 -12 16 -19q34 -16 58 -19q7 -1 6 -7
q-4 -4 -38 -4t-71 16q-23 10 -23 27q0 29 48 55z" />
    <glyph glyph-name="four" unicode="4" horiz-adv-x="426" 
d="M277 162q-36 -91 -36 -127.5t30 -50.5q8 -8 -23 -8q-59 0 -78 45q-8 17 -8 48.5t26 88.5q-59 -6 -101 -17.5t-62 -11.5t-23 10q-2 2 -2 5q0 9 13.5 22.5t49.5 40t92 70.5t100 77q163 120 216 120q13 0 19.5 -5t6.5 -8q0 -4 -10 -4q-41 0 -93.5 -74.5t-98.5 -178.5
q70 -5 106.5 -24.5t36.5 -48.5q0 -7 -2 -14.5t-6.5 -6.5t-3 5t1.5 7q0 16 -37.5 28t-113.5 12zM303 357q-33 -22 -226 -170q50 13 133 18q11 21 45.5 78t47.5 74z" />
    <glyph glyph-name="five" unicode="5" horiz-adv-x="612" 
d="M223 271q58 11 98 11q105 0 152 -37q36 -31 36 -71q0 -23 -13 -49q-54 -111 -253 -154q-53 -11 -91.5 -11t-63.5 2q-76 9 -84 59q-1 5 -1 11q0 59 112 105q57 22 161 22q67 0 66 -16q-1 -4 -8 -3.5t-20 0.5t-86.5 -16t-128.5 -39q-76 -32 -76 -61q0 -6 4 -12
q19 -35 113 -35t163 36q123 63 123 124q0 32 -37 63q-23 19 -73 31t-110 12h-10l-20 -22q-11 -12 -26 -6q-14 8 1 23q88 76 146 139q-15 13 -19 28q-9 30 4 38q5 6 20.5 4t27.5 -7q36 -14 66 -21.5t72.5 -7.5t91.5 9q92 18 92 53q0 7 3 8q3 -3 4 -7q-1 -39 -36.5 -69
t-82.5 -42q-81 -21 -118 -21q-66 0 -107 23q-15 -16 -46.5 -47.5t-45.5 -46.5z" />
    <glyph glyph-name="six" unicode="6" horiz-adv-x="485" 
d="M100 136q-18 -52 -18 -81t19 -35q9 -4 19 -4q30 0 74.5 26.5t72.5 55.5q111 114 111 164q0 16 -16 16q-6 0 -16 -3q-52 -16 -135 -88q-32 -28 -46 -47q-15 -18 -20.5 -10.5t11.5 26.5q66 75 137 114.5t114 39.5q23 0 43.5 -13.5t20.5 -38.5q0 -76 -97 -168
q-65 -62 -158 -90q-47 -14 -82 -14q-57 0 -84 32t-27 76t24 104q49 120 168 213t253 116q6 1 15.5 1t9.5 -8q0 -6 -14 -9q-92 -21 -212.5 -136.5t-166.5 -238.5z" />
    <glyph glyph-name="seven" unicode="7" horiz-adv-x="362" 
d="M111 437l-4 -24q38 -9 62 -9t52 1.5t104 10t95.5 8.5t24.5 -11h-3q-41 0 -107 -75q-50 -54 -120 -146q-96 -126 -96 -178q0 -24 19 -34q3 -2 0 -4q-4 -4 -21 -4q-37 0 -51.5 21t-14.5 38q0 46 67 121q47 54 121 124.5t80 77.5q-21 -12 -99.5 -12t-120.5 42
q-6 -16 -23 -43q-37 -56 -46 -40q-1 1 -1 3t4 6q17 15 30.5 46.5t13.5 64t15 32.5q11 0 18 -13q1 -2 1 -3z" />
    <glyph glyph-name="eight" unicode="8" horiz-adv-x="456" 
d="M549 504q0 13 9 13t9 -15q-3 -37 -38 -83q2 -7 2 -17.5t-4 -20.5t-7 -13q-7 -5 -7 8q0 15 -2 21q-62 -70 -212 -172q49 -16 76 -42.5t27 -55.5q0 -43 -44.5 -77.5t-96 -49.5t-90.5 -15h-5q-67 0 -112 15q-51 18 -51 56q0 40 51 80q43 33 90 59l74 40q-89 31 -89 72
q0 46 49 87q94 78 231 78q70 0 108 -33q31 35 32 65zM107 45q0 -41 70 -41q90 0 151 47q42 33 42 68q0 55 -89 93l-79 -54q-95 -69 -95 -113zM496 417q-23 14 -56.5 14t-78.5 -16q-82 -29 -119 -76q-20 -25 -20 -47.5t24 -41.5q176 97 250 167z" />
    <glyph glyph-name="nine" unicode="9" horiz-adv-x="441" 
d="M176.5 -80.5q-14.5 -27.5 -21.5 -47.5t-7 -29.5t2.5 -21t17.5 -19.5q5 -2 0.5 -4.5t-5.5 -2.5q-61 8 -61 62q0 90 95 219q69 95 151 189q8 10 4 11q-104 -104 -161.5 -139t-91 -35t-54.5 16q-31 23 -31 66q0 81 80 166q60 64 149 90q40 12 78 12t71 -18q57 -35 57 -91
q0 -69 -73 -155q-15 -19 -33.5 -41.5t-42 -51t-45.5 -58t-43 -60t-35.5 -58zM93 159q0 -28 24 -28q14 0 35 9q56 24 143 111q41 41 48.5 50.5t16.5 20.5q12 16 23 38t11 33q0 23 -32 23q-37 0 -93.5 -34t-89.5 -73q-86 -101 -86 -150z" />
    <glyph glyph-name="colon" unicode=":" horiz-adv-x="255" 
d="M234 234q0 -29 -20 -51.5t-49 -22.5q-8 0 -18 8t-10 27t20.5 41t49.5 22q9 0 18 -7.5t9 -16.5zM77 -7q-11 0 -21 8t-10 17q0 30 17 48q24 25 50 25q11 0 20.5 -7.5t9.5 -27t-20 -41.5t-46 -22z" />
    <glyph glyph-name="semicolon" unicode=";" horiz-adv-x="255" 
d="M129 22q-29 -29 -56 -29q-12 0 -19.5 7.5t-7.5 15.5q0 28 23 49q25 25 50.5 25t34 -14t8.5 -29.5t-14 -48.5t-54.5 -68t-83.5 -38q-6 0 -6 4q2 2 4 3q43 4 79 41.5t42 81.5z" />
    <glyph glyph-name="less" unicode="&#x3c;" horiz-adv-x="296" 
d="M119 150q-33 29 -60.5 29t-27.5 2q0 5 39 27q66 40 124.5 86.5t72.5 77.5q5 12 18.5 12t13.5 -2.5t-1 -3.5q-31 -67 -182 -160q26 -11 51 -41t35 -69q2 -9 2 -18q0 -28 -21 -52t-24 -24q-6 0 2 13q7 15 7 30q0 50 -49 93z" />
    <glyph glyph-name="equal" unicode="=" horiz-adv-x="438" 
d="M350 206q-74 -2 -150.5 -16t-104.5 -18q-7 -1 -7.5 12t4 27t11.5 15q62 6 123.5 6t121.5 -7q12 -2 12 -10.5t-10 -8.5zM325 100.5q0 -8.5 -11 -8.5q-74 -2 -150 -16q-98 -18 -105.5 -18t-7.5 13t4.5 26.5t11.5 14.5q61 6 122.5 6t123.5 -7q12 -2 12 -10.5z" />
    <glyph glyph-name="greater" unicode="&#x3e;" horiz-adv-x="294" 
d="M199 241q33 -29 60 -29t27 -2q0 -5 -8.5 -10.5t-50.5 -31t-102 -72.5t-74 -77q-5 -11 -24 -12q-9 1 -8 6q33 66 183 159q-25 11 -50.5 41t-35.5 69q-2 10 -2 19q0 29 21 52.5t24 23.5q6 0 -2 -13q-7 -15 -7 -30q0 -50 49 -93z" />
    <glyph glyph-name="question" unicode="?" horiz-adv-x="559" 
d="M577 578q9 -26 9 -43q0 -50 -33 -87t-68.5 -62.5t-79.5 -51.5t-82 -47q-131 -73 -131 -108q0 -8 4.5 -12.5t3.5 -9.5t-5.5 -6.5t-9.5 1.5q-12 11 -12 25q0 41 98 108q75 54 183 136q72 67 72 110q0 22 -20 38q-31 24 -94 24q-86 0 -153 -27.5t-109.5 -52.5t-69.5 -49
q-50 -47 -22 -63q6 -3 17 -3q42 0 111.5 31.5t121.5 65.5t68 61q0 1 1.5 4t5 -1.5t3.5 -13.5t-13 -27q-66 -97 -149 -133q-75 -34 -130 -34q-46 0 -62 27q-6 10 -6 20.5t5.5 27.5t36 48t79 60t96.5 48q145 57 224 57q84 0 110 -61zM167 67q0 -29 -20 -51.5t-49 -22.5
q-8 0 -18 8t-10 27t20.5 41t49.5 22q9 0 18 -7.5t9 -16.5z" />
    <glyph glyph-name="at" unicode="@" horiz-adv-x="606" 
d="M385 315q-26 -43 -33.5 -61t-7.5 -34.5t13.5 -16.5t37.5 14q43 28 74.5 69.5t31.5 77.5q0 60 -67 96q-57 30 -132 30q-77 0 -138.5 -35.5t-95.5 -86t-34 -99.5t26 -92t74 -61.5t82 -18.5q180 0 292 134q74 90 74 173q0 50 -34 65q-8 3 -3.5 6.5t8.5 1.5q45 -20 45 -79
q0 -17 -3 -36q-17 -97 -101 -188q-124 -133 -282 -133q-53 0 -101 18t-75 56q-36 50 -36 118q0 89 62 165q38 47 93 77q85 46 185.5 46t157.5 -46q37 -30 37 -75q0 -27 -15.5 -65t-65 -85.5t-73.5 -59.5t-42 -12t-36 15t-18 44q0 9 5 30q-24 -42 -56 -65q-35 -24 -60 -24
q-44 0 -62 48q-5 12 -5 25q0 43 28 84q29 41 81 58q23 7 47 7t49.5 -12.5t37.5 -31.5q16 0 28 -8.5t12 -16.5t-5 -16zM232.5 218.5q23.5 20.5 33.5 34.5t16.5 22t11.5 14.5t12 16.5q21 32 21 49q0 10 -9.5 15.5t-23 5.5t-30.5 -9q-32 -16 -54 -51q-37 -61 -37 -89.5
t18 -28.5t41.5 20.5z" />
    <glyph glyph-name="A" unicode="A" horiz-adv-x="1030" 
d="M978 -89q2 -1 2 -4q-2 -7 -8 -3q-87 61 -87 179q0 49 19.5 104.5t69.5 133.5t97 135t90.5 106.5t45.5 53.5q12 18 16 -4q1 -7 1 -16t-5 -16q-62 -76 -120 -172q-97 -162 -139 -295q-16 -53 -16 -110t34 -92zM146 261q164 68 395 68q114 0 228 -36q27 28 80 83.5t84 87.5
q90 93 147 137q96 75 176 75q36 0 66 -11.5t36 -18t6 -7.5t-2 -3.5t-6 2.5q-19 18 -74 18q-93 0 -196 -81q-74 -60 -123 -109.5t-102.5 -105t-72.5 -74.5q100 -37 109 -97q1 -6 -0.5 -8t-4 0t-3.5 6q-8 19 -56 30q-43 10 -99 15q-203 -196 -359 -249q-85 -30 -161 -30
q-136 0 -188.5 40.5t-52.5 89.5q0 19 7 39q30 82 166 139zM647 236q-133 0 -280 -28q-226 -40 -294 -119q-21 -25 -21 -47q0 -26 28 -47q33 -25 114.5 -25t176.5 27q142 44 338 237q-31 2 -62 2z" />
    <glyph glyph-name="B" unicode="B" horiz-adv-x="643" 
d="M366 344q37 4 78 4t92.5 -11t79.5 -41q31 -32 31 -72.5t-22 -80.5t-67 -81q-132 -120 -336 -120q-55 0 -97.5 11.5t-55.5 20t-31.5 23.5t-8.5 15q5 0 30 -9t92.5 -9t144.5 15.5t132 46.5t87 70q39 47 39 95q0 26 -14 53t-56 41.5t-75 14.5t-75.5 -4t-108.5 -27t-88 -55
t-38 -59.5t-32 -58.5t-25 -47q-6 -14 -14.5 -14t-8.5 7q0 33 77.5 152.5t148.5 212t83 92.5q6 0 10 -5.5t3 -11.5q-125 -157 -150 -189q366 61 445 175q12 19 12 36t-16 32q-32 29 -119.5 29t-230 -40.5t-198.5 -88.5q-17 -13 -12 -21.5t2 -9.5t-8 3q-21 12 -27 30.5t-6 27
t5 13.5q43 62 199.5 110.5t239.5 48.5q166 0 209 -57q17 -22 17 -47q0 -39 -44 -81q-102 -95 -293 -139z" />
    <glyph glyph-name="C" unicode="C" horiz-adv-x="719" 
d="M346 325l25 -4q48 0 142.5 42.5t173.5 105.5t79 111q0 31 -30.5 43t-66.5 12q-117 0 -252 -67t-233 -158q-132 -123 -132 -234q0 -48 24 -84t64 -56q75 -37 168 -37q42 0 103 9q106 19 181.5 50t151.5 93q4 2 5 2q5 0 5 -4.5t-4 -10.5q-75 -81 -209 -132.5t-251 -51.5
q-150 0 -225 88q-41 49 -41 118q0 134 145 265q109 98 262 169t285 71q81 0 126 -39q26 -24 26 -59q0 -49 -49.5 -98.5t-119 -84.5t-139 -58.5t-97 -26t-42 -2.5t-29.5 1q-52 5 -52 22q0 5 6 5z" />
    <glyph glyph-name="D" unicode="D" horiz-adv-x="843" 
d="M863 472q-56 81 -213 104q-45 7 -88 7q-159 0 -312 -57q-116 -43 -176 -100q-39 -35 -39 -66q0 -19 10 -32t5 -16t-10 2q-25 29 -25 73q0 72 57 118q78 62 217.5 103.5t262.5 41.5t202 -34q156 -66 156 -227q0 -131 -115 -251q-136 -141 -391 -184q-77 -13 -140 -13
q-219 0 -265 90q-5 10 -5 12q0 8 16 -4q60 -42 196.5 -42t279 40.5t245.5 118.5q77 58 117 117q42 62 42 110.5t-27 88.5zM452 550h13q7 0 7 -3q0 -7 -8 -15q-85 -94 -182.5 -235.5t-124.5 -213.5q-3 -8 -7 -8q-9 0 -9 10q0 54 146 259.5t165 205.5z" />
    <glyph glyph-name="E" unicode="E" horiz-adv-x="834" 
d="M813 528q0 46 -83 46q-103 0 -280 -73.5t-277 -165.5q-61 -57 -94 -110.5t-33 -93.5t22 -71q38 -58 171 -69q15 -1 47 -1t89 11q148 27 290 103t209 173q13 19 13 10q0 -4 -2 -12q-27 -76 -183 -178q-229 -150 -442 -150q-124 0 -196 73q-48 47 -48 126q0 68 35 132
q85 160 295 283q124 73 223 97q63 12 120 12t99 -26q44 -29 44 -82q0 -34 -20 -75q-6 -12 -8 -6t3.5 18.5t5.5 28.5zM567 303q6 -7 6 -11.5t-1 -7.5q-6 -8 -21 2q-34 25 -109 25q-93 0 -184 -25q-39 -11 -54 -11q-23 0 -30 21q-1 1 -1 3q0 11 19 26t72 25q33 8 75 8t91 -6
q104 -13 137 -49z" />
    <glyph glyph-name="F" unicode="F" horiz-adv-x="665" 
d="M620 340q73 102 73 160q0 41 -39 64q-29 17 -77 17q-88 0 -184 -21q-181 -39 -292 -90q-82 -37 -82 -69q0 -17 22 -32q6 -5 -2 -5t-12 3q-30 20 -30 52t18.5 63.5t60.5 54.5q96 55 230 89q144 37 269 37q132 0 170 -49q25 -31 25 -61.5t-12 -60.5q-22 -61 -71 -120
l-37 -44q15 -8 27 -20q10 -12 5 -19.5t-18 1t-33 15.5q-138 -165 -156 -189.5t-29 -39t-14.5 -19.5t-12.5 -18t-12.5 -21t-8.5 -20q-8 -19 -8 -47.5t24 -28.5q7 0 16 2.5t9 -2.5t-11.5 -8.5t-25 -3.5t-27 12t-13.5 37t18 58t55 83.5t91.5 119t72.5 92.5q-25 3 -71.5 3
t-127.5 -17q-12 -2 -31.5 -7.5t-28.5 -7.5q-37 -8 -43 1q-14 8 -14 19t19 26.5t61 23.5t87 8q101 0 170 -21z" />
    <glyph glyph-name="G" unicode="G" horiz-adv-x="912" 
d="M804 519q0 47 -83 47q-103 0 -280.5 -74t-276.5 -166q-61 -57 -94 -110.5t-33 -93t22 -71.5q38 -58 171 -69q15 -1 47 -1t89 11q135 24 267 90.5t207 153.5q6 20 9.5 38.5t-14.5 16.5q-15 -2 -32 -16t-20 -4.5t10 19.5q34 24 62.5 24t41.5 -15.5t13 -38.5q0 -51 -58 -152
q-85 -145 -148.5 -212.5t-137.5 -105.5t-151.5 -38t-130 35t-63.5 110q-1 8 3.5 7.5t6.5 -6.5q10 -57 54.5 -93t101.5 -36q99 0 219 124q149 155 215 297q-73 -74 -197 -143q-197 -109 -373 -109q-123 0 -197 73q-47 47 -47 127q0 68 35 132q85 160 294 282q124 73 224 97
q63 13 120.5 13t98.5 -27q44 -29 44 -82q0 -34 -20 -75q-6 -12 -8 -5.5t3.5 19t5.5 27.5z" />
    <glyph glyph-name="H" unicode="H" horiz-adv-x="812" 
d="M1046 656q10 0 10 -5q0 -7 -11 -22q-106 -139 -228.5 -338t-169.5 -310q-8 -17 -13 -8q-1 3 -1 11q0 41 108.5 224t197 315t99.5 132zM646 563q9 0 9 -5q0 -7 -11 -22q-81 -108 -173 -249q47 -3 93 -12q150 -31 150 -96q0 -4 -2 -4t-4 5q-10 25 -110 34q-30 3 -73 3
t-103 -6q-148 -235 -197 -351q-5 -11 -9.5 -11t-4.5 10q0 50 183 350q-58 -8 -85 -13q-176 -31 -232 -96q-17 -21 -17 -39t20 -34q6 -4 -2 -4l-9 3q-43 33 -43 77q0 43 41 84q60 60 205 86q87 15 163 15h9q176 274 193 274z" />
    <glyph glyph-name="I" unicode="I" horiz-adv-x="595" 
d="M752 521q0 31 -48 43t-117.5 12t-181.5 -20q-191 -35 -268 -92q-33 -24 -33 -47t32 -45q7 -4 -0.5 -4.5t-12.5 3.5q-25 17 -36 48q-5 14 -5 31q0 61 61 95q77 45 192 71.5t217 26.5q68 0 136 -25q36 -14 54 -39t18 -53q0 -23 -5.5 -22.5t-4 6.5t1.5 11zM646 563q9 0 9 -5
q0 -7 -11 -22q-148 -195 -303 -457q65 -7 114.5 -23.5t79.5 -49t30 -73.5q0 -27 -8 -26q-5 0 -3.5 7t1.5 10q0 23 -35 42q-63 34 -184 34q-20 0 -41 -1q-51 -91 -70 -139q-5 -11 -9.5 -11t-4.5 11q0 26 59 138q-68 -6 -138 -34q-29 -11 -47 -18.5t-41 -12t-29 4.5
q-8 6 -8 17.5t4.5 25t18.5 29.5q30 37 120 60q49 13 95 13t72 -2q91 154 199.5 317.5t120.5 163.5z" />
    <glyph glyph-name="J" unicode="J" horiz-adv-x="675" 
d="M700 357q-54 -111 -149 -233.5t-218 -234.5q-230 -210 -389 -210q-80 0 -110 65q-8 20 -8 42q0 71 49 148q94 145 275 249q17 131 119.5 263t228.5 196q57 29 111 29t94 -29q51 -38 51 -106t-54 -179zM225 51q-37 0 -58 25q-235 -160 -268 -272q-4 -16 -4 -30
q0 -37 45 -52q17 -5 33 -5q51 0 100 21q128 53 279 205.5t244.5 313t93.5 253.5q0 77 -49 102q-19 10 -50 10t-77 -14q-134 -46 -220 -155t-104 -249q102 50 191 50q84 0 95 -46q3 -11 2 -13t-6 0q-8 4 -27 4q-87 0 -252 -106q12 -29 35 -31q7 -1 7 -6t-10 -5z" />
    <glyph glyph-name="K" unicode="K" horiz-adv-x="667" 
d="M861 663q11 0 11 -7q0 -12 -16 -18q-240 -83 -614 -369q97 32 172.5 32t133.5 -26q103 -44 103 -139q0 -73 -77 -143q-47 -43 -118 -77q-22 -11 -27 -11t-4 2q2 9 41.5 44t63 81t23.5 86.5t-20 77.5q-38 70 -157 78h-15q-51 0 -103.5 -16.5t-63.5 -16.5t-11 4t11 14
q99 91 332.5 242.5t329.5 161.5h5zM369 606q33 0 33 -18q0 -9 -11 -23q-99 -130 -232 -339t-175 -307q-5 -12 -9 -12t-4 10q0 52 160 345t212 335q11 9 26 9z" />
    <glyph glyph-name="L" unicode="L" horiz-adv-x="736" 
d="M966 569q0 -89 -136 -169q-52 -31 -119 -55q-157 -57 -294 -57q-53 0 -82 5q-6 -8 -23 -34.5t-23.5 -36t-20 -30t-21.5 -30.5q-24 -30 -46 -52q-35 -34 -93 -34q-12 0 -27 4.5t-17.5 9t-1.5 5.5t4.5 -1t15 -2.5t28.5 2.5q41 5 88 50q27 27 115 152q-84 17 -99 64
q-2 7 1 7.5t5 -4.5q12 -18 74 -18q23 0 52 2h3q61 85 124.5 150.5t132.5 104.5q113 63 222 63q52 0 82 -16q56 -29 56 -80zM732 -48q0 -27 -9 -27q-8 0 -5.5 7t2.5 11q0 26 -54 45q-86 31 -231 31q-154 0 -269 -35q-38 -12 -62 -20q-42 -13 -64 -13q-37 0 -37 26q0 49 87 85
q95 38 251 38q239 0 339 -64q52 -34 52 -84zM883 564q11 19 11 39q0 45 -104 45q-18 0 -68.5 -13t-99.5 -38q-119 -63 -248 -247q129 16 282 72q182 66 227 142z" />
    <glyph glyph-name="M" unicode="M" horiz-adv-x="1324" 
d="M355 -20q-4 0 -4 8q0 14 56 84q8 10 65 79t79 97q82 106 109.5 161t27.5 91q0 82 -136 82q-144 0 -374 -78q-161 -55 -161 -102q0 -17 23 -33q7 -4 -0.5 -4.5t-12.5 2.5q-30 20 -30 52t18.5 63.5t60.5 54.5q96 55 230 89q144 37 269 37q132 0 170 -49q25 -31 25 -61.5
t-12 -60.5q-22 -61 -71 -120q-10 -13 -67.5 -80.5t-89.5 -107.5q361 380 508 380q42 0 60 -36q10 -20 10 -35t-2 -34q-3 -50 -84 -187q122 127 218 198q116 86 198 86q47 0 47 -39.5t-50 -113.5q-295 -433 -295 -576q0 -45 26 -49q16 -3 34 10q7 5 12 -1.5t-4 -15t-21 -8.5
t-28 2t-42 12.5t-43.5 35t-17.5 54.5q0 43 11 77q27 79 253 394q68 95 68 136q0 31 -32 31q-43 0 -101 -44q-124 -94 -277 -262q-42 -68 -104 -159q-9 -13 -21 -13q-40 0 -40 18q0 4 2 8q166 288 186 369q6 28 6 43.5t-1 24.5q-7 29 -36 29t-79 -33q-86 -55 -213 -177
t-244 -253q-3 -3 -7 -3q-58 -73 -72 -73z" />
    <glyph glyph-name="N" unicode="N" horiz-adv-x="585" 
d="M-63 -140q-5 -11 -9 -11t-4 10q0 58 176 338.5t236 351.5q26 82 59 107q7 5 21.5 5t47 -13t32.5 -31q0 -8 -8 -14q-45 -38 -70 -143t-25 -214q0 -130 30 -203q41 106 187.5 352.5t163.5 246.5q1 0 9 1q31 4 31 -5q0 -4 -7 -16q-102 -133 -212 -310t-162 -291
q20 -33 47 -46q12 -6 23 -6t17 3.5t8 2t2 -4.5t-2 -5q-23 -17 -42 -17q-60 0 -102 57.5t-63 143.5t-21 163q0 86 19 172q-107 -145 -223 -334.5t-159 -289.5z" />
    <glyph glyph-name="O" unicode="O" horiz-adv-x="701" 
d="M767.5 337.5q-40.5 -85.5 -110.5 -174.5q-88 -111 -206 -175q-62 -33 -128 -33q-89 0 -142 63q-45 53 -45 125q0 100 73 218q54 86 132.5 153.5t141.5 88.5q41 12 78 12t64 -25q30 -27 30 -80q0 -31 -11 -64q-3 -12 -7 -4q-2 4 1 15.5t3 24.5q0 44 -52 44
q-75 0 -186.5 -72t-167.5 -149q-77 -106 -77 -191q0 -93 104 -110q15 -3 31 -3q55 0 133 28q140 50 228 158q115 143 115 320q0 66 -14.5 97.5t-27.5 38t-23 3.5t-9 2q1 10 25 10t48 -20q40 -32 40 -123.5t-40.5 -177z" />
    <glyph glyph-name="P" unicode="P" horiz-adv-x="539" 
d="M-16 -24q0 37 108 204q-40 10 -66 30q-30 24 -30 50t13.5 38.5t13.5 4.5q0 -4 -6 -12t-6 -17q0 -32 26 -52.5t65 -26.5q78 116 157 218.5t92 102.5q6 0 10.5 -7t4.5 -14q-126 -156 -229 -305q10 -1 21 -1q89 0 211.5 40.5t185 83t92.5 86t30 80.5t-23.5 66t-65 39.5
t-72.5 10.5q-108 0 -245.5 -44t-186.5 -85q-17 -13 -12 -21.5t2 -9.5t-8 3q-21 12 -27 30.5t-6 27t5 13.5q37 53 172.5 98t269.5 58q23 2 57.5 2t81 -13t73.5 -44q34 -38 34 -93q0 -75 -66 -150q-38 -43 -92 -75q-84 -48 -201.5 -84t-200.5 -36q-21 0 -41 2
q-89 -128 -113 -191q-6 -16 -17 -16t-11 9z" />
    <glyph glyph-name="Q" unicode="Q" horiz-adv-x="636" 
d="M647 -214q0 27 -57 46q-84 28 -218 28q-122 0 -212 -19q-33 -7 -91 -25q-79 -24 -100 -24q-35 0 -35 22q0 44 74 79q34 16 81 28q-62 22 -62 113v11q9 165 137.5 337.5t290.5 254.5q66 33 129 33q61 0 112 -36q57 -41 57 -136q0 -102 -97 -234q-65 -89 -160.5 -167
t-152.5 -95.5t-97 -17.5t-65.5 25.5t-25.5 69.5q0 40 21 88q4 9 7.5 6t-2.5 -19t-6 -33q0 -38 50 -38q81 0 213 78.5t197 157.5q100 120 100 206q0 79 -95 95q-13 3 -29 3q-55 0 -136 -28q-178 -59 -285 -209.5t-116 -337.5v-19q0 -47 14 -72.5t37 -27.5l8 1q69 13 138.5 13
t135.5 -7q170 -16 229 -74q25 -26 25 -59q0 -12 -3 -24t-9 -12q-6 1 -4 7.5t2 11.5z" />
    <glyph glyph-name="R" unicode="R" horiz-adv-x="587" 
d="M-15 -37q0 48 144 258q-5 18 -5 33t25 35t38 20h3q59 81 105 137t54 56t12.5 -6.5t4.5 -13.5q-80 -99 -164 -214l2 -7l36 3q76 5 165 34.5t146 67.5q118 80 118 147q0 29 -39 49t-122 20t-225.5 -40.5t-198.5 -88.5q-16 -14 -11.5 -22t1.5 -9t-9 3q-21 12 -26.5 30
t-5.5 27t5 13q33 48 147.5 90.5t211.5 56t143.5 13.5t77 -6t54.5 -27q37 -31 37 -87q0 -55 -41 -102t-105.5 -84.5t-156.5 -67.5q-107 -35 -197 -35q32 -80 128.5 -161.5t159.5 -81.5q25 0 44 12t22 30q0 5 5 3q2 -3 2 -5q-8 -67 -114 -67q-61 0 -127 32t-112.5 80t-73.5 99
q-106 -154 -131 -217q-6 -16 -16.5 -16t-10.5 9z" />
    <glyph glyph-name="S" unicode="S" horiz-adv-x="590" 
d="M766 576q-8 13 -28 13t-37.5 -5t-41.5 -14q-39 -16 -63 -30q-90 -48 -168 -112.5t-82 -96.5q-2 -25 27 -41q25 -15 58 -28.5t48 -20.5q80 -40 80 -106q0 -29 -17 -56q-27 -42 -81.5 -69.5t-116.5 -38.5q-64 -11 -106 -11q-76 0 -152 32.5t-94 101.5q37 -33 102 -47
t124 -14q88 1 130.5 14t74 30.5t58 41t26.5 52t-38 51.5q-3 2 -60.5 25t-88 51t-30.5 64q0 68 84 138.5t183.5 109.5t169.5 39q49 0 76 -17.5t27 -48.5v-9q-3 -31 -109 -129q-39 -36 -68.5 -80.5t-29.5 -78.5v-6q-31 24 -31 64q0 36 31 88q45 76 143 144z" />
    <glyph glyph-name="T" unicode="T" horiz-adv-x="433" 
d="M860 507q0 47 -110 65q-64 10 -146.5 10t-181.5 -10q-246 -25 -360 -72q-91 -36 -48 -79q5 -5 -2 -5t-12 5q-17 17 -17 39.5t9.5 43t34.5 42.5t60 36q107 42 249 60q83 10 146 10q181 0 300 -46q78 -31 98 -66q11 -18 11 -36t-11 -37q-13 -18 -28 -21t-14 5q2 9 12 25
t10 31zM272 51q-7 -45 -7 -62q0 -56 35 -65q5 -2 11 -2l27 11q8 7 8 2t-6 -9q-16 -14 -42 -14h-10q-89 7 -89 102q0 52 23 118t68 134.5t196 280.5q12 16 18.5 16t9.5 -3t3 -6t-1 -5q-213 -317 -244 -498z" />
    <glyph glyph-name="U" unicode="U" horiz-adv-x="674" 
d="M821 573q21 0 21 -9q0 -3 -3 -6q-92 -89 -235 -366q-88 -169 -88 -243q0 -47 36 -56q4 -1 12.5 -1t16 7t9 3.5t-4.5 -7.5q-23 -20 -47 -20q-86 0 -86 76q0 67 68 195q-102 -133 -188 -175q-29 -14 -55.5 -14t-48.5 21q-34 29 -34 75q0 59 47.5 162t90.5 189
q55 111 55 160q0 62 -73 62q-85 0 -211 -68q-38 -20 -53 -32t-22 -12q-11 0 -17.5 15t-6.5 30t7.5 26.5t13.5 16.5q47 38 166 58q60 11 122 11t108.5 -26t46.5 -77q0 -12 -3 -26q-10 -49 -105 -222.5t-114 -231.5q-11 -32 -11 -55.5t10.5 -38.5t32.5 -15q69 0 180 123
q66 75 112 143.5t107 164.5t84.5 129.5t59.5 33.5z" />
    <glyph glyph-name="V" unicode="V" horiz-adv-x="484" 
d="M321 63q389 590 597 590q32 0 44 -17q2 -3 2 -5.5t-4.5 -3.5t-9.5 0t-8 1q-58 0 -144 -61t-171.5 -155t-168.5 -201q-161 -206 -215 -306q-4 -7 -7.5 -7t-8 2.5t-0.5 10.5q46 77 50 83q-61 -28 -84 -28q-3 0 -4 2q94 347 94 506q0 43 -10 82.5t-30 55.5t-41 16
q-34 0 -69 -40.5t-68.5 -116t-33.5 -159.5q0 -13 1 -26t-5 -13q-2 1 -4 6q-13 25 -13 58q0 114 31 173t77 95q65 52 121 52q32 0 62 -19q76 -49 76 -227q0 -142 -56 -348z" />
    <glyph glyph-name="W" unicode="W" horiz-adv-x="814" 
d="M698 554q58 0 58 -107t-70 -305q245 386 407 484q64 38 119 38q29 0 41 -17q1 -2 1 -3q0 -5 -9 -5h-13q-46 0 -111 -43t-128 -108.5t-137 -159.5q-115 -147 -220 -306q-6 -12 -59 -29.5t-57.5 -17.5t-4.5 1t17 39t30.5 71.5t32.5 83.5q43 112 60 183t17 96q0 43 -28 43
q-57 0 -184 -143q-80 -89 -148 -193q-44 -105 -92 -184q-7 -11 -62.5 -29t-61 -18t-4.5 2q119 235 155 330.5t52 150t16 98t-19.5 68.5t-43.5 25t-52 -17q-58 -33 -114.5 -130t-62.5 -193q-1 -12 -4 -13q-4 -1 -6 5q-5 15 -5 41.5t14 88t44 106t72 76.5q77 60 162 60
q46 0 73 -32q29 -34 29 -98q0 -92 -44 -225q44 65 102.5 126t125.5 110.5t112 49.5z" />
    <glyph glyph-name="X" unicode="X" horiz-adv-x="500" 
d="M131 237q-37 99 -37 190.5t21 123.5q11 21 58 33q17 5 28.5 5t11.5 -9q0 -5 -4 -12q-26 -40 -26 -117.5t14 -144.5q357 358 591 358q11 0 11 -4t-3 -4h-5q-120 0 -358 -191q-110 -87 -227 -199q25 -96 65 -173t79 -98q21 -12 35 -12q44 0 61 20q2 2 4.5 2t3.5 -2.5
t-1 -5.5q-22 -28 -80 -28t-121 67t-108 169q-187 -184 -267 -294q-9 -13 -14.5 -13t-5.5 5t8 16q118 159 266 318z" />
    <glyph glyph-name="Y" unicode="Y" horiz-adv-x="912" 
d="M543 412q-15 -27 -75 -128t-91 -164.5t-31 -94.5t25 -31q28 0 86 49.5t107 106.5t70 88q162 235 200 362q7 23 15 25q9 8 14 -6q20 -55 20 -136t-27 -193q-87 -365 -322 -532q-98 -71 -200.5 -71t-172.5 64.5t-86 201.5q-1 10 2 13.5t7 0t5 -11.5q14 -104 72.5 -170
t134.5 -66q85 0 171 83q54 52 89 101q43 59 88 127q203 309 203 524v20q-24 -81 -81 -183q-81 -143 -181 -251q-156 -168 -231 -168q-38 0 -38 40q0 27 19 76.5t41 91.5q42 81 93.5 167.5t62 122t10.5 55.5q0 73 -107 73t-287 -60q-124 -43 -124 -79q0 -13 18 -26
q5 -3 -1 -3.5t-10 2.5q-22 15 -22 40q0 56 61 92q73 42 177 68q112 29 203 29q142 0 150 -76v-20.5t-5 -34t-21 -56.5t-31 -62z" />
    <glyph glyph-name="Z" unicode="Z" horiz-adv-x="743" 
d="M721 -23q0 57 -197 57q-152 0 -405 -37q-48 -8 -65 -11t-21 -3q-20 0 -35 23q-7 10 -7 22t16 24q36 24 65 37l3 2q144 144 333 283t327 183q-38 34 -162 34q-193 0 -312 -54q-67 -30 -67 -65q0 -18 17 -37q4 -4 -1.5 -4t-10.5 4q-21 20 -21 44.5t18 53.5q69 108 292 123
q29 1 76 1t97 -9q112 -22 112 -86v-7q4 -4 4 -8t-6 -8q-1 -10 -5.5 -22t-7 -13.5t-3 1t2.5 10t2 17.5l-3 -2q-172 -78 -340 -196t-296 -231q61 19 189 19q281 0 382 -69q41 -28 41 -65q0 -15 -5.5 -28.5t-10.5 -13.5q-7 0 -1.5 10.5t5.5 20.5z" />
    <glyph glyph-name="bracketleft" unicode="[" horiz-adv-x="399" 
d="M238 -79l-124 -3q-36 0 -71 8.5t-42 26.5q-1 1 -1 4q0 19 42.5 106t119.5 211q97 157 186 252q15 16 44.5 37.5t49.5 24t55 2.5t106 -6q9 -1 9 -8q0 -12 -13 -13q-91 0 -147 -7q-38 -3 -83 -61q-93 -122 -173 -283t-80 -224q0 -13 3 -23q9 -10 39.5 -16t83.5 -7
q7 -1 8.5 -6t-2 -10t-10.5 -5z" />
    <glyph glyph-name="backslash" unicode="\" horiz-adv-x="545" 
d="M32 589l36 -5q11 0 108 -139.5t200 -306.5q129 -209 129 -250q0 -11 -5.5 -14t-7.5 -3q-7 0 -12 11q-43 101 -185 311.5t-270 376.5q-6 8 -6 13.5t13 5.5z" />
    <glyph glyph-name="bracketright" unicode="]" horiz-adv-x="399" 
d="M323 588l104 4q121 0 133 -35q1 -1 1 -4q0 -19 -42.5 -106.5t-119 -211.5t-153.5 -215.5t-131 -98.5q-17 -2 -52 -2t-104 6q-9 1 -9 8q0 12 13 13q78 0 147 7q38 5 83 62q92 120 172.5 282.5t80.5 226.5q0 12 -3 21q-9 10 -40 15.5t-84 6.5q-10 2 -8 11.5t12 9.5z" />
    <glyph glyph-name="asciicircum" unicode="^" horiz-adv-x="333" 
d="M301 341q3 0 11.5 1.5t8.5 -5t-21.5 -12t-47.5 -5.5t-49 16q-37 25 -38 63q-39 -32 -81 -50t-70 -18q-12 0 -12 3.5t4 10.5t8.5 6.5t5.5 -0.5q26 0 70 24t85 57q10 17 37.5 39.5t29.5 22.5q4 0 -4 -15.5t-8 -32.5q0 -52 29 -84q20 -21 42 -21z" />
    <glyph glyph-name="underscore" unicode="_" horiz-adv-x="556" 
d="M556 -125h-556v50h556v-50z" />
    <glyph glyph-name="grave" unicode="`" horiz-adv-x="306" 
d="M239 343.5q0 -4.5 -9 -4.5q-54 0 -108 24.5t-70.5 42t-16.5 24.5t4 13t25.5 11.5t25.5 5.5t2 -4t-2 -9q0 -20 45.5 -55t90.5 -42q13 -2 13 -6.5z" />
    <glyph glyph-name="a" unicode="a" horiz-adv-x="482" 
d="M344.5 126q-11.5 -15 -29 -41t-17.5 -44t15.5 -18t50.5 19q70 40 155 120q10 10 13 3v-4t-4 -7q-172 -162 -250 -162q-23 0 -38.5 15.5t-15.5 36.5t18 64q-45 -56 -96.5 -86.5t-80.5 -30.5t-49.5 17.5t-20.5 43.5q0 74 66 145q50 53 124 75q33 11 64.5 11t61 -17.5
t37.5 -41.5q30 0 43 -22q2 -3 2 -10t-7.5 -16t-18.5 -22t-22.5 -28zM294 253q-21 0 -50 -13q-51 -22 -97 -76q-73 -86 -73 -126q0 -21 17 -21q14 0 46.5 18t85.5 71q3 3 23 22t34 33q47 49 47 70.5t-33 21.5z" />
    <glyph glyph-name="b" unicode="b" horiz-adv-x="400" 
d="M392 232q0 -70 -70 -152q-52 -61 -114 -90q-33 -15 -57.5 -15t-44.5 13.5t-20 41.5t8 55q-35 -53 -55 -75t-38 -22h-5q-26 0 -50 21q65 91 101 148q-23 -23 -57 -51q-9 -7 -12.5 -2.5t7.5 14.5q30 25 42 36q39 38 94 124q153 237 153 294q0 20 -20 21q-2 0 -2 2t2 2
q46 -2 53 -61v-9q0 -78 -130 -306q50 50 101 70q25 10 46.5 10t40.5 -10q27 -22 27 -59zM254 239q-16 0 -40 -13q-43 -23 -76 -74q-39 -59 -39 -113q0 -36 20 -47q11 -7 27.5 -7t41.5 13q42 21 76 73q38 59 38 113.5t-48 54.5z" />
    <glyph glyph-name="c" unicode="c" horiz-adv-x="342" 
d="M290 237q0 19 -20 19q-17 0 -52.5 -15.5t-79.5 -66.5q-53 -63 -53 -112q0 -37 28 -50q9 -4 21 -4q41 0 96.5 35t143.5 116q14 14 14 0q0 -6 -6 -11q-122 -112 -179.5 -138.5t-90.5 -26.5q-116 0 -116 85t76.5 146.5t159.5 61.5q52 0 70 -24q11 -12 11 -25.5t-7 -28
t-22.5 -14.5t-4.5 19.5t11 33.5z" />
    <glyph glyph-name="d" unicode="d" horiz-adv-x="394" 
d="M290 46q-19 -52 -19 -85t14 -50q3 -4 1 -5.5t-3 -1.5t-3 1q-32 26 -32 77.5t21 118.5q-41 -53 -81 -87q-48 -40 -98 -40q-32 0 -60 21.5t-28 70.5q-1 24 9 55q-20 -18 -25.5 -22t-7.5 0t-2 7.5t6.5 9t69.5 73.5q37 41 88 64t97 23q42 0 61.5 -14.5t19.5 -36.5
q36 76 77.5 144.5t64.5 94.5q25 28 63 28t62 -21q-21 -13 -82 -86t-119 -156.5t-94 -182.5zM298 235q0 20 -25 20q-13 0 -34 -8q-47 -18 -93 -70q-57 -65 -57 -124q0 -35 23 -42q5 -2 10 -2q41 0 122 82q22 21 37 45q8 23 21 53q-9 -6 -14.5 -1.5t2.5 20t8 27.5z" />
    <glyph glyph-name="e" unicode="e" horiz-adv-x="342" 
d="M233 156q53 29 53 59t-36 30q-17 0 -36 -9q-42 -19 -81 -66q-48 -58 -48 -108q0 -19 10.5 -35.5t37.5 -16.5q47 0 119 49.5t124 99.5q12 12 12 1q0 -7 -6 -12q-37 -34 -49.5 -45.5t-49.5 -41t-60 -41.5q-71 -37 -120.5 -37t-78 22.5t-28.5 62.5q0 85 76 146.5t159 61.5
q56 0 75 -24q8 -12 8 -25.5t-9 -29.5q-18 -31 -67.5 -54.5t-93.5 -23.5q-17 0 -18.5 3t2.5 4.5t11 1.5q40 0 94 28z" />
    <glyph glyph-name="f" unicode="f" horiz-adv-x="251" 
d="M469 410q0 -4 -3.5 -4t-4.5 5q-6 23 -23 35.5t-29.5 13t-22.5 0.5q-36 0 -67 -20q-59 -38 -137 -144q55 -5 74 -20q37 -28 30 -41q-2 -5 -18 4.5t-49 9.5t-77 -12q-69 -101 -102 -207q-14 -46 -14 -76t13 -45q4 -4 1 -5t-4 -1t-2 1q-37 30 -37 95t61 206q-5 -2 -7.5 0
t-6 9t-5.5 17.5t0.5 21t14.5 21.5q14 12 47 19q74 137 143 184q46 31 95 31t84 -24q46 -32 46 -74z" />
    <glyph glyph-name="g" unicode="g" horiz-adv-x="411" 
d="M-93 -274q-87 0 -144.5 38t-57.5 108q0 4 3 4q7 0 9 -8q9 -51 49 -88q18 -17 49.5 -28t52.5 -11h27q111 6 194 112q39 50 69 99.5t65 110.5t59 93q-31 -35 -78 -80t-81 -65t-63 -20t-49.5 17.5t-20.5 43.5q0 74 66 145q50 53 124 75q33 11 64.5 11t61 -17.5t37.5 -41.5
q16 0 35 -13.5t19 -19.5t-8 -10q-32 -16 -101 -140q-67 -119 -157 -213q-45 -47 -104.5 -74.5t-119.5 -27.5zM62 40q0 -23 24 -23q19 0 47 21q68 45 142 131q34 39 34 61q0 8 -5.5 14.5t-23.5 6.5t-57.5 -21t-81 -63.5t-60.5 -76t-19 -50.5z" />
    <glyph glyph-name="h" unicode="h" horiz-adv-x="401" 
d="M275 244q0 13 -19 13q-34 0 -83 -48q-12 -12 -43.5 -50t-61.5 -87l-25 -55l3 10q-2 -4 -4 -12v0q-5 -12 -29 -20q-5 -2 -9 -2q-10 0 -2 15q4 10 28 71.5t39 98.5q-39 -43 -73 -70q-10 -8 -14 -2q-1 1 -1 4t9 11q61 53 96 98q26 61 95.5 169.5t142.5 179.5q49 49 106 66
q26 8 48.5 8t42 -12.5t19.5 -46.5q0 -45 -30 -91t-106 -102.5t-141 -84.5q-12 -5 -14 1.5t10 11.5q58 26 130.5 82t97 95.5t24.5 64t-21 24.5q-24 0 -76 -40q-77 -62 -161.5 -173t-145.5 -224q28 40 51 66q56 63 109 63q50 0 59 -44q1 -6 1 -17t-7.5 -32.5t-42 -79
t-34.5 -69.5t8 -12q11 0 33 14q56 35 146 118q12 12 11.5 4t-6.5 -15q-74 -76 -153 -127q-37 -24 -67 -24q-8 0 -15 2q-39 8 -39 43.5t28 79.5q5 7 37 47q49 60 49 80z" />
    <glyph glyph-name="i" unicode="i" horiz-adv-x="272" 
d="M193 331q2 17 18 36t43 19q8 0 17 -7.5t7 -25t-16 -33t-31.5 -20t-28.5 4.5t-9 26zM189 252q-41 -42 -68.5 -106.5t-27.5 -90.5t20.5 -26t68 30t108.5 85q13 12 13 -3q0 -2 -2 -4q-48 -42 -81 -69t-78.5 -51.5t-74.5 -24.5q-36 0 -53.5 16t-17.5 35q0 36 13 57t44 58
q-11 -9 -34.5 -30t-32.5 -28t-9 4q0 7 16 20t69.5 66t73 63t32 10t18.5 -3.5t3 -7.5z" />
    <glyph glyph-name="j" unicode="j" horiz-adv-x="158" 
d="M109 331q2 17 18 36t43 19q8 0 16 -7t8 -15t-1 -18t-15 -25.5t-31.5 -20t-28.5 4.5t-9 26zM117 210q0 -57 -59 -175t-112.5 -174.5t-133.5 -96.5t-156 -40t-128 35q-63 43 -63 111q0 5 4.5 4.5t5.5 -6.5q10 -56 53 -91t105.5 -35t153.5 70.5t162 169.5q74 99 114 189
q-17 -22 -53 -51q-2 -2 -5 0q-7 5 -2 12q70 56 78 104q0 16 -12 20q-5 3 -1 7q4 3 10 3q28 0 37 -35q2 -9 2 -21z" />
    <glyph glyph-name="k" unicode="k" horiz-adv-x="333" 
d="M53 91q-27 -66 -27 -111t13 -60q3 -4 1 -5.5t-3 -1.5t-3 1q-32 27 -36 59q-2 11 -2 24q0 58 34 143q-50 -50 -52 -38q1 9 14 20.5t59 67.5q100 222 262 371q84 78 152 78q56 0 65 -46q2 -7 2 -15q0 -85 -170 -200q-59 -40 -108 -61q-12 -5 -14 1.5t10 11.5q46 21 105 63
t106 91.5t47 76.5q0 17 -19 17t-55 -22q-100 -61 -219 -214q-74 -95 -122 -174q70 93 144 123q28 10 47 10t33 -6q27 -12 27 -40q0 -50 -59 -94q-34 -24 -77.5 -34.5t-65.5 -10.5t-37 6q32 -41 83.5 -71t83.5 -30q21 0 33 10t12 16.5t2.5 6.5t2.5 -2q0 -35 -53 -48
q-22 -5 -55.5 -5t-75.5 21q-64 30 -85 71zM274 225q0 35 -33 35q-38 0 -84.5 -42t-68.5 -69q2 -5 8 -15q12 -7 27.5 -7t50.5 9.5t67.5 34t32.5 54.5z" />
    <glyph glyph-name="l" unicode="l" horiz-adv-x="294" 
d="M75 41q0 -27 27 -27q16 0 50.5 13t89.5 57t74 63.5t23 19t3 -6t-5 -9.5q-85 -87 -141 -125t-104 -38q-41 0 -57 19t-16 44q0 45 32 108q-58 -62 -58 -40q0 4 6 9q47 38 101 110q99 129 155 227q10 19 10 28q0 21 -23 8q-26 -13 -28 -10t3 8q24 18 66 34t69 17
q42 0 42 -26q0 -15 -14.5 -40t-83 -99.5t-83.5 -93.5q-103 -135 -131 -215q-7 -21 -7 -35z" />
    <glyph glyph-name="m" unicode="m" horiz-adv-x="518" 
d="M466 223q0 -37 -63 -122q-38 -51 -38 -63t12.5 -12t35.5 15q57 39 114 94q8 8 11 4t3 -6t-22 -23t-48.5 -44t-66.5 -47.5t-66 -24.5q-54 0 -54 48q0 17 6 40q13 39 113 151q13 14 13 22t-20 8t-63 -35q-15 -12 -37 -35.5t-51.5 -75.5t-43.5 -92q-6 -18 -24 -18
q-4 0 -10 1q-19 5 -15 18q78 139 93 174t15 50t-12 15q-53 0 -152 -173q-36 -56 -58 -80t-40 -24h-4q-26 0 -51 21q6 9 29 39q51 62 89 120q-43 -43 -73 -67q-10 -8 -11.5 -1t4.5 12.5t20 18t18.5 16.5t17 15.5t18.5 18.5q28 33 41 56q5 12 4.5 23.5t-5 15t-3.5 8.5q0 8 8 8
q4 0 9 -2q31 -14 31 -61q0 -28 -11 -61q20 31 43 61q41 53 82 53q28 0 28 -32q0 -30 -42 -107q42 54 65 79q53 55 102 55q52 0 59 -45v-9z" />
    <glyph glyph-name="n" unicode="n" horiz-adv-x="394" 
d="M268 224q14 16 14 25t-18.5 9t-58.5 -35q-37 -32 -89.5 -107t-76 -101.5t-41.5 -26.5h-4q-26 0 -51 21q6 9 29 39q51 62 89 120q-43 -43 -73 -67q-10 -8 -11.5 -1t4.5 12.5t20 18t18.5 16.5t17 15.5t18.5 18.5q28 33 41 56q5 12 4.5 23.5t-5 15t-3.5 8.5q0 8 8 8
q4 0 9 -2q31 -14 31 -55.5t-18 -88.5q39 51 59 73q52 58 102 58q49 0 58 -42q1 -6 1 -18.5t-9.5 -33.5t-44.5 -69t-40.5 -60.5t-3.5 -18.5t9 -7q12 -2 41 16q41 29 106 89q11 11 11 -2q0 -5 -5 -10q-97 -90 -144 -112q-55 -28 -86 -9q-19 12 -19 33.5t8 43.5q18 51 103 147z
" />
    <glyph glyph-name="o" unicode="o" 
d="M176 17q-67 -34 -117 -34q-42 0 -57 28q-8 14 -8 32q0 41 19 80q-13 -13 -25 -21q-10 -9 -10 2q0 7 17.5 22t53.5 50.5t57 53.5q61 51 129 51q25 0 51 -13q38 -18 38 -66q0 -58 -58 -119q-23 -26 -64 -52q82 13 174 99q5 4 9 3.5t4 -4.5t-4 -8q-110 -104 -205 -104h-4z
M273 122q25 38 25 64.5t-23 40.5q-13 11 -30 11q-61 0 -112.5 -48t-68.5 -102q-7 -19 -7 -39.5t15.5 -29t34.5 -8.5t55 19q-2 0 -6 2q-12 6 -12 16q0 35 39 71q28 25 57 25t33 -22z" />
    <glyph glyph-name="p" unicode="p" 
d="M380 231q0 -70 -68 -148q-51 -60 -110 -87q-33 -16 -55 -16t-36 10q-24 16 -24 47t17 71q-221 -316 -221 -378q0 -6 2.5 -10.5t-1.5 -5.5l-3 1q-32 28 -32 66q0 87 178 355q-48 -48 -48 -34q0 8 11 18q49 42 106 115t73.5 89.5t40.5 16.5t48 -25q-20 -24 -75 -99
q48 45 97 63q24 9 43 9t38 -12.5t19 -45.5zM102 45q0 -45 35 -45q20 0 60.5 20t79 65.5t54.5 82t16 59.5q0 41 -32 41q-21 0 -65 -21t-82 -66q-66 -76 -66 -136z" />
    <glyph glyph-name="q" unicode="q" horiz-adv-x="347" 
d="M240 -18q-133 -198 -133 -259q0 -18 17 -28q4 -3 -4 -6q-43 7 -52 61q-1 9 -1 24t7 45t16 51q39 86 117 208q-32 -35 -75 -61t-72 -26t-49.5 17.5t-20.5 43.5q0 74 66 145q50 53 124 75q33 11 64.5 11t61 -17.5t37.5 -41.5q7 0 8 -3q23 -4 44 -19q-59 -76 -155 -220z
M66 35q0 -21 20 -21q16 0 49.5 22.5t57 46.5t58.5 64t41 47q23 23 23 35q0 23 -34 23q-19 0 -46 -12q-47 -22 -89 -72q-80 -94 -80 -133z" />
    <glyph glyph-name="r" unicode="r" horiz-adv-x="361" 
d="M275 200q-44 -51 -71.5 -93.5t-27.5 -60t20.5 -17.5t84 41t117.5 92q5 5 9 4t4 -5t-4 -9q-129 -118 -197 -148q-30 -12 -43 -12q-48 0 -65.5 16t-17.5 35q0 38 15 58q49 69 78 117q9 14 -3.5 19.5t-31 5.5t-19.5 1q-67 -90 -133 -142q-8 -7 -9 0q0 8 11 19q70 60 115 127
q-9 6 -9 16.5t1.5 25.5t15.5 40q24 42 50 42q22 0 22 -24q0 -33 -31 -72q-15 -18 -28 -26q37 12 108 12q35 0 50 -26q2 -4 2 -12t-13 -24z" />
    <glyph glyph-name="s" unicode="s" horiz-adv-x="307" 
d="M-58 55q-1 1 -1 3t3.5 2t4.5 -4q18 -40 59 -40q51 0 89 50q28 37 49.5 77.5t36 64.5t45 54t55.5 37q-6 3 -20 3t-52.5 -20.5t-76.5 -52t-82 -71.5t-53 -47t-11 0t5 13q26 22 75 68.5t74.5 68t57.5 37t48 15.5q40 0 49 -14q-26 -11 -42.5 -58t-37 -109t-51.5 -97
q26 10 80.5 46.5t96.5 79.5q9 8 13 2v-4.5t-19 -21.5t-46.5 -42.5t-68.5 -52.5q-85 -60 -170.5 -60t-109.5 73z" />
    <glyph glyph-name="t" unicode="t" horiz-adv-x="277" 
d="M214.5 395.5q13.5 19.5 21.5 28.5t36 15.5t54 6.5t26 -5.5t-43 -46.5t-100 -109q68 -11 89 -43q8 -14 2.5 -18t-12.5 3q-21 21 -67 21q-20 0 -45 -4q-81 -104 -102 -170q-7 -19 -7 -32q0 -35 29 -35q31 0 87 43q73 55 127 109q10 11 13 5t-5 -13q-86 -90 -144.5 -132.5
t-107.5 -42.5q-67 0 -67 71q0 34 19 81l-18 -17q-8 -8 -11.5 -4.5t-3.5 6.5t8 10q73 64 100 97q-19 -7 -25.5 -1t-9 16t10 24.5t37 21t36.5 7.5q15 22 37 55t35.5 52.5z" />
    <glyph glyph-name="u" unicode="u" horiz-adv-x="458" 
d="M197 116q-17 -23 -32 -44t-15 -31.5t10 -10.5q18 0 53 32l32 31q49 53 86 102l37 45q17 19 36 20q29 0 54 -22q-6 -9 -19.5 -26t-27 -34.5t-31 -40.5t-30.5 -43t-26.5 -42.5t-19.5 -38.5q-15 -44 1 -55q5 -5 -2 -5q-2 0 -4 1q-38 13 -38 62t32 116q-107 -138 -174 -138
q-51 0 -51 48q0 17 7 40q15 45 102 142q11 13 11 22t-12 9t-36 -18t-67 -58.5t-52.5 -48.5t-9.5 4q0 6 19 21.5t52 50t57.5 53t56.5 18.5q36 0 49 -27q5 -10 5 -26t-8 -35.5t-18 -34.5t-27 -38z" />
    <glyph glyph-name="v" unicode="v" horiz-adv-x="306" 
d="M381 297q1 -2 1 -4t-3.5 -1t-4.5 3q-7 15 -19 15q-36 0 -129 -148q-58 -94 -97 -133q-20 -20 -47 -28t-39 -8t-19 3q16 23 34 74.5t27.5 91t8.5 39.5l-42 -42q-32 -33 -64 -58q-12 -10 -12 1q0 6 5.5 11t19.5 17.5t18.5 16.5t17 15.5t18.5 18.5q28 33 41 56
q5 12 4.5 23.5t-5 15t-3.5 8.5q1 12 17 6q35 -16 38 -46q3 -15 3 -41.5t-10 -82.5q-10 -58 -38 -100q45 29 103.5 144.5t91.5 147.5q14 14 35 14q37 0 49 -29z" />
    <glyph glyph-name="w" unicode="w" horiz-adv-x="518" 
d="M452 139q-5 -18 -5 -33.5t12.5 -15.5t40.5 23t37 32t9 -3q0 -5 -3 -8q-32 -32 -47 -43q-28 -22 -48 -22q-32 0 -36 36q-96 -113 -153 -113q-35 0 -51.5 15t-16.5 32t5 41q-80 -88 -131 -88q-35 0 -52 15.5t-17 34.5q0 37 13 58t44 58q-63 -53 -68.5 -58t-6.5 2q0 9 11 19
q24 18 75.5 70t71 62t32 10t18.5 -3.5t3 -7.5q-29 -29 -57 -82q-38 -74 -38 -118q0 -7 1 -12q6 -19 39 3q12 8 27.5 21.5t67 79.5t72.5 77t34 11t20.5 -6.5t3.5 -10.5q-51 -54 -69 -139q-6 -35 1 -39.5t13.5 -4t15.5 5.5q40 22 90 85q3 94 41 136q16 20 62 20q20 0 18 -12
l-6 -10q-61 -75 -73 -118z" />
    <glyph glyph-name="x" unicode="x" horiz-adv-x="310" 
d="M-104 -103q-7 0 -7 3t3 7q89 119 191 220h-1q-15 40 -15 75q0 43 16 66q11 15 45.5 29.5t32.5 5.5l-2 -4q-16 -26 -16 -58t3 -55q173 153 287 153q8 0 8 -2t-2 -2h-2q-68 0 -208 -110q-26 -21 -78 -67q11 -50 31 -91q31 -61 70 -61q21 0 30 12q2 2 4 0.5t0 -3.5
q-15 -20 -40 -20q-99 0 -153 109q-124 -118 -184 -198q-6 -9 -13 -9z" />
    <glyph glyph-name="y" unicode="y" horiz-adv-x="417" 
d="M176 224q12 13 12 22t-12 9t-36.5 -18t-73.5 -64t-58.5 -53.5t-10 -0.5t12.5 17.5t58 56.5t70 65t57 19q36 0 49 -27q6 -10 6 -26t-8 -35.5t-18.5 -35t-27 -37.5t-32 -44t-15.5 -32t8 -10q39 0 146 130q51 61 87 114q32 74 56 81q9 3 22 3t19 -11t6 -17t-8.5 -9.5t-15 -3
t-8.5 0.5q-29 0 -49 -42q-12 -26 -30.5 -83t-34.5 -105t-53 -112t-90 -120t-125.5 -94t-148.5 -38t-127.5 35t-63.5 108q0 5 2 7t5 0t3 -6q10 -56 53.5 -91t100.5 -35q75 0 153.5 57.5t147 151t161.5 273.5q-23 -35 -55 -76q-125 -154 -192 -154q-51 0 -51 48q0 17 7 40
q14 40 102 142z" />
    <glyph glyph-name="z" unicode="z" horiz-adv-x="419" 
d="M174 140q88 37 88 51.5t-84 14.5q-107 0 -120 -39q-16 11 -16 28q0 4 1 8q20 74 163 74h11q55 0 77 -16.5t22 -34.5q0 -32 -46 -62q-31 -20 -114 -47q20 2 55 2t78 -17t57 -54q4 -12 4 -33t-18 -56q-27 -52 -100 -109.5t-150 -90.5q-153 -65 -271 -65q-65 0 -90 29
q-8 10 -8 19t5 23.5t26 36.5q47 50 157.5 92.5t198.5 42.5q64 0 91 -17q13 -9 13 -15.5t-11.5 -3.5t-38 3t-88 -13t-143.5 -44t-116 -79q-11 -16 -11 -27q0 -28 54 -28q85 0 214 57q107 45 174 127q44 54 44 93q0 18 -9 33q-25 42 -119 42q-8 0 -37.5 -0.5t-105.5 -17.5
q-19 -4 -18 9q2 17 24 32q6 4 9.5 5.5t53.5 15t94 31.5z" />
    <glyph glyph-name="braceleft" unicode="{" horiz-adv-x="399" 
d="M594 600q0 -12 -11 -11q-40 6 -74.5 6t-60.5 -8q-50 -15 -95 -85q-80 -126 -233 -155q-6 0 -10 -3q13 -5 19 -7.5t19.5 -8t21 -9.5t18 -10.5t15 -13t9.5 -13.5q8 -14 -5 -33q-44 -63 -65 -166q-6 -28 -6 -59.5t16 -46t32 -14.5q41 0 84 13q8 2 8.5 -6t-9.5 -11
q-63 -16 -104.5 -16t-66.5 11q-54 24 -54 86q0 75 95 208q10 18 10 29q0 34 -44 51q-21 8 -14 21t37 18.5t67 40.5t90 118q32 51 81.5 71.5t95.5 20.5q30 0 126 -10q8 -1 8 -8z" />
    <glyph glyph-name="bar" unicode="|" horiz-adv-x="230" 
d="M148 665q12 -3 12 -172t-11.5 -352.5t-32.5 -250.5q-10 -31 -28 -36h-4q-8 0 -8 9q0 3 1 5q30 123 30 453q0 210 -12 339q-2 19 12 19q11 0 25 -7t16 -7z" />
    <glyph glyph-name="braceright" unicode="}" horiz-adv-x="425" 
d="M352 318q-10 -18 -10 -29q0 -33 44 -50q20 -9 13.5 -21.5t-26.5 -16.5q-40 -7 -77 -42t-90 -119q-51 -78 -138 -86q-34 -4 -52 -4q-47 0 -113 9q-8 1 -8 9q0 3 2.5 6.5t24.5 0.5t57 -3t63 8q49 15 94 85q81 128 233 154l10 3q-79 31 -97 54q-7 10 -7 20t7 21
q46 70 65 167q6 28 6 59t-16.5 45.5t-32.5 14.5q-42 0 -83 -12q-8 -3 -9 5q2 8 10 12q62 16 103.5 16t67.5 -12q54 -24 54 -90t-95 -204z" />
    <glyph glyph-name="asciitilde" unicode="~" horiz-adv-x="584" 
d="M398 184q-42 0 -103 34t-113 34t-85 -72l-36 56q45 86 125 86q39 0 114 -34t96.5 -34t39 12t27 24.5t24.5 35.5l36 -56q-54 -86 -125 -86z" />
    <glyph glyph-name="nbspace" unicode="&#xa0;" horiz-adv-x="267" 
 />
    <glyph glyph-name="exclamdown" unicode="&#xa1;" horiz-adv-x="262" 
d="M201 309q21 25 51 25q8 0 17.5 -8t9.5 -17q0 -30 -16 -48q-24 -25 -50 -25q-12 0 -21.5 7.5t-9.5 16.5q0 29 19 49zM199 131q0 -65 -41.5 -149t-73.5 -118q-72 -79 -123 -79q-18 0 -25 7t-7 15.5t15.5 24.5t42 38.5t38.5 34.5q43 45 84 112q61 100 61 148q0 18 -10 25
q-5 2 -3.5 4.5t3 2.5t4.5 -1q35 -18 35 -65z" />
    <glyph glyph-name="cent" unicode="&#xa2;" horiz-adv-x="375" 
d="M333 431q37 -13 37 -45q0 -12 -7 -27t-22.5 -15t-5 19t10.5 34q0 21 -23 20q-80 -119 -156 -246q11 -3 23 -3q40 0 96 34l46 29q18 10 17 -2q-1 -10 -12 -17q-46 -29 -89.5 -48.5t-88.5 -19.5h-8q-3 -6 -19 -37q-40 -77 -51 -107q-4 -13 -15 -13q-15 0 -5 29t68 130
q-34 5 -54.5 26t-20.5 56q0 85 77 147t161 62l18 -1q67 100 74 100q15 0 15 -7t-20 -32.5t-46 -65.5zM126 221q0 -27 23 -42q59 98 143 230l-10 -5q-45 -20 -96 -72q-60 -61 -60 -111z" />
    <glyph glyph-name="sterling" unicode="&#xa3;" horiz-adv-x="566" 
d="M-46 -17q0 28 42 51q18 11 45 19q23 25 62 120t48 110q-27 1 -39.5 13t-12.5 21q0 32 59 48q2 1 9.5 2t15.5 2.5t10 1.5q97 196 174 248q47 32 96 32t83 -24q46 -32 46 -74q0 -3 -2.5 -4t-4.5 5q-8 29 -30.5 39t-36.5 10q-41 0 -75.5 -21.5t-81.5 -80.5t-86 -126
q85 -9 101 -22q15 -11 21 -21.5t4 -15.5t-13 1.5t-43.5 6.5t-115.5 -23q-2 -2 -18 -44.5t-48 -97t-75 -95.5l38 6q40 3 99.5 3t124 -11.5t118 -28t77.5 -43t24 -52.5q0 -11 -3.5 -22t-7.5 -11q-8 0 -5 7t3 12q0 22 -53 42q-96 35 -249 35q-84 0 -140 -13
q-109 -24 -134.5 -24t-25.5 19z" />
    <glyph glyph-name="currency" unicode="&#xa4;" horiz-adv-x="653" 
d="M90 96q-3 0 -3 22t3 39t7 20q13 8 84 66q-28 44 -28 96.5t27 93.5q-49 39 -83 67q-9 4 -9 28q0 53 4 53l122 -108q51 44 117.5 44t117.5 -46l122 110q5 0 5 -26q0 -50 -11 -55q-5 -5 -84 -66q28 -44 28 -96.5t-28 -94.5q73 -60 84 -66q11 -8 11 -52q0 -29 -4 -28
l-123 109q-50 -45 -118 -45t-119 45zM204 337q0 -53 38 -91t91 -38t91 38t38 91t-38 91t-91 38t-91 -38t-38 -91z" />
    <glyph glyph-name="yen" unicode="&#xa5;" horiz-adv-x="484" 
d="M791 666q1 -2 1 -4t-7.5 -2h-11.5q-80 0 -200 -111.5t-219 -255.5q38 -1 87 -7q13 -2 14 -10t-12 -8q-60 -1 -110 -6q-23 -36 -46 -79q40 -2 94 -8q14 -2 14.5 -10t-12.5 -8q-60 -1 -110 -6q-4 -8 -4 -10q-31 -97 -31 -153t35 -64q5 -2 14.5 -2t20.5 8.5t11 4t-6 -8.5
q-18 -14 -44 -14h-9q-89 7 -89 103q0 47 23 126q-77 -11 -133 -18q-9 -1 -9 13q0 5 1 12q4 27 18 28q69 5 137 7l21 66q-81 -12 -109 -15q-12 -1 -7.5 25.5t17.5 27.5q57 5 112 7q1 3 2.5 8.5t2.5 8.5q18 75 18 165q0 20 -1.5 56.5t-17.5 71.5q-21 49 -51 49
q-17 0 -42.5 -22t-54.5 -86.5t-29 -127.5q0 -11 1 -20.5t-2 -10.5t-5 4q-9 19 -9 44q0 91 24 135.5t59 72.5q49 41 93 41q26 0 49 -15q57 -37 57 -155q0 -60 -8 -123t-14 -87q68 104 163 197.5t189 149.5q49 29 93 29q23 0 32 -13z" />
    <glyph glyph-name="brokenbar" unicode="&#xa6;" horiz-adv-x="230" 
d="M157 335q0 -16 -25 -16t-26 15q0 166 -11 326q-2 19 12 19q11 0 25 -7t16 -7q12 -3 12 -112.5t-3 -217.5zM106 218q0 15 23.5 15t23.5 -18q-13 -248 -37 -325q-10 -31 -28 -36h-4q-8 0 -8 9q0 3 1 5q26 103 29 350z" />
    <glyph glyph-name="section" unicode="&#xa7;" horiz-adv-x="553" 
d="M766 576q-8 13 -28 13t-37.5 -5t-41.5 -14q-39 -16 -63 -30q-90 -48 -168 -112.5t-82 -96.5q-2 -25 27 -41q25 -15 58 -28.5t48 -20.5q45 -23 64 -54t19 -59q0 -39 -30 -72t-67.5 -44.5t-68.5 -12t-57.5 -0.5t-59.5 7q27 -31 27 -66q0 -18 -8 -38q-22 -55 -91 -90
q-53 -27 -115 -38q-64 -11 -106 -11q-76 0 -152 32.5t-94 101.5q37 -33 102 -47t124 -14q88 1 130.5 14t74 30.5t58 41t26.5 52t-38 51.5q-3 2 -60.5 25t-88 51t-30.5 64q0 57 49 100q86 74 204 81q-3 10 -1 25q8 66 88 133t179.5 106t169.5 39q49 0 76 -17.5t27 -48.5v-9
q-3 -31 -109 -129q-39 -36 -68.5 -80.5t-29.5 -78.5v-6q-31 24 -31 64q0 36 31 88q45 76 143 144zM94 146q0 -21 11.5 -32.5t19 -17.5t21.5 -13.5t23 -11.5q45 -20 53 -24q32 -3 81 -3t94.5 13.5t76.5 41.5q36 32 36 64.5t-41 58.5q-8 5 -45 19q-90 35 -119 74
q-4 -2 -24 -7.5t-35 -10.5q-40 -14 -74 -38q-78 -53 -78 -113z" />
    <glyph glyph-name="dieresis" unicode="&#xa8;" horiz-adv-x="314" 
d="M203 428q12 14 22 16.5t16.5 2.5t14.5 -5.5t8 -21t-15 -30.5q-16 -19 -30.5 -19t-23 7t-6.5 21.5t14 28.5zM142 420.5q0 -15.5 -15 -32.5t-38 -17q-7 0 -14.5 6.5t-7.5 20t15.5 31.5t37.5 18q6 0 14 -5.5t8 -21z" />
    <glyph glyph-name="copyright" unicode="&#xa9;" horiz-adv-x="767" 
d="M749 462q0 -45 -24.5 -109t-78.5 -132t-138 -118q-103 -61 -220 -61q-66 0 -126 23t-94 71q-45 63 -45 149q0 111 79 207q124 153 364 153q83 0 153 -23q44 -15 81 -50q49 -46 49 -110zM642 535q-55 43 -118.5 58.5t-102.5 15.5t-58 -1q-80 -6 -142.5 -41.5t-104.5 -89.5
q-59 -74 -59 -152q0 -89 62 -149q38 -37 91 -52.5t90 -15.5q140 0 242 64q78 50 126 122q42 60 42 116q0 73 -68 125zM496 387q-9 0 -9 11q0 17 27 40t27 44q0 40 -63 40t-125 -32t-106 -80q-53 -62 -53 -110.5t53 -73.5q32 -15 66 -15t74.5 7.5t92 31.5t79.5 47q4 4 5.5 1
t-0.5 -5q-24 -30 -89 -67q-100 -57 -178 -57q-49 0 -84 23q-54 35 -54 102.5t60 130.5q46 49 127 80.5t141 31.5t81 -30q9 -11 9 -28.5t-22 -43.5q-43 -48 -59 -48z" />
    <glyph glyph-name="ordfeminine" unicode="&#xaa;" horiz-adv-x="289" 
d="M229 478q-51 -56 -51 -77q0 -11 9.5 -11t41.5 17.5t82 65.5q8 7 8 1l-2 -6q-103 -97 -149 -97q-15 0 -24 9t-9 22q0 11 10 39q-27 -33 -58 -52t-49.5 -19t-29.5 12.5t-11 31.5q0 37 35 74.5t80 51.5q19 5 38 5t36 -10t23 -25q13 0 21.5 -7t-1.5 -25zM-8 306q0 11 3.5 23
t7.5 12q54 7 95 7t59 -2.5t20 -6.5t0.5 -7.5t-20 -4.5t-44.5 -5.5t-63 -13.5q-53 -13 -55.5 -13t-2.5 11zM180 527q-45 0 -90.5 -52.5t-45.5 -70.5t12 -18q25 0 78 54q1 1 7.5 7t12.5 11q42 43 42 56t-16 13z" />
    <glyph glyph-name="guillemotleft" unicode="&#xab;" horiz-adv-x="458" 
d="M119 150q-33 29 -60.5 29t-27.5 2q0 5 17 14q74 44 139.5 95.5t79.5 81.5q5 10 18 11t13.5 -1t-0.5 -4q-31 -67 -182 -160q25 -11 50.5 -41t35.5 -69q2 -9 2 -18q0 -28 -21 -52t-24 -24q-6 0 2 13q7 15 7 30q0 50 -49 93zM275 172q-33 29 -60 29t-27 2q0 6 50 35.5
t110.5 77.5t74.5 78q5 11 24 12q9 -1 8 -6q-34 -69 -183 -159q25 -11 50.5 -41.5t35.5 -69.5q2 -9 2 -18q0 -28 -21 -52t-25 -24q-5 0 4 13q6 14 6 29q0 51 -49 94z" />
    <glyph glyph-name="logicalnot" unicode="&#xac;" horiz-adv-x="361" 
d="M275 200q-44 -51 -71.5 -93.5t-27.5 -60t20.5 -17.5t84 41t117.5 92q5 5 9 4t4 -5t-4 -9q-129 -118 -197 -148q-30 -12 -43 -12q-48 0 -65.5 16t-17.5 35q0 38 15 58q49 69 78 117q9 14 -3.5 19.5t-31 5.5t-19.5 1q-67 -90 -133 -142q-8 -7 -9 0q0 8 11 19
q112 97 153 195q3 8 9 8q3 0 7 -2q12 -5 -34 -73q33 13 109 13q35 0 50 -26q2 -4 2 -12t-13 -24z" />
    <glyph glyph-name="registered" unicode="&#xae;" horiz-adv-x="767" 
d="M749 462q0 -45 -24.5 -109t-78.5 -132t-138 -118q-104 -61 -221 -61q-53 0 -106.5 15.5t-88.5 52.5q-70 72 -70 165q0 62 25 124q49 124 171 190q103 56 248 56q83 0 153 -23q44 -15 81 -50q49 -46 49 -110zM150 151q0 31 88 158q-4 12 -3 21t16 21.5t24 11.5
q87 118 97 118t10 -13q-49 -60 -100 -130q1 -1 1 -5q12 2 40.5 3.5t82.5 19.5q97 32 140 87q20 25 20 43.5t-23.5 30.5t-74 12t-137.5 -24.5t-121 -54.5q-10 -8 -7 -13t1 -5.5t-5 1.5q-13 8 -17.5 23.5t0.5 19.5q30 44 158 76q91 22 133 22t62 -4q56 -11 56 -69
q0 -9 -3.5 -25t-25 -41t-58.5 -47q-98 -56 -198 -63q-4 0 -10.5 -0.5t-8.5 -0.5q19 -48 77.5 -97.5t96.5 -49.5q16 0 27.5 7t12.5 18q2 5 5 -1q-5 -41 -66 -41t-114 39t-80 89q-63 -90 -79 -131q-3 -8 -10 -10q66 -39 154 -39q129 0 231 64q78 50 126 122q42 60 42 116
q0 73 -68 125q-95 74 -241 74q-106 0 -174 -39q-100 -57 -143 -140q-29 -56 -29 -109q0 -25 7 -49q19 -75 88 -121z" />
    <glyph glyph-name="macron" unicode="&#xaf;" horiz-adv-x="328" 
d="M286 404q-29 4 -53.5 4t-38 -1t-36.5 -4t-33.5 -5.5t-35 -7.5t-28.5 -6t-6.5 -1t-2.5 13q0 40 11 40q63 8 95.5 8t69 -2t64.5 -14q6 -1 6 -8q0 -16 -12 -16z" />
    <glyph glyph-name="degree" unicode="&#xb0;" horiz-adv-x="653" 
d="M159 459q-40 0 -40 40q0 9 3 24t24.5 42.5t43.5 45.5q33 28 72 28q18 0 35 -7q25 -10 25 -42.5t-34 -70.5q-37 -39 -95 -55q-20 -5 -34 -5zM236 599q-32 0 -64 -33.5t-32 -60.5t23 -27q12 0 34 9t46 34q25 29 25 53.5t-32 24.5z" />
    <glyph glyph-name="plusminus" unicode="&#xb1;" horiz-adv-x="438" 
d="M442 265q7 -2 7 -8.5t-4.5 -11t-11.5 -4.5q-44 3 -84.5 3t-77.5 -2q-64 -100 -69 -170q0 -7 -5.5 -9t-10.5 1t-5 10q5 71 51 164q-38 -4 -126 -19q-7 -1 -7.5 12.5t4 27.5t11.5 14q63 6 142 8q44 72 92 120q6 6 15.5 6t22.5 -3.5t7 -9.5q-48 -48 -96 -114q99 -1 145 -15z
M55 -18.5q0 13.5 4.5 27t11.5 13.5q69 7 130.5 7t114.5 -8q12 -2 12 -10t-10 -8q-72 -2 -151 -16q-102 -19 -107 -19t-5 13.5z" />
    <glyph glyph-name="twosuperior" unicode="&#xb2;" horiz-adv-x="484" 
d="M144 513q0 -13 20 -13t61.5 10t68.5 36q5 7 5 -5q0 -16 -30 -35q-52 -34 -120 -34q-33 0 -41 17q-2 4 -2 13t24.5 32t86.5 43t121 20q83 0 108 -43q8 -12 8 -26q0 -49 -68 -92q-47 -30 -187 -77q85 -1 146 -24t61 -64q0 -15 -4 -15q-4 1 -3.5 4t0.5 5q0 14 -38 27.5
t-87 13.5q-89 0 -121 -7t-61.5 -16t-41.5 -11.5t-29 0.5q-5 3 -5 10t3.5 16t14.5 19q28 26 93 37q20 3 38 11q128 57 167 78q51 28 51 71q0 18 -14 35t-39 20.5t-45 3.5q-61 0 -111 -30q-30 -17 -30 -30z" />
    <glyph glyph-name="threesuperior" unicode="&#xb3;" horiz-adv-x="413" 
d="M316 604q33 0 55.5 -12t22.5 -34t-26.5 -44.5t-57.5 -33.5q27 0 48.5 -17.5t21.5 -40t-8 -42.5q-36 -85 -193 -120q-35 -8 -62 -8t-47 4q-51 8 -57 46q-1 4 -1 9q0 43 83 77q41 16 116 16q41 0 47 -5q11 -9 -6 -9h-10.5t-63.5 -12t-96 -30q-56 -22 -56 -46q0 -10 18 -19
q19 -10 61 -10t120 35q99 43 99 89q0 20 -23 39q-24 22 -64 25q-19 1 -19 10q0 12 33 14t58 15.5t25 37.5q0 30 -32 42q-14 6 -35 6t-56 -8.5t-40 -28.5q-3 -11 14 -18.5t27 -9t9 -5.5q-2 -2 -23 -2t-47 10q-14 7 -14 15q0 47 121 62q25 3 58 3z" />
    <glyph glyph-name="acute" unicode="&#xb4;" horiz-adv-x="275" 
d="M280 432q0 -12 -22.5 -31t-76.5 -39q-60 -21 -121 -21q-24 0 -24 7q0 3 16 6q52 4 110 41t58 60q0 4 -2 7.5t1.5 3.5t23 -6.5t35.5 -21.5q2 -3 2 -6z" />
    <glyph glyph-name="mu" unicode="&#xb5;" horiz-adv-x="359" 
d="M169 164q-3 -5 -41.5 -59t-38.5 -64.5t10 -10.5q18 0 53 32l32 31q49 53 81.5 95.5t34.5 45.5q4 2 6 6q17 19 36 20q30 0 55 -22q-6 -9 -19.5 -26t-27 -34.5t-31 -40.5t-30.5 -43t-26.5 -42.5t-18.5 -38.5q-16 -44 0 -55q4 -4 -2 -5q-2 0 -4 1q-38 13 -38 62t32 116
q-109 -138 -175 -138h-9q-185 -277 -185 -329q0 -5 3 -9q4 -6 -4 -6q-1 0 -2 1q-32 32 -32 65q0 68 117.5 260t192.5 267q22 22 46 22t49 -24q-22 -24 -64 -77z" />
    <glyph glyph-name="paragraph" unicode="&#xb6;" horiz-adv-x="463" 
d="M465 566q52 52 91 52q11 0 13 -7q-3 -3 -18 -8t-22 -11q-43 -32 -105 -127.5t-114.5 -194t-112 -192.5t-97.5 -123q-5 -5 -10 -5q-5 -2 -5 2q4 7 15 16q62 62 179 298q76 153 126 224q24 33 49 62q-83 0 -295 -398q-8 -15 -23.5 -44.5t-59 -95t-105 -132t-105.5 -75.5h-5
q-7 0 -7 5q3 6 10 8q50 10 105 79q60 75 95.5 136t50.5 87q41 72 67 125q-17 -2 -31 -2q-81 0 -81 51q0 9 2 19q15 73 104 141t166 84q12 3 43 12q54 14 66 14h14z" />
    <glyph glyph-name="periodcentered" unicode="&#xb7;" horiz-adv-x="232" 
d="M126 120q-11 0 -20.5 7.5t-9.5 16.5q0 30 17 48q23 26 49 26q11 0 21 -8t10 -26.5t-20.5 -41t-46.5 -22.5z" />
    <glyph glyph-name="cedilla" unicode="&#xb8;" horiz-adv-x="758" 
d="M227.5 -55q-14.5 -15 -14.5 -27t21.5 -42t21.5 -48q0 -59 -145 -59q-5 0 -5 5.5t9.5 8t27 4t26.5 3t19 11.5q15 16 15 30t-9.5 34.5t-9.5 38t21 40.5t45 23q5 0 6.5 -1t0.5 -4q-15 -2 -29.5 -17z" />
    <glyph glyph-name="onesuperior" unicode="&#xb9;" horiz-adv-x="338" 
d="M193.5 558.5q36.5 26.5 67 38.5t44.5 12t21 -4.5t7 -7.5t-3 -2.5t-5 0.5q-19 0 -43 -26t-48 -73t-44 -90.5t-40.5 -93.5t-27.5 -65q-39 7 -53 33q-4 7 -4 20t8 35q34 95 98 178q-33 -23 -115 -68q-11 -7 -11 1t14 15.5t56 39t78.5 58z" />
    <glyph glyph-name="ordmasculine" unicode="&#xba;" horiz-adv-x="224" 
d="M106 386q-40 -22 -63 -22q-46 0 -46 40q0 27 11 45l-15 -12q-6 -6 -6 1q0 5 10.5 14t32 30t32.5 30q41 33 76 33q16 0 31 -7q25 -11 25 -43.5t-34 -69.5q-16 -17 -39 -30q49 6 104 59q8 7 8 -1q0 -2 -2 -4q-65 -63 -123 -63h-2zM170 343q8 0 8 -7.5t-7 -7.5
q-53 -3 -105 -16q-69 -17 -71.5 -17t-2.5 11t3.5 23t7.5 12q54 7 95 7t72 -5zM133 505q-13 0 -37 -19q-29 -24 -29 -53t19 -36q14 8 36 31q27 28 27 52.5t-16 24.5zM7 406q0 -30 24 -30q18 0 46 15q-25 11 -25 38q0 30 23 53t48 29q-6 1 -13 1q-27 0 -59 -27
q-44 -37 -44 -79z" />
    <glyph glyph-name="guillemotright" unicode="&#xbb;" horiz-adv-x="474" 
d="M385 262q33 -29 60 -29t27 -2q0 -5 -8.5 -10.5t-50 -30.5t-102 -72.5t-74.5 -77.5q-5 -11 -18 -12t-13.5 1.5t0.5 4.5q16 35 67 77.5t115 81.5q-25 11 -50.5 41.5t-35.5 69.5q-2 9 -2 18q0 28 21 52t24 24q6 0 -2 -13q-7 -15 -7 -30q0 -50 49 -93zM199 241q33 -29 60 -29
t27 -2q0 -5 -8.5 -10.5t-50 -30.5t-102 -72.5t-74.5 -77.5q-5 -11 -24 -12q-9 1 -8 6q33 66 183 159q-25 11 -50.5 41t-35.5 69q-2 9 -2 19q0 28 21 52t24 24q6 0 -2 -13q-7 -15 -7 -30q0 -50 49 -93z" />
    <glyph glyph-name="onequarter" unicode="&#xbc;" horiz-adv-x="595" 
d="M325 595q-19 0 -43 -26t-48 -73t-44 -90.5t-40.5 -93.5t-27.5 -65q-39 7 -53 33q-4 7 -4 20t8 35q34 95 98 178q-33 -23 -115 -68q-11 -7 -11 1t14 15.5t56 39t78.5 58t67 38.5t44.5 12t22 -5.5t6 -7t-4 -1.5h-4zM474 644l35 5q22 0 7 -19q-130 -170 -271 -379t-184 -309
q-5 -11 -12 -11q-2 0 -7 3t-5 12q0 42 116 230.5t213 328t108 139.5zM412 116q-27 -69 -27 -97t22 -38q4 -3 -3 -6q-8 -1 -16 -1q-43 0 -58 35q-5 12 -5 35.5t19 68.5q-31 -1 -70 -11.5t-54 -10.5t-17 7q-3 1 -3 5.5t9 14.5q10 10 38.5 31t71.5 55t77 58q124 91 164 91
q20 0 20 -9q0 -3 -3.5 -3h-4.5q-30 0 -70 -56.5t-77 -136.5q109 -8 109 -56q0 -18 -7 -15q-2 1 -1 4t1 5q0 12 -29 21t-86 9zM432 264q-12 -7 -81 -59.5t-92 -69.5q55 12 102 13q5 10 34 58.5t37 57.5z" />
    <glyph glyph-name="onehalf" unicode="&#xbd;" horiz-adv-x="668" 
d="M325 595q-19 0 -43 -26t-48 -73t-44 -90.5t-40.5 -93.5t-27.5 -65q-39 7 -53 33q-4 7 -4 20t8 35q34 95 98 178q-33 -23 -115 -68q-11 -7 -11 1t14 15.5t56 39t78.5 58t67 38.5t44.5 12t22 -5.5t6 -7t-4 -1.5h-4zM474 644l35 5q22 0 7 -19q-130 -170 -271 -379t-184 -309
q-5 -11 -12 -11q-2 0 -7 3t-5 12q0 42 116 230.5t213 328t108 139.5zM349 269q-34 -19 -34 -33.5t21.5 -14.5t52.5 8q59 14 87 43q3 2 4 0q1 -3 1 -7q0 -17 -30 -36q-58 -37 -131 -37q-36 0 -45 17q-2 5 -2 9q0 15 27 40t93.5 47t129.5 22q90 0 117 -47q9 -13 9 -29
q0 -52 -73 -98q-56 -35 -202 -83q127 -2 192 -46q31 -21 31 -50q0 -16 -6 -16q-4 0 -1.5 9t-14.5 19q-29 19 -118 24q-19 2 -39 2q-62 0 -94 -7t-53.5 -13.5t-35.5 -11.5q-44 -13 -53 -4q-5 3 -5 11t4 17.5t15 20.5q28 26 101 40q24 4 40 11q133 59 171 80q65 35 65 79
q0 24 -19.5 41.5t-42 20.5t-43.5 3q-65 0 -119 -31z" />
    <glyph glyph-name="threequarters" unicode="&#xbe;" horiz-adv-x="712" 
d="M539 116q-26 -65 -26 -95t22 -40q4 -3 -3 -6q-8 -1 -16 -1q-44 0 -58 35q-6 13 -6 37t19 67q-37 -3 -72.5 -12.5t-50 -9.5t-18.5 7q-3 1 -1 7.5t8.5 13t35.5 28.5t73 56.5t76 58.5q124 91 166 91q10 0 16 -4q4 -4 4 -6.5t-3.5 -2t-4.5 0.5q-31 0 -71.5 -56.5
t-75.5 -136.5q54 -4 81.5 -19t27.5 -37q0 -18 -7 -15q-2 1 -1 3.5t1 4.5q0 12 -28.5 21.5t-87.5 9.5zM316 604q33 0 55.5 -12t22.5 -34t-26.5 -44.5t-57.5 -33.5q27 0 48.5 -17.5t21.5 -40t-8 -42.5q-36 -85 -193 -120q-35 -8 -62 -8t-47 4q-51 8 -57 46q-1 4 -1 9
q0 43 83 77q41 16 116 16q41 0 47 -5q11 -9 -6 -9h-10.5t-63.5 -12t-96 -30q-56 -22 -56 -46q0 -10 18 -19q19 -10 61 -10t120 35q99 43 99 89q0 20 -23 39q-24 22 -64 25q-19 1 -19 10q0 12 33 14t58 15.5t25 37.5q0 30 -32 42q-14 6 -35 6t-56 -8.5t-40 -28.5
q-3 -11 14 -18.5t27 -9t9 -5.5q-2 -2 -23 -2t-47 10q-14 7 -14 15q0 47 121 62q25 3 58 3zM576 584l35 5q22 0 7 -19q-130 -170 -271 -379t-184 -309q-5 -11 -12 -11q-2 0 -7 3t-5 12q0 42 116 230.5t213 328t108 139.5zM559 264q-14 -9 -83 -61.5t-89 -67.5q53 12 102 13
q12 23 37 65t33 51z" />
    <glyph glyph-name="questiondown" unicode="&#xbf;" horiz-adv-x="262" 
d="M201 309q21 25 51 25q8 0 17.5 -8t9.5 -17q0 -30 -16 -48q-24 -25 -50 -25q-12 0 -21.5 7.5t-9.5 16.5q0 29 19 49zM-227 -250q-10 23 -10 47t13 49q23 47 75.5 85t109.5 71t111 66q86 51 86 80q0 8 -4.5 12.5t-3.5 9.5q1 7 9 7q3 0 6 -2q12 -11 12 -25q0 -41 -98 -108
q-75 -54 -183 -136q-72 -67 -72 -110q0 -22 20 -38q31 -24 94 -24q86 0 153 27.5t109.5 52.5t69.5 50q50 46 22 62q-6 3 -17 3q-42 0 -111.5 -31.5t-121.5 -65.5t-68 -61q0 -1 -1.5 -4t-5 1.5t-3.5 13.5t13 27q66 97 149 133q75 34 130 34q46 0 62 -27q6 -10 6 -20.5
t-5.5 -27.5t-36 -48t-79 -60t-96.5 -48q-144 -56 -226 -56t-108 61z" />
    <glyph glyph-name="Agrave" unicode="&#xc0;" horiz-adv-x="1030" 
d="M1235.5 790.5q-45.5 20.5 -62 38.5t-16.5 25t4 13t25.5 11.5t25 5.5t3.5 -3q-3 -5 -3 -10q0 -20 45 -55t91 -42q12 -2 13 -6q2 -8 -39 -3t-86.5 25.5zM978 -89q2 -1 2 -4q-2 -7 -8 -3q-87 61 -87 179q0 49 19.5 104.5t69.5 133.5t97 135t90.5 106.5t45.5 53.5
q12 18 16 -4q1 -7 1 -16t-5 -16q-62 -76 -120 -172q-97 -162 -139 -295q-16 -53 -16 -110t34 -92zM146 261q164 68 395 68q114 0 228 -36q27 28 80 83.5t84 87.5q90 93 147 137q96 75 176 75q36 0 66 -11.5t36 -18t6 -7.5t-2 -3.5t-6 2.5q-19 18 -74 18q-93 0 -196 -81
q-74 -60 -123 -109.5t-102.5 -105t-72.5 -74.5q100 -37 109 -97q1 -6 -0.5 -8t-4 0t-3.5 6q-8 19 -56 30q-43 10 -99 15q-203 -196 -359 -249q-85 -30 -161 -30q-136 0 -188.5 40.5t-52.5 89.5q0 19 7 39q30 82 166 139zM647 236q-133 0 -280 -28q-226 -40 -294 -119
q-21 -25 -21 -47q0 -26 28 -47q33 -25 114.5 -25t176.5 27q142 44 338 237q-31 2 -62 2z" />
    <glyph glyph-name="Aacute" unicode="&#xc1;" horiz-adv-x="1030" 
d="M1452 854q2 -3 2 -10.5t-22.5 -26.5t-76.5 -38.5t-98.5 -21t-46.5 5.5q-1 6 16 7q52 4 110 41t58 60q0 4 -2 7.5t1.5 3.5t23 -6.5t35.5 -21.5zM978 -89q2 -1 2 -4q-2 -7 -8 -3q-87 61 -87 179q0 49 19.5 104.5t69.5 133.5t97 135t90.5 106.5t45.5 53.5q12 18 16 -4
q1 -7 1 -16t-5 -16q-62 -76 -120 -172q-97 -162 -139 -295q-16 -53 -16 -110t34 -92zM146 261q164 68 395 68q114 0 228 -36q27 28 80 83.5t84 87.5q90 93 147 137q96 75 176 75q36 0 66 -11.5t36 -18t6 -7.5t-2 -3.5t-6 2.5q-19 18 -74 18q-93 0 -196 -81
q-74 -60 -123 -109.5t-102.5 -105t-72.5 -74.5q100 -37 109 -97q1 -6 -0.5 -8t-4 0t-3.5 6q-8 19 -56 30q-43 10 -99 15q-203 -196 -359 -249q-85 -30 -161 -30q-136 0 -188.5 40.5t-52.5 89.5q0 19 7 39q30 82 166 139zM647 236q-133 0 -280 -28q-226 -40 -294 -119
q-21 -25 -21 -47q0 -26 28 -47q33 -25 114.5 -25t176.5 27q142 44 338 237q-31 2 -62 2z" />
    <glyph glyph-name="Acircumflex" unicode="&#xc2;" horiz-adv-x="1030" 
d="M146 261q164 68 395 68q114 0 228 -36q27 28 80 83.5t84 87.5q90 93 147 137q96 75 176 75q36 0 66 -11.5t37 -18.5t4 -10t-7 2q-19 18 -74 18q-93 0 -196 -81q-74 -60 -123 -109.5t-102.5 -105t-72.5 -74.5q100 -37 109 -97q1 -6 -0.5 -8t-4 0t-3.5 6q-8 19 -56 30
q-43 10 -99 15q-203 -196 -359 -249q-85 -30 -161 -30q-136 0 -188.5 40.5t-52.5 89.5q0 19 7 39q30 82 166 139zM647 236q-133 0 -280 -28q-226 -40 -294 -119q-21 -25 -21 -47q0 -26 28 -47q33 -25 114.5 -25t176.5 27q142 44 338 237q-31 2 -62 2zM978 -89q2 -1 2 -4
q-2 -7 -8 -3q-87 61 -87 179q0 49 19.5 104.5t69.5 133.5t97 135t90.5 106.5t45.5 53.5q12 18 16 -4q1 -7 1 -16t-5 -16q-62 -76 -120 -172q-97 -162 -139 -295q-16 -53 -16 -110t34 -92zM1418 768q3 0 10.5 1t7.5 -3q0 -5 -19 -10.5t-41.5 -5.5t-42.5 14q-32 21 -32 54
q-72 -59 -130 -59q-10 0 -10 3t4 9t18.5 6t53 20t73.5 49q13 18 34.5 35.5t23.5 17.5t-4.5 -12.5t-6.5 -27.5q0 -46 21.5 -68.5t39.5 -22.5z" />
    <glyph glyph-name="Atilde" unicode="&#xc3;" horiz-adv-x="1030" 
d="M1416 818q11 -3 11 -14q0 -14 -21 -31q-36 -27 -64 -27t-42.5 9.5t-32.5 22.5q-20 14 -32 14q-23 0 -54 -31q-8 -9 -12 -4q-2 4 3 9q59 56 98 56t65.5 -15t42.5 -15q27 0 38 26zM978 -89q2 -1 2 -4q-2 -7 -8 -3q-87 61 -87 179q0 49 19.5 104.5t69.5 133.5t97 135
t90.5 106.5t45.5 53.5q12 18 16 -4q1 -7 1 -16t-5 -16q-62 -76 -120 -172q-97 -162 -139 -295q-16 -53 -16 -110t34 -92zM146 261q164 68 395 68q114 0 228 -36q27 28 80 83.5t84 87.5q90 93 147 137q96 75 176 75q36 0 66 -11.5t36 -18t6 -7.5t-2 -3.5t-6 2.5
q-19 18 -74 18q-93 0 -196 -81q-74 -60 -123 -109.5t-102.5 -105t-72.5 -74.5q100 -37 109 -97q1 -6 -0.5 -8t-4 0t-3.5 6q-8 19 -56 30q-43 10 -99 15q-203 -196 -359 -249q-85 -30 -161 -30q-136 0 -188.5 40.5t-52.5 89.5q0 19 7 39q30 82 166 139zM647 236
q-133 0 -280 -28q-226 -40 -294 -119q-21 -25 -21 -47q0 -26 28 -47q33 -25 114.5 -25t176.5 27q142 44 338 237q-31 2 -62 2z" />
    <glyph glyph-name="Adieresis" unicode="&#xc4;" horiz-adv-x="1030" 
d="M1314 774.5q2 14.5 17 31t36 16.5q7 0 14.5 -6t7.5 -21t-13 -29.5t-28.5 -18t-25.5 4.5t-8 22.5zM1192 774.5q2 14.5 17 31t37 16.5q6 0 14 -6.5t6.5 -22t-13.5 -29t-27.5 -17t-25.5 4.5t-8 22.5zM978 -89q2 -1 2 -4q-2 -7 -8 -3q-87 61 -87 179q0 49 19.5 104.5
t69.5 133.5t97 135t90.5 106.5t45.5 53.5q12 18 16 -4q1 -7 1 -16t-5 -16q-62 -76 -120 -172q-97 -162 -139 -295q-16 -53 -16 -110t34 -92zM146 261q164 68 395 68q114 0 228 -36q27 28 80 83.5t84 87.5q90 93 147 137q96 75 176 75q36 0 66 -11.5t36 -18t6 -7.5t-2 -3.5
t-6 2.5q-19 18 -74 18q-93 0 -196 -81q-74 -60 -123 -109.5t-102.5 -105t-72.5 -74.5q100 -37 109 -97q1 -6 -0.5 -8t-4 0t-3.5 6q-8 19 -56 30q-43 10 -99 15q-203 -196 -359 -249q-85 -30 -161 -30q-136 0 -188.5 40.5t-52.5 89.5q0 19 7 39q30 82 166 139zM647 236
q-133 0 -280 -28q-226 -40 -294 -119q-21 -25 -21 -47q0 -26 28 -47q33 -25 114.5 -25t176.5 27q142 44 338 237q-31 2 -62 2z" />
    <glyph glyph-name="Aring" unicode="&#xc5;" horiz-adv-x="1030" 
d="M978 -89q2 -1 2 -4q-2 -7 -8 -3q-87 61 -87 179q0 49 19.5 104.5t69.5 133.5t97 135t90.5 106.5t45.5 53.5q12 18 16 -4q1 -7 1 -16t-5 -16q-62 -76 -120 -172q-97 -162 -139 -295q-16 -53 -16 -110t34 -92zM146 261q164 68 395 68q114 0 228 -36q27 28 80 83.5t84 87.5
q90 93 149.5 139.5t120.5 63.5q-2 9 -2 17t3 22.5t24.5 42t43.5 45.5q33 28 73 28l35 -7q25 -11 25 -43.5t-35 -69.5q-18 -20 -49 -36q29 -11 37 -19t5 -11t-6 0q-13 15 -58 19q-32 -14 -50.5 -14t-28.5 5q-64 -16 -134 -71q-74 -60 -123 -109.5t-102.5 -105t-72.5 -74.5
q100 -37 109 -97q1 -6 -0.5 -8t-4 0t-3.5 6q-8 19 -56 30q-43 10 -99 15q-203 -196 -359 -249q-85 -30 -161 -30q-136 0 -188.5 40.5t-52.5 89.5q0 19 7 39q30 82 166 139zM1317 781q-18 0 -42.5 -15t-38.5 -40.5t-14 -36.5t3 -17q19 3 39 3l23 -1q20 11 37 29
q26 29 26 53.5t-33 24.5zM647 236q-133 0 -280 -28q-226 -40 -294 -119q-21 -25 -21 -47q0 -26 28 -47q33 -25 114.5 -25t176.5 27q142 44 338 237q-31 2 -62 2z" />
    <glyph glyph-name="AE" unicode="&#xc6;" horiz-adv-x="1788" 
d="M1053 278q-106 -106 -106 -187q0 -40 23 -72q42 -55 172 -65q14 -2 45 -2t88 12q148 26 290 102t209 174q13 18 13 9q0 -3 -2 -11q-27 -76 -183 -178.5t-316 -136.5q-66 -13 -106 -13t-62 2q-73 8 -120 42q-82 59 -82 147.5t55 175.5q-83 -3 -203 -11
q-107 -107 -200 -178q-178 -135 -373 -135q-117 0 -172 42q-77 60 -77 116q0 162 588 219q153 14 289 20q9 9 38 39.5t40 42t36 37t39 39t35 32.5q32 30 75.5 65t91.5 53.5t81 18.5t64 -7q27 -8 47 -26.5t27 -45.5q98 35 193 35q57 0 98 -27q44 -28 44 -82q0 -36 -20 -74
q-6 -13 -8 -7t3.5 19t5.5 29q0 46 -83 46q-103 0 -275 -72q-123 -51 -215 -115q60 -3 128 -11q231 -27 231 -86q0 -18 -17 -34.5t-22 -11.5q-2 2 -0.5 5t1.5 5q0 19 -96.5 37t-166.5 21t-145 3zM1379 591q-14 65 -102 65t-181 -73.5t-245 -231.5q62 3 180 3l4 4
q67 73 160 134t184 99zM31 69q0 -37 49 -74q33 -25 114.5 -25t176.5 27q152 47 368 267q-136 -12 -183 -17q-525 -50 -525 -178z" />
    <glyph glyph-name="Ccedilla" unicode="&#xc7;" horiz-adv-x="758" 
d="M345 325l26 -4q48 0 142.5 42.5t173.5 105.5t79 111q0 31 -30.5 43t-66.5 12q-117 0 -252 -67t-233 -158q-139 -132 -139 -240q0 -44 22 -76.5t58 -49.5q71 -32 153 -32q118 0 255.5 49.5t243.5 122.5q3 3 7 3t4 -4.5t-3 -7.5q-81 -85 -240 -149t-280 -64h-8
q-15 -2 -29.5 -17t-14.5 -27t21.5 -42t21.5 -48q0 -59 -145 -59q-5 0 -5 5.5t9.5 8t27 4t26.5 3t19 11.5q15 16 15 30t-9.5 34.5t-9.5 36t14.5 35.5t33.5 27q-91 8 -153 54.5t-62 134.5q0 135 151 272q110 98 263 169t285 71q81 0 126 -39q26 -24 26 -59q0 -49 -49.5 -98.5
t-119 -84.5t-139.5 -58q-84 -29 -143 -29q-31 0 -54 7t-23 16q0 5 5 5z" />
    <glyph glyph-name="Egrave" unicode="&#xc8;" horiz-adv-x="912" 
d="M694.5 755.5q-45.5 20.5 -62 38t-16.5 24.5t4 13t25.5 11.5t25 5.5t2 -3.5t-1.5 -8.5q0 -20 45.5 -55.5t90.5 -42.5q12 -2 14 -6q2 -7 -39.5 -2t-87 25.5zM813 528q0 46 -83 46q-103 0 -280 -73.5t-277 -165.5q-61 -57 -94 -110.5t-33 -93.5t22 -71q38 -58 171 -69
q15 -1 47 -1t89 11q148 27 290 103t209 173q13 19 13 10q0 -4 -2 -12q-27 -76 -183 -178q-229 -150 -442 -150q-124 0 -196 73q-48 47 -48 126q0 68 35 132q85 160 295 283q124 73 223 97q63 12 120 12t99 -26q44 -29 44 -82q0 -34 -20 -75q-6 -12 -8 -6t3.5 18.5t5.5 28.5z
M567 303q6 -7 6 -11.5t-1 -7.5q-6 -8 -21 2q-34 25 -109 25q-93 0 -184 -25q-39 -11 -54 -11q-23 0 -30 21q-1 1 -1 3q0 11 19 26t72 25q33 8 75 8t91 -6q104 -13 137 -49z" />
    <glyph glyph-name="Eacute" unicode="&#xc9;" horiz-adv-x="912" 
d="M892 831q4 -4 4 -12.5t-22 -27.5t-76 -38t-116 -21q-27 -2 -29 6q-1 2 4 4l12 2q52 4 110 41t58 60q0 4 -2 7.5t1.5 3.5t21 -5t34.5 -20zM813 528q0 46 -83 46q-103 0 -280 -73.5t-277 -165.5q-61 -57 -94 -110.5t-33 -93.5t22 -71q38 -58 171 -69q15 -1 47 -1t89 11
q148 27 290 103t209 173q13 19 13 10q0 -4 -2 -12q-27 -76 -183 -178q-229 -150 -442 -150q-124 0 -196 73q-48 47 -48 126q0 68 35 132q85 160 295 283q124 73 223 97q63 12 120 12t99 -26q44 -29 44 -82q0 -34 -20 -75q-6 -12 -8 -6t3.5 18.5t5.5 28.5zM567 303
q6 -7 6 -11.5t-1 -7.5q-6 -8 -21 2q-34 25 -109 25q-93 0 -184 -25q-39 -11 -54 -11q-23 0 -30 21q-1 1 -1 3q0 11 19 26t72 25q33 8 75 8t91 -6q104 -13 137 -49z" />
    <glyph glyph-name="Ecircumflex" unicode="&#xca;" horiz-adv-x="912" 
d="M813 528q0 46 -83 46q-103 0 -280 -73.5t-277 -165.5q-61 -57 -94 -110.5t-33 -93.5t22 -71q38 -58 171 -69q15 -1 47 -1t89 11q148 27 290 103t209 173q13 19 13 10q0 -4 -2 -12q-27 -76 -183 -178q-229 -150 -442 -150q-124 0 -196 73q-48 47 -48 126q0 68 35 132
q85 160 295 283q124 73 223 97q63 12 120 12t99 -26q44 -29 44 -82q0 -34 -20 -75q-6 -12 -8 -6t3.5 18.5t5.5 28.5zM258 286q-39 -11 -54 -11q-23 0 -30 21q-1 1 -1 3q0 11 19 26t72 25q33 8 75 8t91 -6q104 -13 137 -49q10 -11 4.5 -19t-20.5 2q-34 25 -118 25t-175 -25z
M755 791q-33 -27 -70 -43t-54 -16t-17 3.5t4 9.5t7.5 6h4.5q22 0 60 20t73 49q10 15 33.5 34.5t25.5 19.5t-5 -12.5t-7 -34.5t11 -44q19 -41 50 -41q4 0 11.5 1t7.5 -4q0 -6 -18.5 -10.5t-41 -4.5t-43.5 14q-32 21 -32 53z" />
    <glyph glyph-name="Edieresis" unicode="&#xcb;" horiz-adv-x="912" 
d="M802 786q12 14 22 16.5t16.5 2.5t15 -6.5t6.5 -21.5t-14 -29t-27 -17.5t-25 4.5t-8 22.5t14 28.5zM680 786q12 14 22 16.5t16.5 2.5t15 -6t7 -22t-14 -29.5t-27.5 -17t-25 4.5t-8 22.5t14 28.5zM813 528q0 46 -83 46q-103 0 -280 -73.5t-277 -165.5q-61 -57 -94 -110.5
t-33 -93.5t22 -71q38 -58 171 -69q15 -1 47 -1t89 11q148 27 290 103t209 173q13 19 13 10q0 -4 -2 -12q-27 -76 -183 -178q-229 -150 -442 -150q-124 0 -196 73q-48 47 -48 126q0 68 35 132q85 160 295 283q124 73 223 97q63 12 120 12t99 -26q44 -29 44 -82q0 -34 -20 -75
q-6 -12 -8 -6t3.5 18.5t5.5 28.5zM567 303q6 -7 6 -11.5t-1 -7.5q-6 -8 -21 2q-34 25 -109 25q-93 0 -184 -25q-39 -11 -54 -11q-23 0 -30 21q-1 1 -1 3q0 11 19 26t72 25q33 8 75 8t91 -6q104 -13 137 -49z" />
    <glyph glyph-name="Igrave" unicode="&#xcc;" horiz-adv-x="595" 
d="M630.5 724.5q-45.5 20.5 -62 38.5t-16.5 25t4 12.5t25.5 11t25 5.5t2 -3t-1.5 -8q0 -20 45.5 -56t90.5 -43q12 -2 14 -5q2 -8 -39.5 -3t-87 25.5zM752 521q0 31 -48 43t-117.5 12t-181.5 -20q-191 -35 -268 -92q-33 -24 -33 -47t32 -45q7 -4 -0.5 -4.5t-12.5 3.5
q-25 17 -36 48q-5 14 -5 31q0 61 61 95q77 45 192 71.5t217 26.5q68 0 136 -25q36 -14 54 -39t18 -53q0 -23 -5.5 -22.5t-4 6.5t1.5 11zM646 563q9 0 9 -5q0 -7 -11 -22q-148 -195 -303 -457q65 -7 114.5 -23.5t79.5 -49t30 -73.5q0 -27 -8 -26q-5 0 -3.5 7t1.5 10
q0 23 -35 42q-63 34 -184 34q-20 0 -41 -1q-51 -91 -70 -139q-5 -11 -9.5 -11t-4.5 11q0 26 59 138q-68 -6 -138 -34q-29 -11 -47 -18.5t-41 -12t-29 4.5q-8 6 -8 17.5t4.5 25t18.5 29.5q30 37 120 60q49 13 95 13t72 -2q91 154 199.5 317.5t120.5 163.5z" />
    <glyph glyph-name="Iacute" unicode="&#xcd;" horiz-adv-x="595" 
d="M854 805q2 -3 2 -11t-22.5 -27t-76.5 -38t-98.5 -20.5t-46.5 5.5q0 2 5 4l11 2q52 4 110 41t58 60q0 4 -2 7.5t1.5 3.5t23 -6.5t35.5 -20.5zM752 521q0 31 -48 43t-117.5 12t-181.5 -20q-191 -35 -268 -92q-33 -24 -33 -47t32 -45q7 -4 -0.5 -4.5t-12.5 3.5
q-25 17 -36 48q-5 14 -5 31q0 61 61 95q77 45 192 71.5t217 26.5q68 0 136 -25q36 -14 54 -39t18 -53q0 -23 -5.5 -22.5t-4 6.5t1.5 11zM646 563q9 0 9 -5q0 -7 -11 -22q-148 -195 -303 -457q65 -7 114.5 -23.5t79.5 -49t30 -73.5q0 -27 -8 -26q-5 0 -3.5 7t1.5 10
q0 23 -35 42q-63 34 -184 34q-20 0 -41 -1q-51 -91 -70 -139q-5 -11 -9.5 -11t-4.5 11q0 26 59 138q-68 -6 -138 -34q-29 -11 -47 -18.5t-41 -12t-29 4.5q-8 6 -8 17.5t4.5 25t18.5 29.5q30 37 120 60q49 13 95 13t72 -2q91 154 199.5 317.5t120.5 163.5z" />
    <glyph glyph-name="Icircumflex" unicode="&#xce;" horiz-adv-x="595" 
d="M211 -140q0 26 59 138q-68 -6 -138 -34q-29 -11 -47 -18.5t-41 -12t-29 4.5q-8 6 -8 17.5t4.5 25t18.5 29.5q30 37 120 60q49 13 95 13t72 -2q91 154 199.5 317.5t120.5 163.5q1 0 5 0.5t6 0t4.5 -1.5t2.5 -4q0 -6 -11 -21q-148 -195 -303 -457q65 -7 114.5 -23.5
t79.5 -49t30 -73.5q0 -27 -8 -26q-5 0 -3.5 7t1.5 10q0 23 -35 42q-63 34 -184 34q-20 0 -41 -1q-51 -91 -70 -139q-5 -11 -9.5 -11t-4.5 11zM752 521q0 31 -48 43t-117.5 12t-181.5 -20q-191 -35 -268 -92q-33 -24 -33 -47t32 -45q8 -5 -3 -5q-6 0 -10 4q-25 17 -36 48
q-5 14 -5 31q0 61 61 95q77 45 192 71.5t217 26.5q68 0 136 -25q36 -14 54 -39t18 -53q0 -23 -5.5 -22.5t-4 6.5t1.5 11zM569 688q-10 0 -10 3.5t3.5 9.5t7 5.5t4.5 -0.5q22 0 59.5 20t72.5 49l1 1q12 17 34.5 35t24.5 18t-5 -12t-7 -34t11 -44q20 -41 51 -41q3 0 10.5 1
t7.5 -3q0 -6 -19 -11.5t-41.5 -5.5t-41.5 13q-32 22 -33 55q-72 -59 -130 -59z" />
    <glyph glyph-name="Idieresis" unicode="&#xcf;" horiz-adv-x="595" 
d="M749.5 714.5q1.5 15.5 15.5 31.5t37 16q7 0 14.5 -6.5t7.5 -20t-13 -28.5t-28.5 -19.5t-25.5 3.5q-9 8 -7.5 23.5zM627.5 714.5q1.5 15.5 15.5 31.5t37 16q7 0 15.5 -7t6.5 -21.5t-14 -28t-27 -18t-25 3.5t-8.5 23.5zM752 521q0 31 -48 43t-117.5 12t-181.5 -20
q-191 -35 -268 -92q-33 -24 -33 -47t32 -45q7 -4 -0.5 -4.5t-12.5 3.5q-25 17 -36 48q-5 14 -5 31q0 61 61 95q77 45 192 71.5t217 26.5q68 0 136 -25q36 -14 54 -39t18 -53q0 -23 -5.5 -22.5t-4 6.5t1.5 11zM646 563q9 0 9 -5q0 -7 -11 -22q-148 -195 -303 -457
q65 -7 114.5 -23.5t79.5 -49t30 -73.5q0 -27 -8 -26q-5 0 -3.5 7t1.5 10q0 23 -35 42q-63 34 -184 34q-20 0 -41 -1q-51 -91 -70 -139q-5 -11 -9.5 -11t-4.5 11q0 26 59 138q-68 -6 -138 -34q-29 -11 -47 -18.5t-41 -12t-29 4.5q-8 6 -8 17.5t4.5 25t18.5 29.5q30 37 120 60
q49 13 95 13t72 -2q91 154 199.5 317.5t120.5 163.5z" />
    <glyph glyph-name="Eth" unicode="&#xd0;" horiz-adv-x="843" 
d="M863 472q-56 81 -213 104q-45 7 -88 7q-159 0 -312 -57q-116 -43 -176 -100q-39 -35 -39 -66q0 -19 10 -32t5 -16t-10 2q-25 29 -25 73q0 72 57 118q78 62 217.5 103.5t262.5 41.5t202 -34q156 -66 156 -227q0 -131 -115 -251q-136 -141 -391 -184q-77 -13 -140 -13
q-219 0 -265 90q-5 10 -5 12q0 8 16 -4q60 -42 196.5 -42t279 40.5t245.5 118.5q77 58 117 117q42 62 42 110.5t-27 88.5zM450 549q1 1 4 1h11q7 0 7 -3q0 -7 -8 -15q-49 -54 -166 -211q126 18 157 18q10 1 9.5 -7.5t-10.5 -10.5q-141 -27 -186 -42q-79 -110 -111 -196
q-3 -8 -6 -8t-7.5 4t-0.5 22q13 54 93 167q-14 -5 -40 -12q-53 -16 -101 -31q-6 -2 -6 10q0 28 20 45q92 23 161 36q9 12 27 37q137 188 153 196z" />
    <glyph glyph-name="Ntilde" unicode="&#xd1;" horiz-adv-x="585" 
d="M-63 -140q-5 -11 -9 -11t-4 10q0 58 176 338.5t236 351.5q26 82 59 107q7 5 21.5 5t47 -13t32.5 -31q0 -8 -8 -14q-45 -38 -70 -143t-25 -214q0 -130 30 -203q41 106 187.5 352.5t163.5 246.5q1 0 9 1q31 4 31 -5q0 -4 -7 -16q-102 -133 -212 -310t-162 -291
q20 -33 47 -46q12 -6 23 -6t17 3.5t8 2t2 -4.5t-2 -5q-23 -17 -42 -17q-60 0 -102 57.5t-63 143.5t-21 163q0 86 19 172q-107 -145 -223 -334.5t-159 -289.5zM734 733q34 0 45 25q11 -1 11 -12q0 -15 -22 -33q-35 -26 -62.5 -26t-42.5 9.5t-33 22.5q-20 14 -31 14
q-25 0 -55 -32q-9 -9 -11.5 -6t-2.5 5t5 7q56 56 93 56t61.5 -10.5t30.5 -15t14 -4.5z" />
    <glyph glyph-name="Ograve" unicode="&#xd2;" horiz-adv-x="600" 
d="M530.5 730.5q-45.5 20.5 -62 38.5t-16.5 25t4.5 13t26 11.5t25 5.5t1.5 -4t-2 -9q0 -20 45 -55.5t90 -42.5q14 -2 14 -7.5t-40 -0.5t-85.5 25.5zM641.5 337.5q-40.5 -85.5 -110.5 -174.5q-87 -110 -207 -175q-62 -33 -127 -33q-89 0 -142 63q-45 53 -45 125q0 100 73 218
q54 86 132.5 153.5t130 84t89 16.5t64.5 -25q30 -27 30 -80q0 -31 -11 -64q-4 -12 -7 -6t0.5 17.5t3.5 24.5q0 44 -52 44q-75 0 -186.5 -72t-167.5 -149q-77 -106 -77 -191q0 -93 104 -110q15 -3 31 -3q55 0 133 28q141 50 227 158q115 143 115 318q0 14 -1.5 45t-14.5 58
q-22 46 -52 37q-5 -2 -5 1q1 12 25 12t48 -20q40 -32 40 -123.5t-40.5 -177z" />
    <glyph glyph-name="Oacute" unicode="&#xd3;" horiz-adv-x="600" 
d="M677 794q2 -3 2 -10.5t-22.5 -26.5t-76.5 -38.5t-98.5 -21t-46.5 5.5q-1 6 16 7q51 3 109.5 40.5t58.5 60.5q0 4 -2 7.5t1.5 3.5t23.5 -7t35 -21zM641.5 337.5q-40.5 -85.5 -110.5 -174.5q-87 -110 -207 -175q-62 -33 -127 -33q-89 0 -142 63q-45 53 -45 125
q0 100 73 218q54 86 132.5 153.5t130 84t89 16.5t64.5 -25q30 -27 30 -80q0 -31 -11 -64q-4 -12 -7 -6t0.5 17.5t3.5 24.5q0 44 -52 44q-75 0 -186.5 -72t-167.5 -149q-77 -106 -77 -191q0 -93 104 -110q15 -3 31 -3q55 0 133 28q141 50 227 158q115 143 115 318
q0 14 -1.5 45t-14.5 58q-22 46 -52 37q-5 -2 -5 1q1 12 25 12t48 -20q40 -32 40 -123.5t-40.5 -177z" />
    <glyph glyph-name="Ocircumflex" unicode="&#xd4;" horiz-adv-x="600" 
d="M641.5 337.5q-40.5 -85.5 -110.5 -174.5q-87 -110 -207 -175q-62 -33 -127 -33q-89 0 -142 63q-45 53 -45 125q0 100 73 218q54 86 132.5 153.5t130 84t89 16.5t64.5 -25q30 -27 30 -80q0 -31 -11 -64q-4 -12 -7 -6t0.5 17.5t3.5 24.5q0 44 -52 44q-75 0 -186.5 -72
t-167.5 -149q-77 -106 -77 -191q0 -93 104 -110q15 -3 31 -3q55 0 133 28q141 50 227 158q115 143 115 318q0 14 -1.5 45t-14.5 58q-22 46 -52 37q-5 -2 -5 1q1 12 25 12t48 -20q40 -32 40 -123.5t-40.5 -177zM729 707q3 0 10.5 1t7.5 -3q0 -5 -19 -10.5t-41.5 -5.5
t-42.5 14q-32 22 -31 54q-33 -27 -70 -43t-63 -16h-3q-5 0 -5 3t3.5 9t7 6h4.5q22 0 60 20t74 49q10 16 33 35t25 19t-4.5 -13t-6.5 -28q0 -46 21.5 -68.5t39.5 -22.5z" />
    <glyph glyph-name="Otilde" unicode="&#xd5;" horiz-adv-x="600" 
d="M641.5 337.5q-40.5 -85.5 -110.5 -174.5q-87 -110 -207 -175q-62 -33 -127 -33q-89 0 -142 63q-45 53 -45 125q0 100 73 218q54 86 132.5 153.5t130 84t89 16.5t64.5 -25q30 -27 30 -80q0 -31 -11 -64q-4 -12 -7 -6t0.5 17.5t3.5 24.5q0 44 -52 44q-75 0 -186.5 -72
t-167.5 -149q-77 -106 -77 -191q0 -93 104 -110q15 -3 31 -3q55 0 133 28q141 50 227 158q115 143 115 318q0 14 -1.5 45t-14.5 58q-22 46 -52 37q-5 -2 -5 1q1 12 25 12t48 -20q40 -32 40 -123.5t-40.5 -177z" />
    <glyph glyph-name="Odieresis" unicode="&#xd6;" horiz-adv-x="600" 
d="M677 780q25 0 25 -27q0 -15 -13 -29.5t-28.5 -18.5t-25.5 4t-8 23t14 29q16 19 36 19zM505.5 732q1.5 16 15.5 32t37 16q7 0 15.5 -7t6.5 -21.5t-14 -28.5t-27.5 -18t-25 3.5t-8 23.5zM641.5 337.5q-40.5 -85.5 -110.5 -174.5q-87 -110 -207 -175q-62 -33 -127 -33
q-89 0 -142 63q-45 53 -45 125q0 100 73 218q54 86 132.5 153.5t130 84t89 16.5t64.5 -25q30 -27 30 -80q0 -31 -11 -64q-4 -12 -7 -6t0.5 17.5t3.5 24.5q0 44 -52 44q-75 0 -186.5 -72t-167.5 -149q-77 -106 -77 -191q0 -93 104 -110q15 -3 31 -3q55 0 133 28
q141 50 227 158q115 143 115 318q0 14 -1.5 45t-14.5 58q-22 46 -52 37q-5 -2 -5 1q1 12 25 12t48 -20q40 -32 40 -123.5t-40.5 -177z" />
    <glyph glyph-name="multiply" unicode="&#xd7;" horiz-adv-x="310" 
d="M143 186q126 112 154 112q7 0 11 -3.5t4 -7t-22 -18.5q-51 -33 -139 -111q11 -50 31 -91q31 -61 70 -61q21 0 30 12q2 2 4 0.5t0 -3.5q-15 -20 -40 -20q-99 0 -153 109q-91 -87 -100 -97.5t-14 -8t-5 5t3 6.5q24 36 106 117h-1q-23 61 -23 93t9 47.5t36 27.5t32 12
q7 0 2 -12.5t-5 -29.5q0 -58 10 -79z" />
    <glyph glyph-name="Oslash" unicode="&#xd8;" horiz-adv-x="600" 
d="M641.5 337.5q-40.5 -85.5 -110.5 -174.5q-87 -110 -207 -175q-62 -33 -127 -33q-89 0 -142 63q-45 53 -45 125q0 100 73 218q54 86 132.5 153.5t130 84t89 16.5t64.5 -25q30 -27 30 -80q0 -31 -11 -64q-4 -12 -7 -6t0.5 17.5t3.5 24.5q0 44 -52 44q-75 0 -186.5 -72
t-167.5 -149q-77 -106 -77 -191q0 -93 104 -110q15 -3 31 -3q55 0 133 28q141 50 227 158q115 143 115 318q0 14 -1.5 45t-14.5 58q-22 46 -52 37q-5 -2 -5 1q1 12 25 12t48 -20q40 -32 40 -123.5t-40.5 -177z" />
    <glyph glyph-name="Ugrave" unicode="&#xd9;" horiz-adv-x="674" 
d="M613.5 584.5q-45.5 20.5 -62 38.5t-16.5 25t4 13t25.5 11.5t25.5 5.5t2 -4t-2 -9q0 -20 45 -55.5t91 -42.5q12 -2 13 -5q2 -7 -26 -5q-54 7 -99.5 27.5zM770 452q-182 -318 -194 -510q-2 -23 -2 -41.5t10 -43.5q12 -31 44 -31q15 0 24.5 8.5t10 4t-5.5 -9.5
q-15 -14 -44 -14h-7q-101 8 -101 124q0 46 16 110q11 38 42 97q-102 -133 -188 -175q-31 -14 -55 -14t-42 19.5t-18 45t7.5 58t66.5 188.5q74 195 74 243q0 67 -87 67t-204 -58q-38 -18 -52.5 -30t-21.5 -12q-11 0 -17.5 15t-6.5 29.5t7.5 26.5t13.5 17q47 38 166 58
q60 11 122 11t108.5 -26t46.5 -77q0 -12 -3 -26q-10 -50 -91 -205.5t-96 -200t-15 -68t10.5 -38.5t32.5 -15t59 19.5t76.5 55t67.5 68t65.5 86t54.5 82.5q69 112 97 160q10 17 16.5 17t10 -3.5t3.5 -6.5t-1 -5z" />
    <glyph glyph-name="Uacute" unicode="&#xda;" horiz-adv-x="674" 
d="M799 643q0 -13 -22.5 -32t-76.5 -38t-116 -21q-27 -2 -29 6q-1 2 4 4l12 2q52 4 110 41t58 60q0 4 -2 7.5t1.5 3.5t23 -6.5t35.5 -20.5q2 -3 2 -6zM770 452q-182 -318 -194 -510q-2 -23 -2 -41.5t10 -43.5q12 -31 44 -31q15 0 24.5 8.5t10 4t-5.5 -9.5q-15 -14 -44 -14
h-7q-101 8 -101 124q0 46 16 110q11 38 42 97q-102 -133 -188 -175q-31 -14 -55 -14t-42 19.5t-18 45t7.5 58t66.5 188.5q74 195 74 243q0 67 -87 67t-204 -58q-38 -18 -52.5 -30t-21.5 -12q-11 0 -17.5 15t-6.5 29.5t7.5 26.5t13.5 17q47 38 166 58q60 11 122 11t108.5 -26
t46.5 -77q0 -12 -3 -26q-10 -50 -91 -205.5t-96 -200t-15 -68t10.5 -38.5t32.5 -15t59 19.5t76.5 55t67.5 68t65.5 86t54.5 82.5q69 112 97 160q10 17 16.5 17t10 -3.5t3.5 -6.5t-1 -5z" />
    <glyph glyph-name="Ucircumflex" unicode="&#xdb;" horiz-adv-x="674" 
d="M770 452q-182 -318 -194 -510q-2 -23 -2 -41.5t10 -43.5q12 -31 44 -31q15 0 24.5 8.5t10 4t-5.5 -9.5q-15 -14 -44 -14h-7q-101 8 -101 124q0 46 16 110q11 38 42 97q-102 -133 -188 -175q-31 -14 -55 -14t-42 19.5t-18 45t7.5 58t66.5 188.5q74 195 74 243q0 67 -87 67
t-204 -58q-38 -18 -52.5 -30t-21.5 -12q-11 0 -17.5 15t-6.5 29.5t7.5 26.5t13.5 17q47 38 166 58q60 11 122 11t108.5 -26t46.5 -77q0 -12 -3 -26q-10 -50 -91 -205.5t-96 -200t-15 -68t10.5 -38.5t32.5 -15t59 19.5t76.5 55t67.5 68t65.5 86t54.5 82.5q69 112 97 160
q10 17 16.5 17t11 -4.5t1.5 -10.5zM667 643q-33 -28 -70 -44t-54 -16t-17 3.5t4 9.5t7.5 5.5t4.5 -0.5q21 0 58.5 19.5t72.5 47.5q14 20 36.5 38t24.5 18t-5.5 -12.5t-7.5 -34t11 -43.5q20 -41 51 -41q3 0 10.5 1t7.5 -3q0 -6 -19 -11.5t-41.5 -5.5t-42.5 14q-31 22 -31 55z
" />
    <glyph glyph-name="Udieresis" unicode="&#xdc;" horiz-adv-x="674" 
d="M703 636q12 14 22 16.5t16.5 2.5t15 -6t7 -22t-14 -29.5t-27.5 -17t-25 4.5t-8 22.5t14 28.5zM581 636q12 14 22 16.5t16.5 2.5t15 -6t7 -22t-13.5 -29.5t-27.5 -17t-25.5 4.5t-8 22.5t14 28.5zM770 452q-182 -318 -194 -510q-2 -23 -2 -41.5t10 -43.5q12 -31 44 -31
q15 0 24.5 8.5t10 4t-5.5 -9.5q-15 -14 -44 -14h-7q-101 8 -101 124q0 46 16 110q11 38 42 97q-102 -133 -188 -175q-31 -14 -55 -14t-42 19.5t-18 45t7.5 58t66.5 188.5q74 195 74 243q0 67 -87 67t-204 -58q-38 -18 -52.5 -30t-21.5 -12q-11 0 -17.5 15t-6.5 29.5
t7.5 26.5t13.5 17q47 38 166 58q60 11 122 11t108.5 -26t46.5 -77q0 -12 -3 -26q-10 -50 -91 -205.5t-96 -200t-15 -68t10.5 -38.5t32.5 -15t59 19.5t76.5 55t67.5 68t65.5 86t54.5 82.5q69 112 97 160q10 17 16.5 17t10 -3.5t3.5 -6.5t-1 -5z" />
    <glyph glyph-name="Yacute" unicode="&#xdd;" horiz-adv-x="912" 
d="M880 755q2 -3 2 -10.5t-22.5 -26.5t-76.5 -38.5t-98.5 -21t-45.5 5.5q-2 5 6.5 6t9.5 1q52 4 109.5 41t57.5 60q0 4 -2 7.5t1.5 3.5t23.5 -7t35 -21zM543 412q-15 -27 -75 -128t-91 -164.5t-31 -94.5t25 -31q28 0 86 49.5t107 106.5t70 88q162 235 200 362q7 23 15 25
q9 8 14 -6q19 -51 19 -130.5t-32 -201.5q-55 -216 -141 -332q-67 -91 -153 -147.5t-175.5 -56.5t-150 52t-74.5 162q-1 8 1.5 11t6 0t4.5 -9q13 -84 63.5 -137t117.5 -53q97 0 201 119q178 203 250 421q47 140 47 238v19q-24 -81 -81 -183q-81 -143 -181 -251
q-156 -168 -231 -168q-38 0 -38 40q0 27 19 76.5t41 91.5q42 81 93.5 167.5t62 122t10.5 55.5q0 73 -107 73t-287 -60q-124 -43 -124 -79q0 -13 18 -26q5 -3 -1 -3.5t-10 2.5q-22 15 -22 40q0 56 61 92q73 42 177 68q112 29 203 29q142 0 150 -76v-20.5t-5 -34t-21 -56.5
t-31 -62z" />
    <glyph glyph-name="Thorn" unicode="&#xde;" horiz-adv-x="539" 
d="M436 457q54 7 95 7t87.5 -13t73.5 -43q34 -39 34 -94q0 -74 -66 -149q-38 -43 -92 -75q-83 -48 -200 -84t-200 -36q-22 0 -43 2q-90 -133 -113 -191q-6 -17 -20 -17q-7 0 -7 10q0 39 107 203q-40 10 -66 31q-30 24 -30 50t18 43q8 7 8.5 1.5t-5.5 -14t-6 -17.5
q0 -61 91 -79q34 51 121 187.5t121 188.5q-190 -45 -260 -105q-17 -13 -12 -21.5t2 -9.5t-8 3q-21 13 -27 31t-6 26.5t5 13.5q31 46 135 85.5t226 59.5q122 184 129 184q4 0 8 -9t3 -13q-46 -67 -103 -156zM158 -13q89 0 211 40t185 82.5t93 86t30 80.5t-23 66
q-40 50 -144 50q-60 0 -124 -15q-209 -333 -249 -389q10 -1 21 -1z" />
    <glyph glyph-name="germandbls" unicode="&#xdf;" horiz-adv-x="643" 
d="M704 565q0 -41 -48 -84q-75 -68 -198 -111q-22 -7 -22 -15q2 -7 19 -8q83 -3 132 -30q59 -33 59 -93q0 -79 -80 -155q-133 -127 -344 -127q-55 0 -97.5 11.5t-55.5 20t-31.5 23.5t-8.5 15q5 0 30 -9t92.5 -9t144.5 15.5t132 46.5t87 70q39 47 39 95q0 26 -14 53t-56 41.5
t-75 14.5t-51 -2t-18 12q1 19 34 32l19 6q246 60 246 166q0 87 -117 87q-61 0 -124 -49q-139 -109 -418 -602q-44 -78 -55 -91l-24 -27q-18 -20 -47 -32q-4 -1 -9 -1t-8 3.5t-3 5.5q0 6 12 12q44 20 130 173q18 31 60 109q93 175 133 235.5t51 77.5t38 52.5t45 54t47.5 44.5
t55.5 40q66 33 131 33q167 0 167 -104z" />
    <glyph glyph-name="agrave" unicode="&#xe0;" horiz-adv-x="482" 
d="M283.5 367.5q-45.5 20.5 -62 38t-16.5 24.5t4 13t25.5 11.5t25 5.5t2 -3.5t-1.5 -8.5q0 -20 45.5 -55.5t90.5 -42.5q12 -2 14 -6q2 -8 -39.5 -2.5t-87 26zM344.5 126q-11.5 -15 -29 -41t-17.5 -44t15.5 -18t50.5 19q70 40 155 120q10 10 13 3v-4t-4 -7
q-172 -162 -250 -162q-23 0 -38.5 15.5t-15.5 36.5t18 64q-45 -56 -96.5 -86.5t-80.5 -30.5t-49.5 17.5t-20.5 43.5q0 74 66 145q50 53 124 75q33 11 64.5 11t61 -17.5t37.5 -41.5q30 0 43 -22q2 -3 2 -10t-7.5 -16t-18.5 -22t-22.5 -28zM294 253q-21 0 -50 -13
q-51 -22 -97 -76q-73 -86 -73 -126q0 -21 17 -21q14 0 46.5 18t85.5 71q3 3 23 22t34 33q47 49 47 70.5t-33 21.5z" />
    <glyph glyph-name="aacute" unicode="&#xe1;" horiz-adv-x="482" 
d="M448 428q4 -4 4 -12.5t-22.5 -27.5t-76.5 -38t-98.5 -20.5t-45.5 5.5q-2 6 16 7q52 3 109.5 40t57.5 60q0 5 -1.5 8.5t1.5 3.5t21 -5.5t35 -20.5zM344.5 126q-11.5 -15 -29 -41t-17.5 -44t15.5 -18t50.5 19q70 40 155 120q10 10 13 3v-4t-4 -7q-172 -162 -250 -162
q-23 0 -38.5 15.5t-15.5 36.5t18 64q-45 -56 -96.5 -86.5t-80.5 -30.5t-49.5 17.5t-20.5 43.5q0 74 66 145q50 53 124 75q33 11 64.5 11t61 -17.5t37.5 -41.5q30 0 43 -22q2 -3 2 -10t-7.5 -16t-18.5 -22t-22.5 -28zM294 253q-21 0 -50 -13q-51 -22 -97 -76
q-73 -86 -73 -126q0 -21 17 -21q14 0 46.5 18t85.5 71q3 3 23 22t34 33q47 49 47 70.5t-33 21.5z" />
    <glyph glyph-name="acircumflex" unicode="&#xe2;" horiz-adv-x="482" 
d="M344.5 126q-11.5 -15 -29 -41t-17.5 -44t15.5 -18t50.5 19q70 40 155 120q10 10 13 3v-4t-4 -7q-172 -162 -250 -162q-23 0 -38.5 15.5t-15.5 36.5t18 64q-45 -56 -96.5 -86.5t-80.5 -30.5t-49.5 17.5t-20.5 43.5q0 74 66 145q50 53 124 75q33 11 64.5 11t61 -17.5
t37.5 -41.5q30 0 43 -22q2 -3 2 -10t-7.5 -16t-18.5 -22t-22.5 -28zM74 38q0 -21 17 -21q14 0 46.5 18t85.5 71q3 3 23 22t33.5 33t23 25.5t17.5 24.5q12 23 0 35q-11 7 -29 7t-47 -13q-51 -22 -97 -76q-73 -86 -73 -126zM431 349q3 0 10.5 1t7.5 -3q0 -5 -19 -10.5
t-41.5 -5.5t-42.5 13q-31 22 -31 55q-33 -27 -70 -43t-63 -16h-3q-5 0 -5 3t4 9t7.5 6h4.5q22 0 59 19t72 48q0 1 2 3q11 16 33.5 34.5t24.5 18.5t-4.5 -13t-6.5 -28q0 -46 21.5 -68.5t39.5 -22.5z" />
    <glyph glyph-name="atilde" unicode="&#xe3;" horiz-adv-x="482" 
d="M428 362q-36 -27 -78 -27q-13 0 -27.5 9.5t-32.5 22.5q-20 14 -32 14q-23 0 -54 -31q-8 -9 -11.5 -4.5t2.5 10.5q59 56 94.5 56t58 -10.5t33 -15.5t18 -5t15.5 3q19 10 25 23q9 -2 11 -9q3 -16 -22 -36zM344.5 126q-11.5 -15 -29 -41t-17.5 -44t15.5 -18t50.5 19
q70 40 155 120q10 10 13 3v-4t-4 -7q-172 -162 -250 -162q-23 0 -38.5 15.5t-15.5 36.5t18 64q-45 -56 -96.5 -86.5t-80.5 -30.5t-49.5 17.5t-20.5 43.5q0 74 66 145q50 53 124 75q33 11 64.5 11t61 -17.5t37.5 -41.5q30 0 43 -22q2 -3 2 -10t-7.5 -16t-18.5 -22t-22.5 -28z
M294 253q-21 0 -50 -13q-51 -22 -97 -76q-73 -86 -73 -126q0 -21 17 -21q14 0 46.5 18t85.5 71q3 3 23 22t34 33q47 49 47 70.5t-33 21.5z" />
    <glyph glyph-name="adieresis" unicode="&#xe4;" horiz-adv-x="482" 
d="M371 385q16 19 38 19q7 0 15.5 -7t6.5 -21.5t-14 -28t-27 -18t-25 3.5t-8.5 23.5t14.5 28.5zM249 385q12 14 22 16.5t16.5 2.5t15 -6.5t7 -22t-14 -28.5t-27.5 -17.5t-25 3.5t-8 23t14 29zM344.5 126q-11.5 -15 -29 -41t-17.5 -44t15.5 -18t50.5 19q70 40 155 120
q10 10 13 3v-4t-4 -7q-172 -162 -250 -162q-23 0 -38.5 15.5t-15.5 36.5t18 64q-45 -56 -96.5 -86.5t-80.5 -30.5t-49.5 17.5t-20.5 43.5q0 74 66 145q50 53 124 75q33 11 64.5 11t61 -17.5t37.5 -41.5q30 0 43 -22q2 -3 2 -10t-7.5 -16t-18.5 -22t-22.5 -28zM294 253
q-21 0 -50 -13q-51 -22 -97 -76q-73 -86 -73 -126q0 -21 17 -21q14 0 46.5 18t85.5 71q3 3 23 22t34 33q47 49 47 70.5t-33 21.5z" />
    <glyph glyph-name="aring" unicode="&#xe5;" horiz-adv-x="482" 
d="M362 491q60 0 60 -48q0 -35 -35 -72.5t-93 -54.5q-21 -6 -36 -6q-33 0 -38 29q-7 35 26 79q21 28 42 46q34 27 74 27zM344.5 126q-11.5 -15 -29 -41t-17.5 -44t15.5 -18t50.5 19q70 40 155 120q10 10 13 3v-4t-4 -7q-172 -162 -250 -162q-23 0 -38.5 15.5t-15.5 36.5
t18 64q-45 -56 -96.5 -86.5t-80.5 -30.5t-49.5 17.5t-20.5 43.5q0 74 66 145q50 53 124 75q33 11 64.5 11t61 -17.5t37.5 -41.5q30 0 43 -22q2 -3 2 -10t-7.5 -16t-18.5 -22t-22.5 -28zM333 451q-29 0 -61 -34t-32 -60.5t23 -26.5q12 0 34 9t45 33q26 28 26 49.5t-10 23.5
q-12 6 -25 6zM294 253q-21 0 -50 -13q-51 -22 -97 -76q-73 -86 -73 -126q0 -21 17 -21q14 0 46.5 18t85.5 71q3 3 23 22t34 33q47 49 47 70.5t-33 21.5z" />
    <glyph glyph-name="ae" unicode="&#xe6;" horiz-adv-x="586" 
d="M532 216q0 29 -36 29q-53 0 -123 -82q-55 -65 -55 -109q0 -19 15.5 -31.5t44.5 -12.5q48 0 121.5 51t122.5 100q12 11 12 0q0 -7 -6 -13q-94 -85 -137 -113q-76 -51 -144 -52q-16 -2 -31 -2q-44 0 -67.5 20t-23.5 43q0 22 17 64q-45 -56 -96.5 -86.5t-80.5 -30.5
t-49.5 17.5t-20.5 43.5q0 74 66 145q50 53 124 75q33 11 64.5 11t58 -15.5t36.5 -33.5q65 42 132 42q57 0 76 -24q8 -12 8 -25.5t-9 -29.5q-18 -31 -67.5 -54.5t-93.5 -23.5q-17 0 -19 3t2 5l12 1q40 0 93.5 28.5t53.5 59.5zM294 253q-21 0 -50 -13q-51 -22 -97 -76
q-73 -86 -73 -126q0 -21 17 -21q14 0 46.5 18t85.5 71q3 3 23 22t34 33q47 49 47 70.5t-33 21.5z" />
    <glyph glyph-name="ccedilla" unicode="&#xe7;" horiz-adv-x="342" 
d="M290 237q0 19 -20 19q-17 0 -52.5 -15.5t-79.5 -66.5q-53 -63 -53 -112q0 -37 28 -50q9 -4 21 -4q41 0 96.5 35t143.5 116q14 14 14 0q0 -6 -6 -11q-122 -112 -180 -138.5t-103 -26.5q-12 0 -24 2q-22 -16 -22 -37q0 -10 21.5 -40.5t21.5 -48.5q0 -4 -1 -7
q-13 -51 -144 -51q-5 0 -5 4q0 10 26 12.5t35.5 4.5t19.5 12q16 16 16 30t-9.5 33.5t-9.5 28.5q0 39 34 63q-62 16 -62 79q0 85 76.5 146.5t159.5 61.5q52 0 70 -24q11 -12 11 -25.5t-7 -28t-22.5 -14.5t-4.5 19.5t11 33.5z" />
    <glyph glyph-name="egrave" unicode="&#xe8;" horiz-adv-x="342" 
d="M187.5 367.5q-45.5 20.5 -62 38t-16.5 24.5t4 13t25.5 11.5t25 5.5t3.5 -3q-3 -5 -3 -10q0 -20 45.5 -55t90.5 -42q12 -2 13 -5q2 -9 -39 -3.5t-86.5 26zM233 156q53 29 53 59t-36 30q-17 0 -36 -9q-42 -19 -81 -66q-48 -58 -48 -108q0 -19 10.5 -35.5t37.5 -16.5
q47 0 119 49.5t124 99.5q12 12 12 1q0 -7 -6 -12q-37 -34 -49.5 -45.5t-49.5 -41t-60 -41.5q-71 -37 -120.5 -37t-78 22.5t-28.5 62.5q0 85 76 146.5t159 61.5q56 0 75 -24q8 -12 8 -25.5t-9 -29.5q-18 -31 -67.5 -54.5t-93.5 -23.5q-17 0 -18.5 3t2.5 4.5t11 1.5
q40 0 94 28z" />
    <glyph glyph-name="eacute" unicode="&#xe9;" horiz-adv-x="342" 
d="M402 426q2 -3 2 -11t-22.5 -27t-76.5 -38t-98.5 -20.5t-46.5 5.5q0 3 5 5l11 2q33 2 75.5 21.5t67.5 42t25 37.5q0 4 -1.5 7.5t1.5 3.5t23 -7t35 -21zM233 156q53 29 53 59t-36 30q-17 0 -36 -9q-42 -19 -81 -66q-48 -58 -48 -108q0 -19 10.5 -35.5t37.5 -16.5
q47 0 119 49.5t124 99.5q12 12 12 1q0 -7 -6 -12q-37 -34 -49.5 -45.5t-49.5 -41t-60 -41.5q-71 -37 -120.5 -37t-78 22.5t-28.5 62.5q0 85 76 146.5t159 61.5q56 0 75 -24q8 -12 8 -25.5t-9 -29.5q-18 -31 -67.5 -54.5t-93.5 -23.5q-17 0 -18.5 3t2.5 4.5t11 1.5
q40 0 94 28z" />
    <glyph glyph-name="ecircumflex" unicode="&#xea;" horiz-adv-x="342" 
d="M233 156q53 29 53 59t-36 30q-17 0 -36 -9q-42 -19 -81 -66q-48 -58 -48 -108q0 -19 10.5 -35.5t37.5 -16.5q47 0 119 49.5t124 99.5q12 12 12.5 3.5t-6.5 -14.5q-37 -34 -49.5 -45.5t-49.5 -41t-60 -41.5q-71 -37 -120.5 -37t-78 22.5t-28.5 62.5q0 85 76 146.5
t159 61.5q56 0 75 -24q8 -12 8 -25.5t-9 -29.5q-18 -31 -67.5 -54.5t-93.5 -23.5q-17 0 -18.5 3t2.5 4.5t11 1.5q40 0 94 28zM470 349q-42 -6 -69 -12t-49.5 -6t-41.5 13q-32 21 -33 54q-73 -58 -130 -58q-11 0 -11 3t4 9t7.5 6h4.5q22 0 59 19t72 48q0 1 2 3q14 19 35.5 36
t23.5 17t-2 -7t-4 -21t20 -40.5t55 -45t57 -18.5z" />
    <glyph glyph-name="edieresis" unicode="&#xeb;" horiz-adv-x="342" 
d="M323 385q12 14 22 16.5t16.5 2.5t15 -6.5t7 -22t-14 -28.5t-27.5 -17.5t-25 3.5t-8 23t14 29zM201 385q12 14 22 16.5t16.5 2.5t15 -6.5t7 -22t-13.5 -28.5t-27.5 -17.5t-25.5 3.5t-8 23t14 29zM233 156q53 29 53 59t-36 30q-17 0 -36 -9q-42 -19 -81 -66
q-48 -58 -48 -108q0 -19 10.5 -35.5t37.5 -16.5q47 0 119 49.5t124 99.5q12 12 12 1q0 -7 -6 -12q-37 -34 -49.5 -45.5t-49.5 -41t-60 -41.5q-71 -37 -120.5 -37t-78 22.5t-28.5 62.5q0 85 76 146.5t159 61.5q56 0 75 -24q8 -12 8 -25.5t-9 -29.5q-18 -31 -67.5 -54.5
t-93.5 -23.5q-17 0 -18.5 3t2.5 4.5t11 1.5q40 0 94 28z" />
    <glyph glyph-name="igrave" unicode="&#xec;" horiz-adv-x="272" 
d="M142.5 360.5q-45.5 20.5 -62 38.5t-16.5 25t4 13t25.5 11.5t25.5 5.5t2 -4t-2 -9q0 -20 45 -55t91 -42q12 -2 13 -6q2 -8 -39 -3t-86.5 25.5zM189 252q-41 -42 -68.5 -106.5t-27.5 -90.5t20.5 -26t68 30t108.5 85q13 12 13 -3q0 -2 -2 -4q-48 -42 -81 -69t-78.5 -51.5
t-74.5 -24.5q-36 0 -53.5 16t-17.5 35q0 36 13 57t44 58q-11 -9 -34.5 -30t-32.5 -28t-9 4q0 7 16 20t69.5 66t73 63t32 10t18.5 -3.5t3 -7.5z" />
    <glyph glyph-name="iacute" unicode="&#xed;" horiz-adv-x="272" 
d="M385 428q4 -4 4 -12.5t-22.5 -27.5t-76.5 -38t-98.5 -20.5t-46.5 5.5q0 3 5 5l11 2q33 2 75.5 21.5t67.5 42t25 37.5q0 4 -1.5 7.5t1.5 3.5t21 -5.5t35 -20.5zM189 252q-41 -42 -68.5 -106.5t-27.5 -90.5t20.5 -26t68 30t108.5 85q13 12 13 -3q0 -2 -2 -4
q-48 -42 -81 -69t-78.5 -51.5t-74.5 -24.5q-36 0 -53.5 16t-17.5 35q0 36 13 57t44 58q-11 -9 -34.5 -30t-32.5 -28t-9 4q0 7 16 20t69.5 66t73 63t32 10t18.5 -3.5t3 -7.5z" />
    <glyph glyph-name="icircumflex" unicode="&#xee;" horiz-adv-x="272" 
d="M189 252q-41 -42 -68.5 -106.5t-27.5 -90.5t20.5 -26t68 30t108.5 85q10 9 13 -1q1 -4 -2 -6q-48 -42 -81 -69t-78.5 -51.5t-74.5 -24.5q-36 0 -53.5 16t-17.5 35q0 36 13 57t44 58q-11 -9 -34.5 -30t-32.5 -28t-9 4q0 7 16 20t69.5 66t73 63t32 10t18.5 -3.5t3 -7.5z
M321 349q4 0 11.5 1t7.5 -3q0 -5 -19 -10.5t-41.5 -5.5t-42.5 13q-32 22 -32 55q-33 -27 -70 -43t-63 -16q-8 0 -8 3t4 9t7.5 6h4.5q22 0 59 19t72 48q0 1 2 3q11 16 34 34.5t25 18.5t-5 -12.5t-7 -34.5t11 -44q19 -41 50 -41z" />
    <glyph glyph-name="idieresis" unicode="&#xef;" horiz-adv-x="272" 
d="M252 385q12 14 22 16.5t16.5 2.5t14.5 -6t8 -21t-13 -29t-28.5 -18.5t-25.5 3.5t-8 23t14 29zM130 385q12 14 22 16.5t16.5 2.5t15 -6.5t7 -22t-13.5 -28.5t-27.5 -17.5t-25.5 3.5t-8 23t14 29zM189 252q-41 -42 -68.5 -106.5t-27.5 -90.5t20.5 -26t68 30t108.5 85
q13 12 13 -3q0 -2 -2 -4q-48 -42 -81 -69t-78.5 -51.5t-74.5 -24.5q-36 0 -53.5 16t-17.5 35q0 36 13 57t44 58q-11 -9 -34.5 -30t-32.5 -28t-9 4q0 7 16 20t69.5 66t73 63t32 10t18.5 -3.5t3 -7.5z" />
    <glyph glyph-name="eth" unicode="&#xf0;" horiz-adv-x="400" 
d="M-60 493q0 58 80 58q53 0 97 -26t90 -84q37 0 105 -8q6 -1 9 -5.5t1 -8.5t-9 -4q-44 -1 -82 -6q21 -29 65 -98t57 -92.5t26.5 -59.5t13.5 -63t-15 -56.5t-49 -52.5q-17 -12 -41.5 -12t-57.5 15q-62 29 -114 90q-69 81 -69 151q0 38 27 60q18 11 40 11t47 -10
q51 -21 101 -71q-17 29 -48 90.5t-46 88.5q-98 -17 -110 -19q-10 -2 -6.5 25t14.5 28q42 4 77 6q-50 72 -108 84q-10 4 -22 4q-52 0 -52 -35q0 -7 -5.5 -9.5t-10.5 0t-5 9.5zM304 148.5q-36 55.5 -79 77.5q-25 13 -41 13q-47 0 -47 -54t36 -109.5t79 -77.5q24 -13 40 -13
q48 0 48 54t-36 109.5z" />
    <glyph glyph-name="ntilde" unicode="&#xf1;" horiz-adv-x="428" 
d="M428 362q-36 -27 -78 -27q-13 0 -27.5 9.5t-32.5 22.5q-20 14 -32 14q-23 0 -54 -31q-8 -9 -11.5 -4.5t2.5 10.5q59 56 94.5 56t58 -10.5t33 -15.5t18 -5t15.5 3q19 10 25 23q9 -2 11 -9q3 -16 -22 -36zM303 224q14 16 14 25t-18.5 9t-58.5 -35l-24 -23q-32 -33 -83 -101
q-25 -46 -60 -86q-23 -25 -41 -25h-4q-26 0 -50 21q3 4 56 70q108 137 108 185v7q-15 -24 -52 -68.5t-75 -78.5q-9 -8 -10 0t3 12q63 54 127 151q-5 5 2 5q2 0 4 -1q33 -13 33 -65q0 -36 -18 -80q39 51 59 73q52 58 102.5 58t58.5 -43q1 -6 1 -18t-10.5 -34t-44.5 -69
t-39.5 -59.5t-4 -18.5t8.5 -7q38 -5 178 135q12 13 12 0q0 -6 -6 -12q-101 -107 -175 -142q-55 -28 -86 -9q-19 12 -19 33.5t8 43.5q19 51 104 147z" />
    <glyph glyph-name="ograve" unicode="&#xf2;" 
d="M205.5 367.5q-45.5 20.5 -62 38t-16.5 24.5t4 13t25.5 11.5t25 5.5t3.5 -3q-3 -5 -3 -10q0 -20 45.5 -55t90.5 -42q12 -2 13 -5q2 -9 -39 -3.5t-86.5 26zM176 17q-67 -34 -117 -34q-42 0 -57 28q-8 14 -8 32q0 41 19 80q-13 -13 -25 -21q-10 -9 -10 3q0 7 18.5 21.5
t54.5 51t57 53.5q60 50 127 50q25 0 51 -13q38 -18 38 -66q0 -58 -58 -119q-23 -26 -64 -52q82 13 174 99q5 4 9 3.5t4 -4.5t-4 -8q-110 -104 -205 -104h-4zM220 216q-22 0 -61 -33q-47 -40 -47 -96q0 -40 32 -52q29 18 56 47q48 54 48 97q0 21 -13 33q-7 4 -15 4zM184 227
q-45 0 -98.5 -44.5t-69.5 -98.5q-5 -19 -5 -41t18 -37q11 -5 33 -5t67 25q-41 18 -41 63q0 50 37.5 88.5t80.5 47.5q-11 2 -22 2z" />
    <glyph glyph-name="oacute" unicode="&#xf3;" 
d="M436 440q4 -4 4 -12.5t-22.5 -27.5t-76.5 -38t-98.5 -20.5t-45.5 5.5q-2 6 23 7.5t67.5 21t67.5 42t25 37.5q0 4 -1.5 7.5t1.5 3.5t21 -5.5t35 -20.5zM176 17q-67 -34 -117 -34q-42 0 -57 28q-8 14 -8 32q0 41 19 80q-13 -13 -25 -21q-10 -9 -10 3q0 7 18.5 21.5t54.5 51
t57 53.5q60 50 127 50q25 0 51 -13q38 -18 38 -66q0 -58 -58 -119q-23 -26 -64 -52q82 13 174 99q5 4 9 3.5t4 -4.5t-4 -8q-110 -104 -205 -104h-4zM220 216q-22 0 -61 -33q-47 -40 -47 -96q0 -40 32 -52q29 18 56 47q48 54 48 97q0 21 -13 33q-7 4 -15 4zM184 227
q-45 0 -98.5 -44.5t-69.5 -98.5q-5 -19 -5 -41t18 -37q11 -5 33 -5t67 25q-41 18 -41 63q0 50 37.5 88.5t80.5 47.5q-11 2 -22 2z" />
    <glyph glyph-name="ocircumflex" unicode="&#xf4;" 
d="M176 17q-67 -34 -117 -34q-42 0 -57 28q-8 14 -8 32q0 41 19 80q-13 -13 -25 -21q-10 -9 -10 3q0 7 18.5 21.5t54.5 51t57 53.5q60 50 127 50q25 0 51 -13q38 -18 38 -66q0 -58 -58 -119q-23 -26 -64 -52q82 13 174 99q5 4 9 3.5t4 -4.5t-4 -8q-110 -104 -205 -104h-4z
M220 216q-22 0 -61 -33q-47 -40 -47 -96q0 -40 32 -52q29 18 56 47q48 54 48 97q0 21 -13 33q-7 4 -15 4zM184 227q-45 0 -98.5 -44.5t-69.5 -98.5q-5 -19 -5 -41t18 -37q11 -5 33 -5t67 25q-41 18 -41 63q0 50 37.5 88.5t80.5 47.5q-11 2 -22 2zM393 349q4 0 11.5 1t7.5 -3
q0 -5 -19 -10.5t-41.5 -5.5t-41.5 13q-32 21 -33 54q-73 -58 -130 -58q-11 0 -11 3t4 9t7.5 6h4.5q22 0 59 19t72 48q0 1 2 3q14 19 35.5 36t23.5 17t-5 -12.5t-7 -34.5t11 -44q19 -41 50 -41z" />
    <glyph glyph-name="otilde" unicode="&#xf5;" 
d="M176 17q-67 -34 -117 -34q-42 0 -57 28q-8 14 -8 32q0 41 19 80q-13 -13 -25 -21q-10 -9 -10 3q0 7 18.5 21.5t54.5 51t57 53.5q60 50 127 50q25 0 51 -13q38 -18 38 -66q0 -58 -58 -119q-23 -26 -64 -52q82 13 174 99q5 4 9 3.5t4 -4.5t-4 -8q-110 -104 -205 -104h-4z
M220 216q-22 0 -61 -33q-47 -40 -47 -96q0 -40 32 -52q29 18 56 47q48 54 48 97q0 21 -13 33q-7 4 -15 4zM184 227q-45 0 -98.5 -44.5t-69.5 -98.5q-5 -19 -5 -41t18 -37q11 -5 33 -5t67 25q-41 18 -41 63q0 50 37.5 88.5t80.5 47.5q-11 2 -22 2z" />
    <glyph glyph-name="odieresis" unicode="&#xf6;" 
d="M347 385q12 14 22 16.5t16.5 2.5t14.5 -6t8 -21t-13 -29t-28.5 -18.5t-25.5 3.5t-8 23t14 29zM211 356q2 15 16.5 31t36.5 16q7 0 15 -6t6.5 -21.5t-13.5 -28.5t-27.5 -17.5t-25.5 3.5t-8 23zM176 17q-67 -34 -117 -34q-42 0 -57 28q-8 14 -8 32q0 41 19 80
q-13 -13 -25 -21q-10 -9 -10 3q0 7 18.5 21.5t54.5 51t57 53.5q60 50 127 50q25 0 51 -13q38 -18 38 -66q0 -58 -58 -119q-23 -26 -64 -52q82 13 174 99q5 4 9 3.5t4 -4.5t-4 -8q-110 -104 -205 -104h-4zM220 216q-22 0 -61 -33q-47 -40 -47 -96q0 -40 32 -52q29 18 56 47
q48 54 48 97q0 21 -13 33q-7 4 -15 4zM184 227q-45 0 -98.5 -44.5t-69.5 -98.5q-5 -19 -5 -41t18 -37q11 -5 33 -5t67 25q-41 18 -41 63q0 50 37.5 88.5t80.5 47.5q-11 2 -22 2z" />
    <glyph glyph-name="divide" unicode="&#xf7;" horiz-adv-x="438" 
d="M286 260.5q-13 -3.5 -22 -3.5t-18.5 7.5t-9.5 26.5t20.5 41.5t49.5 22.5q8 0 17.5 -8t9.5 -17q0 -30 -17 -48t-30 -21.5zM95 156q-8 -1 -8 13t4.5 27.5t11.5 13.5q76 8 143 8t125 -9q12 -2 12 -10t-10 -8q-75 -2 -118 -9t-94.5 -15.5t-65.5 -10.5zM134 29q-12 0 -21.5 8
t-9.5 17q0 28 17 47q24 26 50 26q11 0 20.5 -7.5t9.5 -27t-20.5 -41.5t-45.5 -22z" />
    <glyph glyph-name="oslash" unicode="&#xf8;" 
d="M275 368l23 3q7 0 8 -3l-4 -9l-59 -79q62 -6 77 -53q4 -12 4 -28t-11 -47t-40.5 -63t-70.5 -58q82 13 174 99q5 4 9 3.5t4 -4.5t-4 -8q-110 -104 -205 -104h-4q-65 -35 -112 -35q-11 0 -20 2q-27 -48 -33.5 -62.5t-9.5 -14.5t-7 4q-9 10 29 79q-29 16 -29 57q0 37 19 76
q-13 -13 -25 -21q-10 -9 -10 2q0 7 17.5 22t53.5 50.5t54 50.5q48 41 102 51q63 90 70 90zM235 212q-6 3 -16.5 3t-28.5 -10q-22 -31 -78 -113q-1 -44 32 -57q29 18 56 47q48 54 48 97q0 21 -13 33zM88 100l1 6q9 59 65 96l16 24q-51 -8 -99 -58q-61 -64 -61 -119
q0 -28 19 -43l2 -1q21 36 57 95zM129 26q-28 12 -36 36q-16 -24 -38 -60q34 2 74 24z" />
    <glyph glyph-name="ugrave" unicode="&#xf9;" horiz-adv-x="458" 
d="M198 117q-15 -20 -31.5 -43t-16.5 -33.5t10 -10.5q18 0 53 32l32 31q49 53 81.5 95.5t41.5 51.5q16 19 35 20q30 0 55 -22q-6 -9 -19.5 -26t-27 -34.5t-31 -40.5t-30.5 -43t-26.5 -42.5t-19.5 -38.5q-15 -44 1 -55q5 -5 -2 -5q-2 0 -4 1q-38 13 -38 62t32 116
q-109 -138 -175 -138q-50 0 -50 47q0 17 10.5 50t97.5 133q12 13 12 22t-12 9t-36 -18t-66 -57.5t-52.5 -48.5t-10.5 3q0 6 7 11q30 26 63.5 60t58 53t56.5 19q36 0 49 -27q5 -10 5 -26t-8 -35.5t-18.5 -35.5t-25.5 -36zM402 337q13 -2 13 -6.5t-10 -4.5q-53 0 -107 24.5
t-70.5 42.5t-16.5 25t4 12.5t25.5 11t25 5.5t2 -3t-1.5 -8q0 -20 45.5 -56t90.5 -43z" />
    <glyph glyph-name="uacute" unicode="&#xfa;" horiz-adv-x="458" 
d="M198 117q-15 -20 -31.5 -43t-16.5 -33.5t10 -10.5q18 0 53 32l32 31q49 53 81.5 95.5t41.5 51.5q16 19 35 20q30 0 55 -22q-6 -9 -19.5 -26t-27 -34.5t-31 -40.5t-30.5 -43t-26.5 -42.5t-19.5 -38.5q-15 -44 1 -55q5 -5 -2 -5q-2 0 -4 1q-38 13 -38 62t32 116
q-109 -138 -175 -138q-50 0 -50 47q0 17 10.5 50t97.5 133q12 13 12 22t-12 9t-36 -18t-66 -57.5t-52.5 -48.5t-10.5 3q0 6 7 11q30 26 63.5 60t58 53t56.5 19q36 0 49 -27q5 -10 5 -26t-8 -35.5t-18.5 -35.5t-25.5 -36zM499 422q4 -4 4 -12t-22.5 -27.5t-76.5 -38.5
q-60 -21 -121 -21q-24 0 -24 7q0 5 17 6q52 3 109.5 40t57.5 60q0 5 -1.5 8.5t1.5 3.5t21 -5.5t35 -20.5z" />
    <glyph glyph-name="ucircumflex" unicode="&#xfb;" horiz-adv-x="458" 
d="M198 117q-15 -20 -31.5 -43t-16.5 -33.5t10 -10.5q18 0 53 32l32 31q49 53 81.5 95.5t41.5 51.5q16 19 35 20q30 0 55 -22q-6 -9 -19.5 -26t-27 -34.5t-31 -40.5t-30.5 -43t-26.5 -42.5t-19.5 -38.5q-15 -44 1 -55q5 -5 -2 -5q-2 0 -4 1q-38 13 -38 62t32 116
q-109 -138 -175 -138q-50 0 -50 47q0 17 10.5 50t97.5 133q12 13 12 22t-12 9t-36 -18t-66 -57.5t-52.5 -48.5t-10.5 3q0 6 7 11q30 26 63.5 60t58 53t56.5 19q36 0 49 -27q5 -10 5 -26t-8 -35.5t-18.5 -35.5t-25.5 -36zM470 349q4 0 11.5 1t7.5 -3q0 -5 -19 -10.5
t-41.5 -5.5t-42.5 13q-32 22 -32 55q-33 -27 -70 -43t-63 -16h-3q-5 0 -5 3t4 9t7.5 6h4.5q22 0 59 19t72 48q0 1 2 3q11 16 34 34.5t25 18.5t-5 -12.5t-7 -34.5t11 -44q19 -41 50 -41z" />
    <glyph glyph-name="udieresis" unicode="&#xfc;" horiz-adv-x="458" 
d="M198 117q-15 -20 -31.5 -43t-16.5 -33.5t10 -10.5q18 0 53 32l32 31q49 53 81.5 95.5t41.5 51.5q16 19 35 20q30 0 55 -22q-6 -9 -19.5 -26t-27 -34.5t-31 -40.5t-30.5 -43t-26.5 -42.5t-19.5 -38.5q-15 -44 1 -55q5 -5 -2 -5q-2 0 -4 1q-38 13 -38 62t32 116
q-109 -138 -175 -138q-50 0 -50 47q0 17 10.5 50t97.5 133q12 13 12 22t-12 9t-36 -18t-66 -57.5t-52.5 -48.5t-10.5 3q0 6 7 11q30 26 63.5 60t58 53t56.5 19q36 0 49 -27q5 -10 5 -26t-8 -35.5t-18.5 -35.5t-25.5 -36zM299 347q-12 -13 -22.5 -16t-17.5 -3t-14 6t-7 20
t13 30q17 20 31.5 20t23 -6.5t7 -22t-13.5 -28.5zM435 377q0 -15 -16.5 -32t-37.5 -17q-7 0 -14 6t-7 20t15 32t37 18q7 0 15 -6t8 -21z" />
    <glyph glyph-name="yacute" unicode="&#xfd;" horiz-adv-x="417" 
d="M478 492q4 -4 4 -12t-22.5 -27.5t-76.5 -38.5t-98.5 -20.5t-45.5 5.5q-2 6 16 7q52 3 109.5 40t57.5 60q0 5 -1.5 8.5t1.5 3.5t21 -5.5t35 -20.5zM176 224q12 13 12 22t-12 9t-36.5 -18t-73.5 -64t-58.5 -53.5t-10 -0.5t12.5 17.5t58 56.5t70 65t57 19q36 0 49 -27
q6 -10 6 -26t-8 -35.5t-18.5 -35t-27 -37.5t-32 -44t-15.5 -32t8 -10q39 0 146 130q51 61 87 114q32 74 56 81q9 3 22 3t19 -11t6 -17t-8.5 -9.5t-15 -3t-8.5 0.5q-29 0 -49 -42q-12 -26 -30.5 -83t-34.5 -105t-53 -112t-90 -120t-125.5 -94t-148.5 -38t-127.5 35t-63.5 108
q0 5 2 7t5 0t3 -6q10 -56 53.5 -91t100.5 -35q75 0 153.5 57.5t147 151t161.5 273.5q-30 -45 -55 -76q-125 -154 -192 -154q-51 0 -51 48q0 17 7 40q14 40 102 142z" />
    <glyph glyph-name="thorn" unicode="&#xfe;" 
d="M-147 -260q-10 0 -10 27q0 42 50.5 144.5t133.5 224.5q-48 -48 -48 -34q0 8 11 18q49 42 88.5 92.5t143.5 175.5t115 136q12 12 27.5 12t28.5 -13q0 -1 -115 -140t-135 -166q48 45 97 63q24 9 43 9t38 -12.5t19 -45.5q0 -70 -68 -148q-51 -60 -110 -87q-33 -16 -55 -16
t-40.5 13t-18.5 46t17 69q-206 -291 -206 -351q0 -6 1.5 -9.5t-2 -5.5t-5.5 -2zM63 44q0 -43 33 -43q20 0 61 19.5t80 65t55 82.5t16 59.5t-12 35.5q-8 6 -25 6t-51 -17q-54 -25 -100 -80q-31 -36 -44 -71t-13 -57z" />
    <glyph glyph-name="ydieresis" unicode="&#xff;" horiz-adv-x="417" 
d="M390 426.5q2 14.5 17 31t36 16.5q7 0 15 -6t6.5 -22t-14 -29.5t-27.5 -17t-25 4.5t-8 22.5zM268 426.5q2 14.5 17 31t36 16.5q7 0 15 -6t6.5 -22t-13.5 -29.5t-27.5 -17t-25.5 4.5t-8 22.5zM176 224q12 13 12 22t-12 9t-36.5 -18t-73.5 -64t-58.5 -53.5t-10 -0.5
t12.5 17.5t58 56.5t70 65t57 19q36 0 49 -27q6 -10 6 -26t-8 -35.5t-18.5 -35t-27 -37.5t-32 -44t-15.5 -32t8 -10q39 0 146 130q51 61 87 114q32 74 56 81q9 3 22 3t19 -11t6 -17t-8.5 -9.5t-15 -3t-8.5 0.5q-29 0 -49 -42q-12 -26 -30.5 -83t-34.5 -105t-53 -112t-90 -120
t-125.5 -94t-148.5 -38t-127.5 35t-63.5 108q0 5 2 7t5 0t3 -6q10 -56 53.5 -91t100.5 -35q75 0 153.5 57.5t147 151t161.5 273.5q-30 -45 -55 -76q-125 -154 -192 -154q-51 0 -51 48q0 17 7 40q14 40 102 142z" />
    <glyph glyph-name="hbar" unicode="&#x127;" horiz-adv-x="401" 
d="M275 244q0 13 -19 13q-34 0 -83 -48q-12 -12 -43.5 -50t-61.5 -87l-25 -55l3 10q-2 -4 -4 -12v0q-5 -12 -29 -20q-5 -2 -9 -2q-10 0 -2 15q4 10 28 71.5t39 98.5q-39 -43 -73 -70q-10 -8 -14 -2q-1 1 -1 4t9 11q61 53 96 98q35 82 114 196q-99 -20 -122 -29q-2 -1 3 9
t18 19q18 9 122 31q53 74 102.5 123t106.5 66q26 8 48.5 8t42 -12.5t19.5 -46.5q0 -45 -30 -91t-106 -102.5t-141 -84.5q-12 -5 -14 1.5t10 11.5q58 26 130.5 82t97 95.5t24.5 64t-21 24.5q-24 0 -68.5 -34.5t-88.5 -81.5q67 12 78 12q6 0 6 -10q0 -16 -9.5 -17.5t-46 -7.5
t-58.5 -10q-110 -129 -196 -288q28 40 51 66q56 63 109 63q50 0 59 -44q1 -6 1 -17t-7.5 -32.5t-42 -79t-34.5 -69.5t8 -12q11 0 33 14q56 35 146 118q12 12 11.5 4t-6.5 -15q-74 -76 -153 -127q-37 -24 -67 -24q-8 0 -15 2q-39 8 -39 43.5t28 79.5q5 7 37 47q49 60 49 80z
" />
    <glyph glyph-name="Itilde" unicode="&#x128;" horiz-adv-x="595" 
d="M752 521q0 31 -48 43t-117.5 12t-181.5 -20q-191 -35 -268 -92q-33 -24 -33 -47t32 -45q7 -4 -0.5 -4.5t-12.5 3.5q-25 17 -36 48q-5 14 -5 31q0 61 61 95q77 45 192 71.5t217 26.5q68 0 136 -25q36 -14 54 -39t18 -53q0 -23 -5.5 -22.5t-4 6.5t1.5 11zM211 -140
q0 26 59 138q-68 -6 -138 -34q-29 -11 -47 -18.5t-41 -12t-29 4.5q-8 6 -8 17.5t4.5 25t18.5 29.5q30 37 120 60q49 13 95 13t72 -2q91 154 199.5 317.5t120.5 163.5q1 0 5 0.5t6 0t4.5 -1.5t2.5 -4q0 -6 -11 -21q-148 -195 -303 -457q65 -7 114.5 -23.5t79.5 -49t30 -73.5
q0 -27 -8 -26q-5 0 -3.5 7t1.5 10q0 23 -35 42q-63 34 -184 34q-20 0 -41 -1q-51 -91 -70 -139q-5 -11 -9.5 -11t-4.5 11zM814 757q-36 -27 -63.5 -27t-42 9.5t-32.5 22.5q-20 14 -32 14q-23 0 -54 -31q-8 -9 -10.5 -6t-2.5 5.5t4 6.5q59 56 94.5 56t58 -10.5t33 -15.5
t18 -5t15.5 3q19 10 25 23q11 -2 11 -14.5t-22 -30.5z" />
    <glyph glyph-name="itilde" unicode="&#x129;" horiz-adv-x="272" 
d="M189 252q-41 -42 -68.5 -106.5t-27.5 -90.5t20.5 -26t68 30t108.5 85q13 12 13 -3q0 -2 -2 -4q-48 -42 -81 -69t-78.5 -51.5t-74.5 -24.5q-36 0 -53.5 16t-17.5 35q0 36 13 57t44 58q-11 -9 -34.5 -30t-32.5 -28t-9 4q0 7 16 20t69.5 66t73 63t32 10t18.5 -3.5t3 -7.5z
M243 362q-36 -27 -63.5 -27t-42 9.5t-32.5 22.5q-20 14 -32 14q-23 0 -54 -31q-8 -9 -10.5 -6t-2.5 5.5t4 6.5q59 56 94.5 56t58 -10.5t33 -15.5t18 -5t15.5 3q19 10 25 23q11 -2 11 -14.5t-22 -30.5z" />
    <glyph glyph-name="dotlessi" unicode="&#x131;" horiz-adv-x="272" 
d="M189 252q-41 -42 -68.5 -106.5t-27.5 -90.5t20.5 -26t68 30t108.5 85q13 12 13 -3q0 -2 -2 -4q-48 -42 -81 -69t-78.5 -51.5t-74.5 -24.5q-36 0 -53.5 16t-17.5 35q0 36 13 57t44 58q-11 -9 -34.5 -30t-32.5 -28t-9 4q0 7 16 20t69.5 66t73 63t32 10t18.5 -3.5t3 -7.5z
" />
    <glyph glyph-name="IJ" unicode="&#x132;" horiz-adv-x="1270" 
d="M211 -140q0 26 59 138q-68 -6 -138 -34q-29 -11 -47 -18.5t-41 -12t-29 4.5q-8 6 -8 17.5t4.5 25t18.5 29.5q30 37 120 60q49 13 95 13t72 -2q91 154 199.5 317.5t120.5 163.5q1 0 5 0.5t6 0t4.5 -1.5t2.5 -4q0 -6 -11 -21q-148 -195 -303 -457q134 -14 189 -67
q88 98 215 171q17 131 119.5 263t228.5 196q57 29 111 29t94 -29q51 -38 51 -106t-54 -179t-149 -233.5t-218 -234.5q-230 -210 -389 -210q-80 0 -109 65q-9 20 -9 45q0 79 78 187q-69 24 -164 24q-19 0 -40 -1q-51 -91 -70 -139q-8 -17 -13 -8q-1 3 -1 8zM820 51
q-37 0 -58 25q-136 -92 -200 -164q0 -1 -9 -11q-63 -70 -63 -125q0 -39 44 -54q18 -5 34 -5q51 0 100 21q128 53 279 205.5t244.5 313t93.5 253.5q0 77 -49 102q-19 10 -50 10t-77 -14q-134 -46 -220 -155t-104 -249q102 50 191 50q84 0 95 -46q3 -11 2 -13t-5 0q-9 4 -28 4
q-87 0 -252 -106q12 -29 35 -31q7 -1 7 -6t-10 -5zM752 521q0 31 -48 43t-117.5 12t-181.5 -20q-191 -35 -268 -92q-33 -24 -33 -47t32 -45q8 -5 -3 -5q-6 0 -10 4q-25 17 -36 48q-5 14 -5 31q0 61 61 95q77 45 192 71.5t217 26.5q68 0 136 -25q36 -14 54 -39t18 -53
q0 -23 -5.5 -22.5t-4 6.5t1.5 11z" />
    <glyph glyph-name="ij" unicode="&#x133;" horiz-adv-x="430" 
d="M189 252q-41 -42 -68.5 -106.5t-27.5 -90.5t21 -26q18 0 60 25t99 75q0 1 2 3q70 56 78 104q0 16 -12 20q-5 3 -1 7q4 3 10 3q28 0 37 -35q2 -9 2 -21q0 -57 -59 -175t-112.5 -174.5t-133.5 -96.5t-156 -40t-128 35q-63 43 -63 111q0 5 4.5 4.5t5.5 -6.5q10 -56 53 -91
t105.5 -35t153.5 70.5t162 169.5q74 99 114 189q-19 -23 -50 -49q-150 -130 -220 -130q-34 0 -51.5 16t-17.5 35q0 36 13 57t44 58q-11 -9 -34.5 -30t-31.5 -27.5t-10 1.5t15 21.5t70.5 66.5t73 63t32 10t18.5 -3.5t3 -7.5zM381 331q2 17 18 36t43 19q8 0 16 -7t8 -15
t-1 -18t-15 -26q-19 -21 -42 -21q-11 0 -20 7.5t-7 24.5zM278 364q0 -25 -18 -45t-43 -20q-8 0 -16 7t-8 23t17 36.5t44 20.5q8 0 16 -7t8 -15z" />
    <glyph glyph-name="Jcircumflex" unicode="&#x134;" horiz-adv-x="675" 
d="M700 357q-54 -111 -149 -233.5t-218 -234.5q-230 -210 -389 -210q-80 0 -110 65q-8 20 -8 42q0 71 49 148q94 145 275 249q17 131 119.5 263t228.5 196q57 29 111 29t94 -29q51 -38 51 -106t-54 -179zM225 51q-37 0 -58 25q-235 -160 -268 -272q-4 -16 -4 -30
q0 -37 45 -52q17 -5 33 -5q51 0 100 21q128 53 279 205.5t244.5 313t93.5 253.5q0 77 -49 102q-19 10 -50 10t-77 -14q-134 -46 -220 -155t-104 -249q102 50 191 50q84 0 95 -46q3 -11 2 -13t-6 0q-8 4 -27 4q-87 0 -252 -106q12 -29 35 -31q7 -1 7 -6t-10 -5zM821 737
q3 0 11.5 1.5t8.5 -5t-21.5 -12t-47.5 -5.5t-49 16q-37 25 -38 63q-39 -32 -81 -50t-70 -18q-12 0 -12 3.5t4 9.5q5 7 14 7q26 0 70 24t85 57q10 17 37.5 39.5t29.5 22.5q4 0 -4 -15.5t-8 -32.5q0 -52 29 -84q20 -21 42 -21z" />
    <glyph glyph-name="jcircumflex" unicode="&#x135;" horiz-adv-x="158" 
d="M117 210q0 -57 -59 -175t-112.5 -174.5t-133.5 -96.5t-156 -40t-128 35q-63 43 -63 111q0 5 4.5 4.5t5.5 -6.5q10 -56 53 -91t105.5 -35t153.5 70.5t162 169.5q74 99 114 189q-17 -22 -53 -51q-2 -2 -5 0q-7 5 -2 12q70 56 78 104q0 16 -12 20q-5 3 -1 7q4 3 10 3
q28 0 37 -35q2 -9 2 -21zM257 341q3 0 11.5 1.5t8.5 -5t-21.5 -12t-47.5 -5.5t-49 16q-37 25 -38 63q-39 -32 -81 -50t-70 -18q-12 0 -12 3.5t4 10.5t8.5 6.5t5.5 -0.5q26 0 70 24t85 57q10 17 37.5 39.5t29.5 22.5q4 0 -4 -15.5t-8 -32.5q0 -52 29 -84q20 -21 42 -21z" />
    <glyph glyph-name="kcommaaccent" unicode="&#x137;" horiz-adv-x="333" 
d="M53 91q-27 -66 -27 -111t13 -60q3 -4 0.5 -6t-5.5 0q-32 27 -36 59q-2 11 -2 24q0 58 34 143q-50 -50 -52 -38q1 9 14 20.5t59 67.5q100 222 262 371q84 78 152 78q56 0 65 -46q2 -7 2 -15q0 -85 -170 -200q-59 -40 -108 -61q-12 -5 -14 1.5t10 11.5q46 21 105 63
t106 91.5t47 76.5q0 17 -19 17t-55 -22q-100 -61 -219 -214q-74 -95 -122 -174q70 93 144 123q28 10 47 10t33 -6q27 -12 27 -40q0 -50 -59 -94q-34 -24 -77.5 -34.5t-65.5 -10.5t-37 6q32 -41 83.5 -71t83.5 -30q21 0 33 10t12 16.5t2.5 6.5t2.5 -2q0 -35 -53 -48
q-22 -5 -55.5 -5t-75.5 21q-64 30 -85 71zM274 225q0 35 -33 35q-38 0 -84.5 -42t-68.5 -69q2 -5 8 -15q12 -7 27.5 -7t50.5 9.5t67.5 34t32.5 54.5zM103.5 -141q8.5 -14 8.5 -29.5t-14 -48.5t-54 -68t-83 -38q-6 0 -7 4q2 2 4 3q44 4 80 41.5t42 81.5l-5 -4
q-25 -25 -51 -25q-12 0 -19.5 7t-7.5 15.5t3 21.5t22 32q22 21 47.5 21t34 -14z" />
    <glyph glyph-name="kgreenlandic" unicode="&#x138;" horiz-adv-x="494" 
d="M568 437q8 1 9.5 -4t1.5 -8.5t-3 -10.5t-8 -9q-98 -34 -200.5 -94t-177.5 -117q64 21 116 21t91 -22q52 -27 52 -75q0 -82 -127 -141q-19 -10 -19 -5.5t27.5 29t39.5 53.5t12 44q0 44 -28 69q-31 29 -74 29t-77.5 -9.5t-41.5 -9.5t-7 2.5t7 8.5q59 55 203.5 149
t203.5 100zM248 486q14 11 49.5 11t35.5 -18q0 -7 -8 -17q-95 -124 -173 -248q-126 -197 -168 -295q-5 -12 -9 -12t-4 10.5t6 28.5q39 113 130 306.5t141 233.5z" />
    <glyph glyph-name="Ldotaccent" unicode="&#x13f;" horiz-adv-x="736" 
d="M966 569q0 -89 -136 -169q-52 -31 -119 -55q-157 -57 -294 -57q-53 0 -82 5q-6 -8 -23 -34.5t-23.5 -36t-20 -30t-21.5 -30.5q-24 -30 -46 -52q-35 -34 -93 -34q-12 0 -27 4.5t-17.5 9t-1.5 5.5t4.5 -1t15 -2.5t28.5 2.5q41 5 88 50q27 27 115 152q-84 17 -99 64
q-2 7 1 7.5t5 -4.5q12 -18 74 -18q23 0 52 2h3q61 85 124.5 150.5t132.5 104.5q113 63 222 63q52 0 82 -16q56 -29 56 -80zM732 -48q0 -27 -9 -27q-8 0 -5.5 7t2.5 11q0 26 -54 45q-86 31 -231 31q-154 0 -269 -35q-38 -12 -62 -20q-42 -13 -64 -13q-37 0 -37 26q0 49 87 85
q95 38 251 38q239 0 339 -64q52 -34 52 -84zM883 564q11 19 11 39q0 45 -104 45q-18 0 -68.5 -13t-99.5 -38q-119 -63 -248 -247q129 16 282 72q182 66 227 142zM618 164q-11 0 -20.5 7.5t-9.5 16.5q0 30 17 48q23 26 49 26q11 0 21 -8t10 -26.5t-20.5 -41t-46.5 -22.5z" />
    <glyph glyph-name="ldot" unicode="&#x140;" horiz-adv-x="526" 
d="M75 41q0 -27 27 -27q16 0 50.5 13t89.5 57t74 63.5t23 19t3 -6t-5 -9.5q-85 -87 -141 -125t-104 -38q-41 0 -57 19t-16 44q0 45 32 108q-58 -62 -58 -40q0 4 6 9q47 38 101 110q99 129 155 227q10 19 10 28q0 21 -23 8q-26 -13 -28 -10t3 8q24 18 66 34t69 17
q42 0 42 -26q0 -15 -14.5 -40t-83 -99.5t-83.5 -93.5q-103 -135 -131 -215q-7 -21 -7 -35zM420 120q-11 0 -20.5 7.5t-9.5 16.5q0 30 17 48q23 26 49 26q11 0 21 -8t10 -26.5t-20.5 -41t-46.5 -22.5z" />
    <glyph glyph-name="Lslash" unicode="&#x141;" horiz-adv-x="736" 
d="M404 251q6 0 6 -11q0 -15 -11 -17q-30 -4 -124 -21q-43 -61 -69 -87q-40 -39 -98 -39q-12 0 -27 4.5t-17.5 9t-1.5 5.5t4.5 -1t15 -2.5t28.5 2.5q41 5 88 50q25 27 44 52q-137 -26 -171 -39q-2 -1 3 9t18 19q25 12 173 42l48 69q-84 17 -99 64q-2 7 1 7.5t5 -4.5
q12 -18 74 -18q23 0 52 2h3q61 85 124.5 150.5t132.5 104.5q113 63 222 63q52 0 82 -16q56 -29 56 -80q0 -89 -136 -169q-52 -31 -119 -55q-157 -57 -294 -57q-53 0 -82 5l-39 -60q93 18 100.5 18h7.5zM883 564q11 19 11 39q0 45 -104 45q-18 0 -68.5 -13t-99.5 -38
q-119 -63 -248 -247q129 16 282 72q182 66 227 142zM732 -48q0 -27 -9 -27q-8 0 -5.5 7t2.5 11q0 26 -54 45q-86 31 -231 31q-154 0 -269 -35q-38 -12 -62 -20q-42 -13 -64 -13q-37 0 -37 26q0 49 87 85q95 38 251 38q239 0 339 -64q52 -34 52 -84z" />
    <glyph glyph-name="lslash" unicode="&#x142;" horiz-adv-x="294" 
d="M157 212q117 37 123.5 37t9 -6t0 -13t-10.5 -9q-74 -20 -143 -42q-62 -99 -62 -139q0 -26 27 -26q17 0 51.5 13t89.5 57t74 63.5t23 19t3 -6t-5 -9.5q-85 -87 -141 -125t-104 -38q-7 0 -14 1q-60 8 -60 63q0 39 29 100l-4 -2q-45 -45 -50 -34q-2 5 6 12l15 12
q-48 -16 -56 -20t-8 -3q0 12 23 29q17 10 76 31q23 24 51 61q99 129 155 227q10 19 10 28q0 21 -23 8q-26 -13 -28 -10t3 8q24 18 66 34t69 17q42 0 42 -26q0 -15 -14.5 -40t-83 -99.5t-83.5 -93.5q-35 -47 -56 -79z" />
    <glyph glyph-name="Nacute" unicode="&#x143;" horiz-adv-x="585" 
d="M-63 -140q-5 -11 -9 -11t-4 10q0 58 176 338.5t236 351.5q26 82 59 107q7 5 21.5 5t47 -13t32.5 -31q0 -8 -8 -14q-45 -38 -70 -143t-25 -214q0 -130 30 -203q41 106 187.5 352.5t163.5 246.5q1 0 9 1q31 4 31 -5q0 -4 -7 -16q-102 -133 -212 -310t-162 -291
q20 -33 47 -46q12 -6 23 -6t17 3.5t8 2t2 -4.5t-2 -5q-23 -17 -42 -17q-60 0 -102 57.5t-63 143.5t-21 163q0 86 19 172q-107 -145 -223 -334.5t-159 -289.5zM773 773q0 -12 -22.5 -31t-76.5 -38q-60 -22 -121 -22q-24 0 -24 7q0 5 16 6q52 4 110 41t58 60q0 4 -2 7.5
t1.5 3.5t23 -6.5t35.5 -21.5q2 -3 2 -6z" />
    <glyph glyph-name="nacute" unicode="&#x144;" horiz-adv-x="394" 
d="M268 224q14 16 14 25t-18.5 9t-58.5 -35q-37 -32 -89.5 -107t-76 -101.5t-41.5 -26.5h-4q-26 0 -51 21q6 9 29 39q51 62 89 120q-43 -43 -73 -67q-10 -8 -11.5 -1t4.5 12.5t20 18t18.5 16.5t17 15.5t18.5 18.5q28 33 41 56q5 12 4.5 23.5t-5 15t-3.5 8.5q1 12 17 6
q31 -14 31 -55.5t-18 -88.5q39 51 59 73q52 58 102 58q49 0 58 -42q1 -6 1 -18.5t-9.5 -33.5t-44.5 -69t-40.5 -60.5t-3.5 -18.5t9 -7q12 -2 41 16q41 29 106 89q10 10 10 -1q1 -6 -4 -11q-97 -90 -144 -112q-55 -28 -86 -9q-19 12 -19 33.5t8 43.5q18 51 103 147zM427 432
q0 -12 -22.5 -31t-76.5 -39q-60 -21 -121 -21q-24 0 -24 7q0 3 16 6q52 4 110 41t58 60q0 4 -2 7.5t1.5 3.5t23 -6.5t35.5 -21.5q2 -3 2 -6z" />
    <glyph glyph-name="OE" unicode="&#x152;" horiz-adv-x="1364" 
d="M1294 530q0 47 -83 47q-103 0 -280.5 -74t-276.5 -166l-23 -22q-33 -66 -99 -150q-5 -20 -5 -39q0 -68 73 -104q58 -29 126 -29q208 0 418 113q142 76 210 174q14 19 14 10q0 -4 -3 -12q-27 -76 -182.5 -178.5t-315.5 -136.5q-66 -14 -133 -14t-125 27q-99 48 -111 148
q-82 -87 -174 -136q-62 -33 -127 -33q-89 0 -142 63q-45 53 -45 125q0 100 73 218q54 86 132.5 153.5t130 84t89 16.5t64.5 -25q30 -27 30 -80q0 -31 -11 -64q-4 -12 -7 -6t0.5 17.5t3.5 24.5q0 44 -52 44q-75 0 -186.5 -72t-167.5 -149q-77 -106 -77 -191q0 -93 104 -110
q15 -3 31 -3q55 0 133 28q115 40 196 123q2 129 138 265q8 43 8 72t-1.5 60.5t-14.5 58.5q-22 46 -52 37q-5 -2 -5 1q1 12 25 12t48 -20q39 -31 39 -113q0 -31 -4 -68q85 74 188 129t175.5 71t129.5 16t98.5 -26.5t43.5 -70.5t-19 -86q-3 -6 -6 -6q-7 -2 0 14.5t7 31.5z
M1048 306q6 -8 6 -12.5t-2 -7.5q-5 -7 -20 3q-35 24 -110 24q-100 0 -183 -25q-38 -11 -52 -11q-26 0 -33 21v3q0 10 19 26t61.5 24.5t84 8.5t91.5 -6q105 -13 138 -48z" />
    <glyph glyph-name="oe" unicode="&#x153;" horiz-adv-x="547" 
d="M493 216q0 29 -36 29q-17 0 -36 -9q-42 -19 -81 -66q-49 -58 -49 -108q0 -19 10.5 -35.5t37.5 -16.5q47 0 120 50.5t123 100.5q13 12 13 0q0 -7 -7 -13q-114 -105 -160 -128q-71 -37 -123 -37q-76 0 -97 52q-54 -40 -124 -51q-11 -2 -21 -2q-30 0 -49.5 16.5t-19.5 48.5
q0 37 19 76q-13 -13 -25 -21q-10 -9 -10 2q0 7 17.5 22t53.5 50.5t57 53.5q61 51 122 51t86 -41q62 36 123 36q57 0 75 -24q9 -12 9 -25.5t-9 -29.5q-19 -31 -67.5 -54.5t-92.5 -23.5q-18 0 -20 3t2 5l12 1q39 0 93 28q54 29 54 60zM248 183q-2 33 -28 33q-22 0 -61 -33
q-47 -40 -47 -96q0 -40 32 -52q24 15 60 51q6 52 44 97zM184 227q-45 0 -98.5 -44.5t-69.5 -98.5q-5 -19 -5 -41t18 -37q11 -5 33 -5t67 25q-41 18 -41 63q0 50 37.5 88.5t80.5 47.5q-11 2 -22 2z" />
    <glyph glyph-name="Racute" unicode="&#x154;" horiz-adv-x="587" 
d="M-15 -37q0 48 144 258q-5 18 -5 33t25 35t38 20h3q59 81 105 137t54 56t12.5 -6.5t4.5 -13.5q-80 -99 -164 -214l2 -7l36 3q76 5 165 34.5t146 67.5q118 80 118 147q0 29 -39 49t-122 20t-225.5 -40.5t-198.5 -88.5q-16 -14 -11.5 -22t1.5 -9t-9 3q-21 12 -26.5 30
t-5.5 27t5 13q33 48 147.5 90.5t211.5 56t143.5 13.5t77 -6t54.5 -27q37 -31 37 -87q0 -55 -41 -102t-105.5 -84.5t-156.5 -67.5q-107 -35 -197 -35q32 -80 128.5 -161.5t159.5 -81.5q25 0 44 12t22 30q0 5 5 3q2 -3 2 -5q-8 -67 -114 -67q-61 0 -127 32t-112.5 80t-73.5 99
q-106 -154 -131 -217q-6 -16 -16.5 -16t-10.5 9zM761 805q0 -12 -22.5 -31t-76.5 -38q-60 -22 -121 -22q-24 0 -24 7q0 5 16 6q52 4 110 41t58 60q0 4 -2 7.5t1.5 3.5t23 -6.5t35.5 -21.5q2 -3 2 -6z" />
    <glyph glyph-name="Rcommaaccent" unicode="&#x156;" horiz-adv-x="587" 
d="M-15 -37q0 48 144 258q-5 18 -5 33t25 35t38 20h3q59 81 105 137t54 56t12.5 -6.5t4.5 -13.5q-80 -99 -164 -214l2 -7l36 3q76 5 165 34.5t146 67.5q118 80 118 147q0 29 -39 49t-122 20t-225.5 -40.5t-198.5 -88.5q-16 -14 -11.5 -22t1.5 -9t-9 3q-21 12 -26.5 30
t-5.5 27t5 13q33 48 147.5 90.5t211.5 56t143.5 13.5t77 -6t54.5 -27q37 -31 37 -87q0 -55 -41 -102t-105.5 -84.5t-156.5 -67.5q-107 -35 -197 -35q32 -80 128.5 -161.5t159.5 -81.5q25 0 44 12t22 30q0 5 5 3q2 -3 2 -5q-8 -67 -114 -67q-61 0 -127 32t-112.5 80t-73.5 99
q-106 -154 -131 -217q-5 -14 -16 -16t-11 9zM172.5 -139q8.5 -14 8.5 -29.5t-14 -48.5t-54 -68t-83 -38q-6 0 -7 4q2 2 4 3q44 4 80 41.5t42 81.5l-5 -4q-25 -25 -51 -25q-12 0 -19.5 7t-7.5 15.5t3 21.5t22 32q22 21 47.5 21t34 -14z" />
    <glyph glyph-name="rcommaaccent" unicode="&#x157;" horiz-adv-x="361" 
d="M275 200q-44 -51 -71.5 -93.5t-27.5 -60t20.5 -17.5t84 41t117.5 92q5 5 9 4t4 -5t-4 -9q-129 -118 -197 -148q-30 -12 -43 -12q-48 0 -65.5 16t-17.5 35q0 38 15 58q49 69 78 117q9 14 -3.5 19.5t-31 5.5t-19.5 1q-67 -90 -133 -142q-8 -7 -9 0q0 8 11 19q70 60 115 127
q-9 6 -9 16.5t1.5 25.5t15.5 40q24 42 50 42q22 0 22 -24q0 -33 -31 -72q-15 -18 -28 -26q37 12 108 12q35 0 50 -26q2 -4 2 -12t-13 -24z" />
    <glyph glyph-name="Rcaron" unicode="&#x158;" horiz-adv-x="587" 
d="M-15 -37q0 48 144 258q-5 18 -5 33t25 35t38 20h3q59 81 105 137t54 56t12.5 -6.5t4.5 -13.5q-80 -99 -164 -214l2 -7l36 3q76 5 165 34.5t146 67.5q118 80 118 147q0 29 -39 49t-122 20t-225.5 -40.5t-198.5 -88.5q-16 -14 -11.5 -22t1.5 -9t-9 3q-21 12 -26.5 30
t-5.5 27t5 13q33 48 147.5 90.5t211.5 56t143.5 13.5t77 -6t54.5 -27q37 -31 37 -87q0 -55 -41 -102t-105.5 -84.5t-156.5 -67.5q-107 -35 -197 -35q32 -80 128.5 -161.5t159.5 -81.5q25 0 44 12t22 30q0 5 5 3q2 -3 2 -5q-8 -67 -114 -67q-61 0 -127 32t-112.5 80t-73.5 99
q-106 -154 -131 -217q-6 -16 -16.5 -16t-10.5 9zM474 850q-3 0 -11.5 -1.5t-8.5 5t22 12t47.5 5.5t48.5 -16q37 -25 38 -63q39 32 81 50t70 18q12 0 12 -3.5t-4 -9.5q-5 -7 -14 -7q-26 0 -70 -24t-85 -57q-10 -17 -37.5 -39.5t-29.5 -22.5q-4 0 4 15.5t8 32.5q0 52 -29 83
q-20 22 -42 22z" />
    <glyph glyph-name="rcaron" unicode="&#x159;" horiz-adv-x="361" 
d="M275 200q-44 -51 -71.5 -93.5t-27.5 -60t20.5 -17.5t84 41t117.5 92q5 5 9 4t4 -5t-4 -9q-129 -118 -197 -148q-30 -12 -43 -12q-48 0 -65.5 16t-17.5 35q0 38 15 58q49 69 78 117q9 14 -3.5 19.5t-31 5.5t-19.5 1q-67 -90 -133 -142q-8 -7 -9 0q0 8 11 19q70 60 115 127
q-9 6 -9 16.5t1.5 25.5t15.5 40q24 42 50 42q22 0 22 -24q0 -33 -31 -72q-15 -18 -28 -26q37 12 108 12q35 0 50 -26q2 -4 2 -12t-13 -24zM204 468q-3 0 -11.5 -1.5t-8.5 5t22 12t47.5 5.5t48.5 -16q37 -25 38 -63q39 32 81 50t70 18q12 0 12 -3.5t-4 -10.5t-8.5 -6.5
t-5.5 0.5q-26 0 -70 -24t-85 -57q-10 -17 -37.5 -39.5t-29.5 -22.5q-4 0 4 15.5t8 32.5q0 52 -29 83q-20 22 -42 22z" />
    <glyph glyph-name="Scaron" unicode="&#x160;" horiz-adv-x="590" 
d="M861.5 774.5q28.5 17.5 34 17.5t5.5 -4q0 -14 -61 -43q-99 -45 -149 -45q-72 0 -75 61q0 6 18 15q27 13 39.5 13t14.5 -4q2 -50 53 -50q13 0 52.5 11t68 28.5zM766 576q-8 13 -28 13t-37.5 -5t-41.5 -14q-39 -16 -63 -30q-90 -48 -168 -112.5t-82 -96.5q-2 -25 27 -41
q25 -15 58 -28.5t48 -20.5q80 -40 80 -106q0 -29 -17 -56q-27 -42 -81.5 -69.5t-116.5 -38.5q-64 -11 -106 -11q-76 0 -152 32.5t-94 101.5q37 -33 102 -47t124 -14q88 1 130.5 14t74 30.5t58 41t26.5 52t-38 51.5q-3 2 -60.5 25t-88 51t-30.5 64q0 68 84 138.5t183.5 109.5
t169.5 39q49 0 76 -17.5t27 -48.5v-9q-3 -31 -109 -129q-39 -36 -68.5 -80.5t-29.5 -78.5v-6q-31 24 -31 64q0 36 31 88q45 76 143 144z" />
    <glyph glyph-name="scaron" unicode="&#x161;" horiz-adv-x="282" 
d="M422.5 459.5q28.5 17.5 34 17.5t5.5 -4.5t-5 -8.5q-63 -48 -165 -74q-22 -6 -41 -6q-71 0 -74 61q0 7 19 16q26 13 38.5 13t14.5 -4q2 -50 53 -50q13 0 52.5 11t68 28.5zM214.5 123q-22.5 -64 -63 -103t-108.5 -39q-21 0 -47 11q-39 18 -54 63q-1 1 -1 3t3.5 2t4.5 -4
q18 -40 59 -40q51 0 89 50q28 37 50 78q73 139 123 153q-7 3 -18 3t-33 -8.5t-53.5 -32.5t-57 -46.5t-51.5 -48t-30 -28.5q-14 -12 -16 -5.5t5 12.5q22 19 62 59.5t64.5 63t54.5 35.5t47 13t34 -4.5t19 -10.5q-27 -12 -43.5 -62t-39 -114z" />
    <glyph glyph-name="Ydieresis" unicode="&#x178;" horiz-adv-x="912" 
d="M779 722q12 13 22.5 16t17.5 3t15 -6.5t6 -21.5t-14 -29t-27 -17.5t-25 4t-8.5 23t13.5 28.5zM657 722q12 13 22.5 16t17.5 3t15 -6.5t6 -21.5t-14 -29t-27 -17.5t-25 4t-8.5 23t13.5 28.5zM543 412q-15 -27 -75 -128t-91 -164.5t-31 -94.5t25 -31q28 0 86 49.5
t107 106.5t70 88q162 235 200 362q7 23 15 25q9 8 14 -6q19 -51 19 -130.5t-32 -201.5q-55 -216 -141 -332q-67 -91 -153 -147.5t-175.5 -56.5t-150 52t-74.5 162q-1 8 1.5 11t6 0t4.5 -9q13 -84 63.5 -137t117.5 -53q97 0 201 119q178 203 250 421q47 140 47 238v19
q-24 -81 -81 -183q-81 -143 -181 -251q-156 -168 -231 -168q-38 0 -38 40q0 27 19 76.5t41 91.5q42 81 93.5 167.5t62 122t10.5 55.5q0 73 -107 73t-287 -60q-124 -43 -124 -79q0 -13 18 -26q5 -3 -1 -3.5t-10 2.5q-22 15 -22 40q0 56 61 92q73 42 177 68q112 29 203 29
q142 0 150 -76v-20.5t-5 -34t-21 -56.5t-31 -62z" />
    <glyph glyph-name="florin" unicode="&#x192;" horiz-adv-x="251" 
d="M469 410q0 -4 -3.5 -4t-4.5 5q-6 23 -23 35.5t-29.5 13t-22.5 0.5q-36 0 -67 -20q-59 -38 -137 -144q55 -5 74 -20q37 -28 30 -41q-2 -5 -18 4.5t-49 9.5t-77 -12q-1 -1 -40 -91q-94 -214 -195 -282q-45 -31 -94.5 -31t-86 25t-44.5 72v2.5t2 2.5q3 -1 5 -5
q6 -23 23 -35.5t29.5 -13t22.5 -0.5q92 0 204 164q22 30 50 84t40 76q-5 -2 -7.5 0t-6 9t-5.5 17.5t0.5 21t14.5 21.5q14 12 47 19q74 137 143 184q45 31 94.5 31t84.5 -24q46 -32 46 -74z" />
    <glyph glyph-name="circumflex" unicode="&#x2c6;" horiz-adv-x="333" 
d="M301 341q3 0 11.5 1.5t8.5 -5t-21.5 -12t-47.5 -5.5t-49 16q-37 25 -38 63q-39 -32 -81 -50t-70 -18q-12 0 -12 3.5t4 10.5t8.5 6.5t5.5 -0.5q26 0 70 24t85 57q10 17 37.5 39.5t29.5 22.5q4 0 -4 -15.5t-8 -32.5q0 -52 29 -84q20 -21 42 -21z" />
    <glyph glyph-name="caron" unicode="&#x2c7;" horiz-adv-x="261" 
d="M43 387q-3 0 -11.5 -1.5t-8.5 5t21.5 12t47.5 5.5t49 -16q37 -25 38 -63q39 32 81 50t70 18q12 0 12 -3.5t-4 -10.5t-8.5 -6.5t-5.5 0.5q-26 0 -70 -24t-85 -57q-10 -17 -37.5 -39.5t-29.5 -22.5q-4 0 4 15.5t8 32.5q0 52 -29 84q-20 21 -42 21z" />
    <glyph glyph-name="breve" unicode="&#x2d8;" horiz-adv-x="1000" 
d="M323.5 409.5q28.5 17.5 34 17.5t5.5 -4.5t-17 -17.5t-62 -33q-84 -38 -131 -38q-71 0 -74 61q0 6 18 15t34 12t19 -3q1 -49 51 -49q14 0 54 11t68.5 28.5z" />
    <glyph glyph-name="ring" unicode="&#x2da;" horiz-adv-x="653" 
d="M159 459q-40 0 -40 40q0 9 3 24t24.5 42.5t43.5 45.5q33 28 72 28q18 0 35 -7q25 -11 25 -43t-34 -70q-37 -39 -95 -55q-20 -5 -34 -5zM236 599q-32 0 -64 -33.5t-32 -60.5t23 -27q12 0 34 9t46 34q25 29 25 53.5t-32 24.5z" />
    <glyph glyph-name="tilde" unicode="&#x2dc;" horiz-adv-x="287" 
d="M257 362q-36 -27 -63.5 -27t-42 9.5t-32.5 22.5q-20 14 -32 14q-23 0 -54 -31q-8 -9 -10.5 -6t-2.5 5.5t4 6.5q59 56 94.5 56t58 -10.5t33 -15.5t18 -5t15.5 3q19 10 25 23q11 -2 11 -14.5t-22 -30.5z" />
    <glyph glyph-name="endash" unicode="&#x2013;" horiz-adv-x="438" 
d="M421 178q-47 4 -84.5 4t-60.5 -2t-36 -3t-39 -4.5t-35 -5t-37 -6t-31 -5t-4 -0.5q-7 0 -7 13.5t4.5 27t11.5 13.5q87 7 134 7q137 0 193 -15q7 -2 7 -8t-4.5 -11t-11.5 -5z" />
    <glyph glyph-name="emdash" unicode="&#x2014;" horiz-adv-x="688" 
d="M675 202q7 -2 7 -8t-4.5 -11t-11.5 -5q-48 4 -120.5 4t-222.5 -7t-228 -19h-1q-7 0 -7 13.5t4.5 27t11.5 13.5q86 7 178 7q339 0 394 -15z" />
    <glyph glyph-name="quoteleft" unicode="&#x2018;" horiz-adv-x="149" 
d="M44 358q24 29 59 29q9 0 16.5 -6.5t7.5 -15t-3 -21.5t-22 -32q-23 -22 -48 -22t-34.5 14.5t-9.5 28.5q0 32 36 81q52 70 117 74h3t3 -3q-1 -2 -4 -3q-44 -5 -79.5 -42.5t-41.5 -81.5z" />
    <glyph glyph-name="quoteright" unicode="&#x2019;" horiz-adv-x="149" 
d="M153.5 410q8.5 -14 8.5 -29.5t-14 -48.5t-54 -68q-45 -38 -86 -38q-4 0 -4 3t4 4q43 4 79 41.5t42 81.5q-23 -29 -56 -29q-12 0 -19.5 7t-7.5 15q0 27 23 50q25 25 50.5 25t34 -14z" />
    <glyph glyph-name="quotesinglbase" unicode="&#x201a;" horiz-adv-x="229" 
d="M139.5 76q8.5 -14 8.5 -29.5t-14 -48.5t-54 -68t-83 -38q-6 0 -7 4q2 2 4 3q44 4 80 41.5t42 81.5l-5 -4q-25 -25 -51 -25q-12 0 -19.5 7t-7.5 15.5t3 21.5t22 31q22 22 47.5 22t34 -14z" />
    <glyph glyph-name="quotedblleft" unicode="&#x201c;" horiz-adv-x="413" 
d="M68 494q23 29 59 29q9 0 16.5 -7t7.5 -15q0 -27 -23 -50q-25 -25 -50.5 -25t-34 14t-8.5 29.5t14 48.5t55 68q44 38 85 38q4 0 4 -4q-2 -2 -4 -3q-43 -4 -79 -41.5t-42 -81.5zM206 494q29 29 56 29q12 0 19.5 -7t7.5 -15.5t-3 -21t-22 -31.5q-22 -22 -47.5 -22t-34 14
t-8.5 29.5t14 48.5t54 68q44 38 85 38q4 0 5 -4q-2 -2 -4 -3q-44 -4 -80 -41.5t-42 -81.5z" />
    <glyph glyph-name="quotedblright" unicode="&#x201d;" horiz-adv-x="413" 
d="M402 545q0 -32 -36 -82q-52 -70 -117 -74q-6 0 -6 3.5t4 3.5q44 5 79.5 42.5t41.5 81.5q-16 -21 -43 -28q-7 -1 -16 -1t-16.5 7t-7.5 15q0 28 23 49q25 25 50 25t38 -18q6 -10 6 -24zM230 520q-29 -29 -57 -29q-11 0 -18.5 6.5t-7.5 15t3 21.5t22 32q24 21 48 21t37 -18
q6 -10 6 -24q0 -32 -37 -82q-51 -70 -116 -74q-6 0 -6 3.5t4 3.5q44 5 80 42.5t42 81.5z" />
    <glyph glyph-name="quotedblbase" unicode="&#x201e;" horiz-adv-x="328" 
d="M271 22q-29 -29 -56 -29q-12 0 -19.5 7t-7.5 15.5t3 21.5t22 31q22 22 47.5 22t38.5 -18q5 -10 5 -25.5t-14 -48.5t-54.5 -68t-83.5 -38q-6 0 -6 4q1 2 4 3q43 4 79 41.5t42 81.5zM139.5 76q8.5 -14 8.5 -29.5t-14 -48.5t-54 -68t-83 -38q-6 0 -7 4q2 2 4 3q44 4 80 41.5
t42 81.5l-5 -4q-25 -25 -51 -25q-12 0 -19.5 7t-7.5 15.5t3 21.5t22 31q22 22 47.5 22t34 -14z" />
    <glyph glyph-name="dagger" unicode="&#x2020;" horiz-adv-x="314" 
d="M-11 -254q-26 0 -26 42q0 9 2 19q27 135 63.5 215.5t157.5 263.5q-9 -2 -48 -13t-47.5 -11t-14.5 4t-5.5 9.5t7 10t17 7.5t22.5 6t26.5 5.5t24.5 3.5q32 5 36 5q1 1 25 37.5t33.5 49t29.5 40.5q34 46 69 76q10 8 36 13.5t41 5.5t15 -7q0 -1 -2 -3t-55.5 -61.5
t-116.5 -143.5q66 11 85 11t22 -6q-15 -15 -100 -27q-23 -4 -27 -5q-20 -31 -77 -113.5t-76.5 -113.5t-52.5 -88q-67 -113 -62 -202q1 -20 1 -29q-1 -1 -3 -1z" />
    <glyph glyph-name="daggerdbl" unicode="&#x2021;" horiz-adv-x="314" 
d="M-8 -253q-1 -1 -2 -1q-25 0 -25 50v11q12 136 161 385q-8 -2 -37.5 -12t-40.5 -10q-24 0 -22 15q1 20 117 33q28 46 43 68q-9 -2 -48 -13t-47.5 -11t-14.5 4t-5.5 9.5t7 10t17 7.5t22.5 6t26.5 5.5t24.5 3.5q32 5 36 5q1 1 25 37.5t33.5 49t29.5 40.5q34 46 69 76
q10 8 36 13.5t41 5.5t15 -7q0 -1 -2 -3t-55.5 -61.5t-116.5 -143.5q66 11 85 11t22 -6q-15 -15 -100 -27q-23 -4 -27 -5l-48 -68q89 14 108 14t22 -6q-15 -16 -148 -35q-12 -18 -46.5 -69t-54 -82t-44.5 -77q-61 -108 -57 -194q1 -20 1 -29z" />
    <glyph glyph-name="bullet" unicode="&#x2022;" horiz-adv-x="501" 
d="M458 205q0 -83 -58 -141t-140.5 -58t-140.5 58.5t-58 140.5t58 140.5t140.5 58.5t140.5 -58t58 -141z" />
    <glyph glyph-name="ellipsis" unicode="&#x2026;" horiz-adv-x="548" 
d="M430 -7q-11 0 -21 8t-10 17q0 30 17 48q24 25 50 25q11 0 20.5 -7.5t9.5 -27t-20 -41.5t-46 -22zM298 18q-21 -25 -50 -25q-9 0 -19 8t-10 27t20.5 41t49.5 22q9 0 18.5 -7.5t9.5 -16.5q0 -29 -19 -49zM78 -7q-12 0 -21.5 8t-9.5 17q0 30 17 48q24 25 50 25
q11 0 20.5 -7.5t9.5 -27t-20.5 -41.5t-45.5 -22z" />
    <glyph glyph-name="perthousand" unicode="&#x2030;" horiz-adv-x="930" 
d="M885 268q36 -19 36 -63q0 -49 -48.5 -100.5t-126.5 -77.5q-36 -13 -68 -13t-46 27q-7 13 -7 28.5t4.5 38t35 62.5t62.5 66q50 42 108 42q25 0 50 -10zM592 268q36 -19 36 -63q0 -49 -47.5 -100t-125.5 -78q-37 -13 -68.5 -13t-46.5 25q-8 14 -8 30t4.5 38.5t35 62.5
t62.5 66q50 42 108 42q25 0 50 -10zM327 538q9 -4 28.5 -4t71.5 16t71 16t19 -8t-10 -22q-109 -145 -241 -356.5t-178 -319.5q-5 -11 -9.5 -11t-4.5 11q0 50 145.5 298.5t218.5 345.5q-16 -8 -39.5 -8t-57.5 20q5 -13 5 -27q0 -46 -51 -103q-46 -50 -123 -76
q-37 -13 -69 -13t-47 27q-7 13 -7 29t4.5 38.5t35.5 63t63 65.5q49 41 106 41l51 -10q12 -7 18 -13zM644 68q0 -37 38 -37q20 0 56.5 15.5t74.5 56.5q42 47 42 86q0 24 -18 33t-38 9q-44 0 -93 -45.5t-60 -99.5q-2 -10 -2 -18zM222 514q-43 0 -91.5 -44.5t-60.5 -98.5
q-2 -11 -2 -19q0 -24 18 -33q8 -4 23.5 -4t52 15t68.5 50q49 52 49 93q0 24 -18.5 32.5t-38.5 8.5zM351 68q0 -37 38 -37q19 0 56 15.5t75 56.5q42 47 42 86q0 24 -18 33t-38 9q-44 0 -93 -45.5t-60 -99.5q-2 -10 -2 -18z" />
    <glyph glyph-name="guilsinglleft" unicode="&#x2039;" horiz-adv-x="296" 
d="M119 150q-33 29 -60.5 29t-27.5 2q0 5 17 14q74 44 139.5 95.5t79.5 81.5q5 12 18.5 12t13.5 -2.5t-1 -3.5q-31 -67 -182 -160q25 -11 50.5 -41t35.5 -69q2 -9 2 -18q0 -28 -21 -52t-24 -24q-6 0 2 13q7 15 7 30q0 50 -49 93z" />
    <glyph glyph-name="guilsinglright" unicode="&#x203a;" horiz-adv-x="294" 
d="M199 241q33 -29 60 -29t27 -2q0 -5 -8.5 -10.5t-50 -30.5t-102 -72.5t-74.5 -77.5q-5 -11 -24 -12q-9 1 -8 6q33 66 183 159q-25 11 -50.5 41t-35.5 69q-2 9 -2 19q0 28 21 52t24 24q6 0 -2 -13q-7 -15 -7 -30q0 -50 49 -93z" />
    <glyph glyph-name="fraction" unicode="&#x2044;" horiz-adv-x="595" 
d="M448 584l35 5q14 0 14 -7q-1 -5 -6 -12q-128 -166 -270 -376.5t-185 -311.5q-5 -11 -12 -11q-3 0 -8 3t-5 12q0 42 116 230.5t213 328t108 139.5z" />
    <glyph glyph-name="Euro" unicode="&#x20ac;" horiz-adv-x="912" 
d="M600 345h-39q-87 0 -247 -13q-49 -47 -75 -83q270 -6 284 -14q5 -3 5 -8q0 -18 -30 -17q-7 1 -34 1q-41 0 -256 -14q-18 -39 -18 -75t21.5 -63.5t56.5 -41.5q65 -26 127 -26t124 10q164 29 346 136q8 4 16 4t8 -7t-14 -18q-66 -50 -165 -94q-164 -75 -299 -75
q-104 0 -178 50t-74 149q0 22 5 47q-47 -4 -78 -8t-52.5 -4t-21.5 16q0 49 169 51q15 38 41 77q-1 0 -37 -5t-58 -5t-22 16q0 46 162 51q86 97 214 174q193 115 336 115q87 0 132 -42q27 -25 27 -65q0 -22 -11 -22q-5 0 -7 10q-5 24 -99 24t-235.5 -58t-247.5 -136
q225 -3 241 -13q4 -3 4 -7q0 -17 -21 -17z" />
    <glyph glyph-name="trademark" unicode="&#x2122;" horiz-adv-x="638" 
d="M388 443q0 -74 32 -74t144 145q38 49 42 49q7 0 7 -8q0 -40 -86 -267q-5 -14 -33 -14q-8 0 -7 8q0 2 7.5 17.5t36 91t33.5 86.5q-35 -35 -45.5 -46t-28.5 -27.5t-32 -26.5q-35 -26 -50 -26q-44 0 -51 115q-12 -18 -39 -75t-41 -73.5t-28 -16.5q-8 0 -8 6q1 8 45.5 87.5
t52 94t21 32.5t24.5 18h1q7 0 7 -18zM459 535q0 37 -125 37q-39 0 -87 -5q-133 -12 -185 -39q-20 -10 -20 -21q0 -6 4.5 -10.5t1.5 -4.5l-6 2q-9 8 -9 18.5t5 21.5q23 49 166 66q43 6 73 6t68 -4t75 -18q53 -21 53 -50q0 -9 -5 -18q-8 -10 -17 -11q-8 0 0 11.5t8 18.5z
M186 359q-15 -42 -15 -58t1 -21q1 -23 15 -27q11 -2 16.5 2.5t6 3t-2.5 -4.5q-10 -6 -17 -6q-52 0 -52 48q0 54 45 124q22 34 94 135q6 8 9.5 8t4.5 -2t1 -3z" />
    <glyph glyph-name="partialdiff" unicode="&#x2202;" horiz-adv-x="400" 
d="M-60 493q0 58 80 58q93 0 164 -83q48 -56 70.5 -91.5t41 -65t31.5 -49.5t26 -43.5t26.5 -59.5t13.5 -63t-15 -56.5t-49 -52.5q-17 -12 -41.5 -12t-57.5 15q-62 29 -114 90q-69 81 -69 151q0 38 27 60q18 11 40 11t47 -10q51 -21 101 -71q-16 28 -39.5 75t-40.5 79t-40 67
q-47 70 -107 82q-10 4 -22 4q-52 0 -52 -35q0 -7 -5.5 -9.5t-10.5 0t-5 9.5zM279 -3q58 0 58 54q0 45 -34.5 99t-77.5 76q-25 13 -41 13q-47 0 -47 -54t39 -114q22 -34 50 -53q29 -21 53 -21z" />
    <glyph glyph-name="minus" unicode="&#x2212;" horiz-adv-x="438" 
d="M87 169.5q0 13.5 4.5 27t11.5 13.5q69 7 130.5 7t114.5 -8q12 -2 12 -10t-10 -8q-72 -2 -151 -16q-102 -19 -107 -19t-5 13.5z" />
    <glyph glyph-name="infinity" unicode="&#x221e;" horiz-adv-x="482" 
d="M410 327q28 0 28 -28q0 -13 -7 -34q-22 -61 -76 -104.5t-92 -43.5q-13 0 -25 4q-20 7 -20 47q0 13 2 30l-46 -33q-68 -46 -105 -46q-14 0 -26.5 9t-12.5 36t23 73t64 77.5t68 31.5q13 0 25 -6q31 -15 31 -63q0 -12 -2 -26q124 76 171 76zM60 210q0 -25 30 -25t80 26
l56 33v12q0 70 -51 70q-37 0 -76 -42q-19 -20 -29 -41t-10 -33zM409 287q0 8 -9 8q-41 0 -162 -86q6 -31 36 -31q34 0 71 28.5t50.5 50.5t13.5 30z" />
    <glyph glyph-name="notequal" unicode="&#x2260;" horiz-adv-x="438" 
d="M267 232l81 -7q12 -2 12 -10.5t-10 -8.5q-59 -1 -108 -9q-47 -68 -54 -79h32.5t92.5 -7q7 -1 10 -5.5t0.5 -9t-9.5 -4.5q-71 -1 -154 -17q-57 -87 -75 -130q-3 -7 -6 -7t-7 4t3 24.5t56 103.5l-72 -12q-8 -1 -8 12.5t4.5 27t11.5 14.5q54 5 94 6q35 56 47 74
q-7 -1 -47.5 -8.5t-65.5 -11.5q-7 -1 -7.5 12t4 27t11.5 15q66 6 133 6q74 111 83 111l20 3q12 0 4 -11z" />
    <glyph glyph-name="lessequal" unicode="&#x2264;" horiz-adv-x="296" 
d="M119 150q-33 29 -60.5 29t-27.5 2q0 5 39 27q66 40 124.5 86.5t72.5 77.5q5 12 18.5 12t13.5 -2.5t-1 -3.5q-31 -67 -182 -160q26 -11 51 -41t35 -69q2 -9 2 -18q0 -28 -21 -52t-24 -24q-6 0 2 13q7 15 7 30q0 50 -49 93zM256 -49q0 -6 -8 -6q-59 -2 -122 -13.5
t-84 -14.5q-6 0 -6 11t3.5 22t8.5 11q54 5 104 5q95 0 102 -10q2 -3 2 -5z" />
    <glyph glyph-name="greaterequal" unicode="&#x2265;" horiz-adv-x="294" 
d="M199 241q33 -29 60 -29t27 -2q0 -5 -8.5 -10.5t-50.5 -31t-102 -72.5t-74 -77q-5 -11 -24 -12q-9 1 -8 6q33 66 183 159q-25 11 -50.5 41t-35.5 69q-2 10 -2 19q0 29 21 52.5t24 23.5q6 0 -2 -13q-7 -15 -7 -30q0 -50 49 -93zM214 -46q0 -6 -8 -6q-62 -2 -121 -13
q-82 -15 -86.5 -15t-4.5 8q0 34 12 35q58 5 108 5q91 0 98 -10q2 -2 2 -4z" />
    <glyph glyph-name="apple" unicode="&#xf8ff;" horiz-adv-x="421" 
d="M217 93q-23 0 -39 -10.5t-41.5 -10.5t-64 47t-50.5 119q-4 22 -4 55.5t21.5 75.5t56.5 55q22 8 34.5 8t24.5 -6q35 -16 52 -16q38 0 79 19q7 3 19 3q57 0 87 -49q-52 -29 -52 -92q0 -35 18.5 -60t45.5 -36q-16 -48 -45 -85.5t-58.5 -37.5t-45 10.5t-38.5 10.5zM218 437
q0 32 17 57t36.5 35.5t26 10.5t8.5 -1q8 -12 8 -30t-16 -43q-26 -42 -72 -42h-6q-2 6 -2 13zM100 366.5q0 -2.5 1 -5.5q1 0 3 -1l2 1h1q-1 -1 -1 -2l-1 -1h-2v1h-3q3 -3 5.5 -3t3.5 3v8q-2 2 -5.5 2t-3.5 -2.5zM94 369q-4 0 -4 -3.5t1 -4.5q1 0 3 -1l2 1v-2q0 -1 -2 -1h-1v1
h-3q0 -3 4 -3t4.5 2t0.5 5t-0.5 4.5t-4.5 1.5zM207 268l-1 2h-2q-5 0 -5 -5t3 -5q6 0 6 3h-2l-1 -1h-3l-1 2h7v2q0 2 -1 2zM249 330q-4 0 -4 -2q0 -4 3 -4h2l1 1v-1h3v7q0 3 -3.5 3t-4.5 -1q0 -1 -0.5 -1t-0.5 -1h3v1h3v-2h-2zM107 365l-2 -3q-1 0 -1 0.5t-1 0.5v2q0 1 1 2
h1q1 0 1 -1zM95 363v-1l-2 1v4h1q2 0 2 -1v-1q0 -2 -1 -2zM202 267q0 1 2 1t2 -2h-5zM251 328q0 -2 -1 -2h-2v2h2l1 1v-1z" />
    <glyph glyph-name="fi" unicode="&#xfb01;" horiz-adv-x="497" 
d="M454 428q-19 32 -63 32t-72 -20q-59 -38 -137 -144q55 -5 74 -20q37 -28 30 -41q-2 -5 -18 4.5t-49 9.5t-77 -12q-69 -101 -102 -207q-14 -46 -14 -76t13 -45q4 -4 1 -5t-4 -1t-2 1q-37 30 -37 95t61 206q-5 -2 -7.5 0t-6 9t-5.5 17.5t0.5 21t14.5 21.5q14 12 47 19
q74 137 143 184q45 31 94.5 31t86 -25t44.5 -72v-2v-6q0 -18 -14.5 -35.5t-32.5 -22t-29 4.5t-9.5 26.5t15 32t29 19.5t26.5 0zM414 252q-40 -42 -68 -107t-28 -90.5t21 -25.5t68 29.5t108 85.5q13 12 13 -3q0 -2 -2 -4q-48 -42 -81 -69t-78.5 -51.5t-74.5 -24.5
q-36 0 -53.5 16t-17.5 35q0 36 14 58.5t44 56.5q-51 -42 -66 -57q-8 -7 -10 1q-1 9 10 18q23 18 75.5 70.5t72 62.5t32 10t18.5 -3.5t3 -7.5z" />
    <glyph glyph-name="fl" unicode="&#xfb02;" horiz-adv-x="534" 
d="M315 41q0 -27 27 -27q16 0 50.5 13t89.5 57t74 63.5t23 19t3 -6t-5 -9.5q-85 -87 -141 -125t-105 -38q-40 0 -56 19t-16 44q0 45 32 108q-52 -56 -58 -43q-2 5 6 12q47 38 108 118t114 164v1q-8 30 -31 40t-37 10q-42 0 -74 -21q-59 -38 -137 -144q55 -5 74 -20
q37 -28 30 -41q-2 -5 -18 4.5t-49 9.5t-77 -12q-69 -101 -102 -207q-14 -46 -14 -76t13 -45q4 -4 1 -5t-4 -1t-2 1q-37 30 -37 95t61 206q-5 -2 -7.5 0t-6 9t-5.5 17.5t0.5 21t14.5 21.5q14 12 47 19q74 137 143 184q44 31 94 31q20 0 40 -5q73 -17 89 -84l28 46
q10 19 10 28q0 21 -23 8q-26 -13 -28 -10t3 8q24 18 66 34t69 17q42 0 42 -26q0 -15 -14.5 -40t-83 -99.5t-83.5 -93.5q-103 -135 -131 -215q-7 -21 -7 -35z" />
  </font>
</defs>
</svg>
